<svg xmlns="http://www.w3.org/2000/svg" xmlns:xlink="http://www.w3.org/1999/xlink" width="111.516"
    height="99.17" viewBox="0 0 111.516 99.17">
    <defs>
        <linearGradient id="a" x1="-0.018" y1="0.219" x2="0.91" y2="0.774"
            gradientUnits="objectBoundingBox">
            <stop offset="0" stop-color="#c6d1ff" />
            <stop offset="0.583" stop-color="#e6d5f4" />
            <stop offset="0.997" stop-color="#ffd9ec" />
        </linearGradient>
    </defs>
    <g transform="translate(0 -28.343)">
        <path
            d="M189.657,77.6h0V60.518a2.177,2.177,0,0,0-2.178-2.178h-46.85a2.177,2.177,0,0,0-2.178,2.178v88.815a1.088,1.088,0,0,0,1.583.969l3.043-1.553a1.089,1.089,0,0,1,.991,0l4.13,2.108a1.089,1.089,0,0,0,.991,0l4.132-2.108a1.085,1.085,0,0,1,.989,0l4.132,2.108a1.085,1.085,0,0,0,.989,0l4.132-2.108a1.089,1.089,0,0,1,.991,0l4.13,2.108a1.089,1.089,0,0,0,.991,0l4.13-2.108a1.085,1.085,0,0,1,.989,0l4.132,2.108a1.085,1.085,0,0,0,.989,0l4.13-2.108a1.089,1.089,0,0,1,.991,0l3.041,1.553a1.089,1.089,0,0,0,1.583-.971V100.806h0a11.6,11.6,0,0,0,0-23.2Z"
            transform="translate(-108.295 -23.464)" fill="#2626bc" opacity="0.1" />
        <g transform="translate(0 28.343)">
            <g transform="translate(0 7.533)">
                <path
                    d="M102.69,78.259C88.442,67.3,74.622,76.232,59.207,73.076,43.681,69.9,37.5,59.31,19.812,64.2,4.147,68.526-5.358,85.88,3.253,100.409c2.454,4.14,6.635,7.264,8.343,11.9,2.756,7.473-1.439,13.211-.621,20.555,3.4,30.515,50,18.7,67.15,9.2C105.018,127.172,123.211,94.036,102.69,78.259Z"
                    transform="translate(0 -62.928)" fill="url(#a)" />
            </g>
            <g transform="translate(29.066 0)">
                <g transform="translate(0 0)">
                    <path
                        d="M189.656,35.518V124.33a1.089,1.089,0,0,1-1.583.971l-3.041-1.553a1.089,1.089,0,0,0-.991,0l-4.13,2.108a1.085,1.085,0,0,1-.989,0l-4.132-2.108a1.084,1.084,0,0,0-.989,0l-4.13,2.108a1.089,1.089,0,0,1-.991,0l-4.13-2.108a1.089,1.089,0,0,0-.991,0l-4.132,2.108a1.085,1.085,0,0,1-.989,0l-4.132-2.108a1.084,1.084,0,0,0-.989,0l-4.132,2.108a1.089,1.089,0,0,1-.991,0l-4.13-2.108a1.089,1.089,0,0,0-.991,0l-3.043,1.553a1.088,1.088,0,0,1-1.583-.969V35.518a2.177,2.177,0,0,1,2.178-2.178h46.85A2.177,2.177,0,0,1,189.656,35.518Z"
                        transform="translate(-137.361 -32.252)" fill="#fff" />
                    <path d="M331.883,144.6v23.205a11.6,11.6,0,0,1,0-23.205Z"
                        transform="translate(-279.587 -119.279)" fill="#dcfdee" />
                    <path
                        d="M165.264,123.156a2.178,2.178,0,0,1-.99-.237l-4.131-2.108-4.131,2.108a2.186,2.186,0,0,1-1.98,0L149.9,120.81l-4.131,2.108a2.185,2.185,0,0,1-1.98,0l-4.132-2.108-3.043,1.553a2.178,2.178,0,0,1-3.168-1.94V31.61a3.271,3.271,0,0,1,3.267-3.267h10.667a1.089,1.089,0,1,1,0,2.178H136.715a1.09,1.09,0,0,0-1.089,1.089v88.813l3.042-1.553a2.185,2.185,0,0,1,1.98,0l4.132,2.108,4.131-2.108a2.184,2.184,0,0,1,1.981,0l4.13,2.108,4.131-2.108a2.184,2.184,0,0,1,1.981,0l4.13,2.108,4.13-2.108a2.184,2.184,0,0,1,1.98,0l4.13,2.108,4.129-2.108a2.185,2.185,0,0,1,1.98,0l3.041,1.552V78.343a1.089,1.089,0,1,1,2.178,0v42.08a2.178,2.178,0,0,1-3.168,1.94l-3.041-1.552-4.129,2.108a2.183,2.183,0,0,1-1.981,0l-4.13-2.108-4.13,2.108A2.176,2.176,0,0,1,165.264,123.156Z"
                        transform="translate(-133.448 -28.343)" fill="#2626bc" />
                </g>
                <g transform="translate(7.848 34.734)">
                    <g transform="translate(0 0.013)">
                        <g transform="translate(0 4.363)">
                            <path
                                d="M189.414,210.082H170.569a1.089,1.089,0,1,1,0-2.178h18.845a1.089,1.089,0,0,1,0,2.178Z"
                                transform="translate(-169.48 -207.904)" fill="#8399fe" />
                        </g>
                        <path
                            d="M173.078,190.051h-2.509a1.089,1.089,0,1,1,0-2.178h2.509a1.089,1.089,0,1,1,0,2.178Z"
                            transform="translate(-169.48 -187.873)" fill="#01eca5" />
                    </g>
                    <g transform="translate(0 9.903)">
                        <g transform="translate(0 4.363)">
                            <path
                                d="M193.77,255.49h-23.2a1.089,1.089,0,1,1,0-2.178h23.2a1.089,1.089,0,1,1,0,2.178Z"
                                transform="translate(-169.48 -253.312)" fill="#8399fe" />
                        </g>
                        <path
                            d="M173.078,235.458h-2.509a1.089,1.089,0,0,1,0-2.178h2.509a1.089,1.089,0,1,1,0,2.178Z"
                            transform="translate(-169.48 -233.28)" fill="#01eca5" />
                    </g>
                    <g transform="translate(0 19.792)">
                        <g transform="translate(0 4.363)">
                            <path
                                d="M191.592,300.9H170.569a1.089,1.089,0,1,1,0-2.178h21.023a1.089,1.089,0,1,1,0,2.178Z"
                                transform="translate(-169.48 -298.719)" fill="#8399fe" />
                        </g>
                        <path
                            d="M173.078,280.865h-2.509a1.089,1.089,0,1,1,0-2.178h2.509a1.089,1.089,0,1,1,0,2.178Z"
                            transform="translate(-169.48 -278.687)" fill="#01eca5" />
                    </g>
                    <g transform="translate(0 29.683)">
                        <g transform="translate(0 4.363)">
                            <path
                                d="M182.879,346.305h-12.31a1.089,1.089,0,1,1,0-2.178h12.31a1.089,1.089,0,1,1,0,2.178Z"
                                transform="translate(-169.48 -344.127)" fill="#8399fe" />
                        </g>
                        <g transform="translate(17.59 4.363)">
                            <path
                                d="M256.016,346.305h-4.687a1.089,1.089,0,1,1,0-2.178h4.687a1.089,1.089,0,1,1,0,2.178Z"
                                transform="translate(-250.24 -344.127)" fill="#8399fe" />
                        </g>
                        <path
                            d="M173.078,326.273h-2.509a1.089,1.089,0,1,1,0-2.178h2.509a1.089,1.089,0,1,1,0,2.178Z"
                            transform="translate(-169.48 -324.095)" fill="#01eca5" />
                    </g>
                    <g transform="translate(31.28 4.375)">
                        <g transform="translate(0 0.001)">
                            <path
                                d="M317.783,210.082h-3.6a1.089,1.089,0,1,1,0-2.178h3.6a1.089,1.089,0,1,1,0,2.178Z"
                                transform="translate(-313.096 -207.904)" fill="#8399fe" />
                        </g>
                        <g transform="translate(1.769)">
                            <path
                                d="M325.228,208.989a1.088,1.088,0,0,1-1.089,1.089h-2.276a11.623,11.623,0,0,1-.643-2.178h2.919A1.089,1.089,0,0,1,325.228,208.989Z"
                                transform="translate(-321.22 -207.9)" fill="#6583fe" />
                        </g>
                        <g transform="translate(0 9.891)">
                            <path
                                d="M317.783,255.49h-3.6a1.089,1.089,0,1,1,0-2.178h3.6a1.089,1.089,0,1,1,0,2.178Z"
                                transform="translate(-313.096 -253.312)" fill="#8399fe" />
                        </g>
                        <g transform="translate(0 19.781)">
                            <path
                                d="M317.783,300.9h-3.6a1.089,1.089,0,1,1,0-2.178h3.6a1.089,1.089,0,1,1,0,2.178Z"
                                transform="translate(-313.096 -298.719)" fill="#8399fe" />
                        </g>
                        <g transform="translate(0 29.671)">
                            <path
                                d="M317.783,346.305h-3.6a1.089,1.089,0,1,1,0-2.178h3.6a1.089,1.089,0,1,1,0,2.178Z"
                                transform="translate(-313.096 -344.127)" fill="#8399fe" />
                        </g>
                    </g>
                    <g transform="translate(34.518 29.67)">
                        <path
                            d="M329.05,326.24a1.089,1.089,0,0,1-1.089-1.089v-.025a1.089,1.089,0,1,1,2.178,0v.025A1.089,1.089,0,0,1,329.05,326.24Z"
                            transform="translate(-327.961 -324.037)" fill="#01eca5" />
                    </g>
                    <g transform="translate(29.621 46.651)">
                        <path
                            d="M311.823,404.178h-5.258a1.089,1.089,0,1,1,0-2.178h5.258a1.089,1.089,0,1,1,0,2.178Z"
                            transform="translate(-305.476 -402)" fill="#8399fe" />
                    </g>
                    <g transform="translate(0 46.651)">
                        <path
                            d="M178.006,404.178H170.57a1.089,1.089,0,1,1,0-2.178h7.436a1.089,1.089,0,1,1,0,2.178Z"
                            transform="translate(-169.481 -402)" fill="#8399fe" />
                    </g>
                    <g transform="translate(34.518 19.78)">
                        <path
                            d="M329.05,280.833a1.089,1.089,0,0,1-1.089-1.089v-.025a1.089,1.089,0,1,1,2.178,0v.025A1.089,1.089,0,0,1,329.05,280.833Z"
                            transform="translate(-327.961 -278.63)" fill="#01eca5" />
                    </g>
                    <g transform="translate(34.518 9.89)">
                        <path
                            d="M329.05,235.426a1.089,1.089,0,0,1-1.089-1.089v-.025a1.089,1.089,0,1,1,2.178,0v.025A1.089,1.089,0,0,1,329.05,235.426Z"
                            transform="translate(-327.961 -233.223)" fill="#01eca5" />
                    </g>
                    <g transform="translate(34.518)">
                        <path
                            d="M329.05,190.018a1.089,1.089,0,0,1-1.089-1.089V188.9a1.089,1.089,0,1,1,2.178,0v.025A1.089,1.089,0,0,1,329.05,190.018Z"
                            transform="translate(-327.961 -187.815)" fill="#01eca5" />
                    </g>
                </g>
                <g transform="translate(19.216)">
                    <circle cx="11.602" cy="11.602" r="11.602" transform="translate(21.478 20.35)"
                        fill="#01eca5" />
                    <path
                        d="M255.842,47.654V31.61a3.271,3.271,0,0,0-3.267-3.267H222.762a1.089,1.089,0,1,0,0,2.178h29.813a1.09,1.09,0,0,1,1.089,1.089V47.654a12.692,12.692,0,1,0,2.178,0Zm-1.089,23.155A10.513,10.513,0,1,1,265.267,60.3,10.525,10.525,0,0,1,254.753,70.808Z"
                        transform="translate(-221.673 -28.343)" fill="#2626bc" />
                    <path
                        d="M358.072,148.381h-.33v-2.217H359.8a1.089,1.089,0,0,0,0-2.178h-2.059v-.548a1.089,1.089,0,1,0-2.178,0v.548h-.33a3.287,3.287,0,1,0,0,6.573h.33v2.217h-2.059a1.089,1.089,0,1,0,0,2.178h2.059v.548a1.089,1.089,0,1,0,2.178,0v-.548h.33a3.287,3.287,0,0,0,0-6.573Zm-2.839,0a1.109,1.109,0,1,1,0-2.217h.33v2.217Zm2.839,4.4h-.33v-2.217h.33a1.109,1.109,0,0,1,0,2.217Z"
                        transform="translate(-323.573 -117.518)" fill="#fff" />
                </g>
                <g transform="translate(21.082 26.219)">
                    <path
                        d="M240.372,150.9h-9.043a1.089,1.089,0,0,1,0-2.178h9.043a1.089,1.089,0,1,1,0,2.178Z"
                        transform="translate(-230.24 -148.719)" fill="#8399fe" />
                </g>
                <g transform="translate(15.092 18.172)">
                    <path
                        d="M224.852,113.952H203.829a1.089,1.089,0,0,1,0-2.178h21.023a1.089,1.089,0,0,1,0,2.178Z"
                        transform="translate(-202.74 -111.774)" fill="#4369fd" />
                </g>
                <g transform="translate(9.647 13.392)">
                    <path
                        d="M210.742,92.006H178.829a1.089,1.089,0,0,1,0-2.178h31.913a1.089,1.089,0,1,1,0,2.178Z"
                        transform="translate(-177.74 -89.828)" fill="#4369fd" />
                </g>
                <g transform="translate(7.848 8.612)">
                    <path
                        d="M173.078,70.061h-2.509a1.089,1.089,0,0,1,0-2.178h2.509a1.089,1.089,0,1,1,0,2.178Z"
                        transform="translate(-169.48 -67.883)" fill="#01eca5" />
                </g>
            </g>
            <path
                d="M399.844,59.7a3.157,3.157,0,1,1,2.233-.924A3.149,3.149,0,0,1,399.844,59.7Zm0-4.136a.98.98,0,1,0,.693.287A.976.976,0,0,0,399.844,55.567Z"
                transform="translate(-310.287 -47.934)" fill="#00eca2" />
            <path
                d="M424.98,108.594a3.156,3.156,0,1,1,2.233-.923A3.148,3.148,0,0,1,424.98,108.594Zm0-4.136a.979.979,0,1,0,.693.287A.976.976,0,0,0,424.98,104.458Z"
                transform="translate(-329.947 -86.177)" fill="#ff7eb8" />
            <path
                d="M94.043,214.087a3.157,3.157,0,1,1,2.233-.923A3.149,3.149,0,0,1,94.043,214.087Zm0-4.136a.98.98,0,1,0,.693.287A.977.977,0,0,0,94.043,209.95Z"
                transform="translate(-71.091 -168.693)" fill="#ff7eb8" />
            <path
                d="M80.161,266.448a1.086,1.086,0,0,1-.77-.319l-1.3-1.3-1.3,1.3a1.089,1.089,0,0,1-1.54-1.54l2.069-2.069a1.089,1.089,0,0,1,1.54,0l2.069,2.069a1.089,1.089,0,0,1-.77,1.859Z"
                transform="translate(-58.612 -211.265)" fill="#6583fe" />
            <path
                d="M408.049,411.248a1.086,1.086,0,0,1-.77-.319l-1.3-1.3-1.3,1.3a1.089,1.089,0,0,1-1.54-1.54l2.069-2.069a1.089,1.089,0,0,1,1.54,0l2.069,2.069a1.089,1.089,0,0,1-.77,1.859Z"
                transform="translate(-315.085 -324.527)" fill="#00eca2" />
        </g>
    </g>
</svg>