<svg xmlns="http://www.w3.org/2000/svg" width="24.697" height="21.404" viewBox="0 0 24.697 21.404">
    <g transform="translate(0 0)">
        <path
            d="M23.462,36.116H18.934V34.881A2.885,2.885,0,0,0,16.053,32H8.644a2.885,2.885,0,0,0-2.881,2.881v1.235H1.235A1.235,1.235,0,0,0,0,37.351v8.232a1.235,1.235,0,0,0,.823,1.159v5.427A1.235,1.235,0,0,0,2.058,53.4H22.639a1.235,1.235,0,0,0,1.235-1.235V46.742a1.235,1.235,0,0,0,.823-1.159V37.351A1.235,1.235,0,0,0,23.462,36.116ZM6.586,34.881a2.061,2.061,0,0,1,2.058-2.058h7.409a2.061,2.061,0,0,1,2.058,2.058v1.235h-.84l.016-1.235a1.237,1.237,0,0,0-1.235-1.235H8.629a1.237,1.237,0,0,0-1.235,1.235v0L7.4,36.116H6.586Zm9.879-.006-.016,1.241H8.228l-.013-1.235a.412.412,0,0,1,.412-.412h7.426A.412.412,0,0,1,16.465,34.876Zm6.586,17.294a.412.412,0,0,1-.412.412H2.058a.412.412,0,0,1-.412-.412V46.818H4.528v1.235a.412.412,0,0,0,.412.412H6.586A.412.412,0,0,0,7,48.053V46.818H17.7v1.235a.412.412,0,0,0,.412.412h1.646a.412.412,0,0,0,.412-.412V46.818h2.881Zm-17.7-4.528V45.583a.4.4,0,0,1,.126-.293.392.392,0,0,1,.285-.119.412.412,0,0,1,.412.412v2.058Zm13.172,0V45.583a.412.412,0,0,1,.412-.412.4.4,0,0,1,.293.126.4.4,0,0,1,.118.286v2.058Zm5.351-2.058a.412.412,0,0,1-.412.412H20.169v-.412a1.235,1.235,0,0,0-2.47,0v.412H7v-.412a1.235,1.235,0,0,0-2.47,0v.412H1.235a.412.412,0,0,1-.412-.412V37.351a.412.412,0,0,1,.412-.412H23.462a.412.412,0,0,1,.412.412Z"
            transform="translate(0 -32)" fill="#272727" />
    </g>
</svg>