<svg xmlns="http://www.w3.org/2000/svg" width="103.697" height="115.296"
    viewBox="0 0 103.697 115.296">
    <g transform="translate(-25)" opacity="0.4">
        <path
            d="M128.7,56.96V74.822H25V56.96A6.961,6.961,0,0,1,31.96,50h89.778a6.961,6.961,0,0,1,6.96,6.96Z"
            transform="translate(0 -38.401)" fill="#fd646f" />
        <path
            d="M94.311,50V62.991a2.321,2.321,0,0,1-2.32,2.32H81.32A2.321,2.321,0,0,1,79,62.991V50Z"
            transform="translate(-41.473 -38.401)" fill="#fc4755" />
        <path
            d="M351.311,50V62.991a2.321,2.321,0,0,1-2.32,2.32H338.32a2.321,2.321,0,0,1-2.32-2.32V50Z"
            transform="translate(-238.853 -38.401)" fill="#fc4755" />
        <path d="M28.712,53.47V77.487H25V59.625A6.951,6.951,0,0,1,28.712,53.47Z"
            transform="translate(0 -41.066)" fill="#fc4755" />
        <g transform="translate(42.863 50.299)">
            <path
                d="M103.16,216.82H115.1a1.16,1.16,0,0,1,1.16,1.16v11.936a1.16,1.16,0,0,1-1.16,1.16H103.16a1.16,1.16,0,0,1-1.16-1.16V217.98A1.16,1.16,0,0,1,103.16,216.82Z"
                transform="translate(-102 -216.82)" fill="#e6e6e6" />
            <path
                d="M103.16,293.27H115.1a1.16,1.16,0,0,1,1.16,1.16v11.938a1.16,1.16,0,0,1-1.16,1.16H103.16a1.16,1.16,0,0,1-1.16-1.16V294.43A1.16,1.16,0,0,1,103.16,293.27Z"
                transform="translate(-102 -275.535)" fill="#e6e6e6" />
            <path
                d="M103.16,369.73H115.1a1.16,1.16,0,0,1,1.16,1.16v11.936a1.16,1.16,0,0,1-1.16,1.16H103.16a1.16,1.16,0,0,1-1.16-1.16V370.89A1.16,1.16,0,0,1,103.16,369.73Z"
                transform="translate(-102 -334.257)" fill="#e6e6e6" />
            <path
                d="M179.61,216.82H191.8a1.16,1.16,0,0,1,1.16,1.16v11.936a1.16,1.16,0,0,1-1.16,1.16H179.61a1.16,1.16,0,0,1-1.16-1.16V217.98A1.16,1.16,0,0,1,179.61,216.82Z"
                transform="translate(-160.715 -216.82)" fill="#e6e6e6" />
            <path
                d="M179.61,293.27H191.8a1.16,1.16,0,0,1,1.16,1.16v11.938a1.16,1.16,0,0,1-1.16,1.16H179.61a1.16,1.16,0,0,1-1.16-1.16V294.43A1.16,1.16,0,0,1,179.61,293.27Z"
                transform="translate(-160.715 -275.535)" fill="#e6e6e6" />
            <path
                d="M179.61,369.73H191.8a1.16,1.16,0,0,1,1.16,1.16v11.936a1.16,1.16,0,0,1-1.16,1.16H179.61a1.16,1.16,0,0,1-1.16-1.16V370.89A1.16,1.16,0,0,1,179.61,369.73Z"
                transform="translate(-160.715 -334.257)" fill="#e6e6e6" />
            <path
                d="M257.16,216.82h12.191a1.16,1.16,0,0,1,1.16,1.16v11.936a1.16,1.16,0,0,1-1.16,1.16H257.16a1.16,1.16,0,0,1-1.16-1.16V217.98A1.16,1.16,0,0,1,257.16,216.82Z"
                transform="translate(-220.274 -216.82)" fill="#e6e6e6" />
            <path
                d="M257.16,293.27h12.191a1.16,1.16,0,0,1,1.16,1.16v11.938a1.16,1.16,0,0,1-1.16,1.16H257.16a1.16,1.16,0,0,1-1.16-1.16V294.43A1.16,1.16,0,0,1,257.16,293.27Z"
                transform="translate(-220.274 -275.535)" fill="#e6e6e6" />
            <path
                d="M257.16,369.73h12.191a1.16,1.16,0,0,1,1.16,1.16v11.936a1.16,1.16,0,0,1-1.16,1.16H257.16a1.16,1.16,0,0,1-1.16-1.16V370.89A1.16,1.16,0,0,1,257.16,369.73Z"
                transform="translate(-220.274 -334.257)" fill="#e6e6e6" />
            <path
                d="M347.805,217.98v11.936a1.16,1.16,0,0,1-1.16,1.16H334.71a1.16,1.16,0,0,1-1.16-1.16V217.98a1.16,1.16,0,0,1,1.16-1.16h11.936A1.16,1.16,0,0,1,347.805,217.98Z"
                transform="translate(-279.834 -216.82)" fill="#e6e6e6" />
            <path
                d="M334.71,293.27h11.936a1.16,1.16,0,0,1,1.16,1.16v11.938a1.16,1.16,0,0,1-1.16,1.16H334.71a1.16,1.16,0,0,1-1.16-1.16V294.43A1.16,1.16,0,0,1,334.71,293.27Z"
                transform="translate(-279.834 -275.535)" fill="#e6e6e6" />
            <path
                d="M334.71,369.73h11.936a1.16,1.16,0,0,1,1.16,1.16v11.936a1.16,1.16,0,0,1-1.16,1.16H334.71a1.16,1.16,0,0,1-1.16-1.16V370.89A1.16,1.16,0,0,1,334.71,369.73Z"
                transform="translate(-279.834 -334.257)" fill="#e6e6e6" />
        </g>
        <path d="M25,150v73.539a6.959,6.959,0,0,0,6.96,6.96h89.778a6.959,6.959,0,0,0,6.96-6.96V150Z"
            transform="translate(0 -115.202)" fill="#f5f5f5" />
        <path
            d="M106.6,2.32V20.879a2.321,2.321,0,0,1-2.32,2.32H97.32A2.321,2.321,0,0,1,95,20.879V2.32A2.321,2.321,0,0,1,97.32,0h6.96A2.321,2.321,0,0,1,106.6,2.32Z"
            transform="translate(-53.761)" fill="#50758d" />
        <path d="M102,216.82h14.255v14.255H102Z" transform="translate(-59.137 -166.521)"
            fill="#ffac5c" />
        <path d="M333.55,216.82h14.255v14.255H333.55Z" transform="translate(-236.971 -166.521)"
            fill="#ffac5c" />
        <path d="M178.45,216.82h14.511v14.255H178.45Z" transform="translate(-117.852 -166.521)"
            fill="#ffac5c" />
        <path d="M102,293.27h14.255v14.258H102Z" transform="translate(-59.137 -225.236)"
            fill="#ffac5c" />
        <path d="M333.55,293.27h14.255v14.258H333.55Z" transform="translate(-236.971 -225.236)"
            fill="#e6e6e6" />
        <path d="M178.45,293.27h14.511v14.258H178.45Z" transform="translate(-117.852 -225.236)"
            fill="#ffac5c" />
        <path d="M102,369.73h14.255v14.255H102Z" transform="translate(-59.137 -283.958)"
            fill="#e6e6e6" />
        <path d="M333.55,369.73h14.255v14.255H333.55Z" transform="translate(-236.971 -283.958)"
            fill="#e6e6e6" />
        <path d="M178.45,369.73h14.511v14.255H178.45Z" transform="translate(-117.852 -283.958)"
            fill="#e6e6e6" />
        <path d="M256,216.82h14.511v14.255H256Z" transform="translate(-177.412 -166.521)"
            fill="#ffac5c" />
        <path d="M256,293.27h14.511v14.258H256Z" transform="translate(-177.412 -225.236)"
            fill="#ffac5c" />
        <path d="M256,369.73h14.511v14.255H256Z" transform="translate(-177.412 -283.958)"
            fill="#e6e6e6" />
        <path
            d="M363.6,2.32V20.879a2.321,2.321,0,0,1-2.32,2.32h-6.96a2.321,2.321,0,0,1-2.32-2.32V2.32A2.321,2.321,0,0,1,354.32,0h6.96A2.321,2.321,0,0,1,363.6,2.32Z"
            transform="translate(-251.141)" fill="#50758d" />
        <path
            d="M25,150v73.539a6.959,6.959,0,0,0,6.96,6.96h2.57a6.954,6.954,0,0,1-5.7-6.844V154.923a1.855,1.855,0,0,1,1.74-1.211H128.7V150Z"
            transform="translate(0 -115.202)" fill="#e6e6e6" />
        <path
            d="M101.032,23.2H97.32A2.321,2.321,0,0,1,95,20.879V2.32A2.321,2.321,0,0,1,97.32,0h1.392V20.879A2.321,2.321,0,0,0,101.032,23.2Z"
            transform="translate(-53.761)" fill="#2b597f" />
        <path
            d="M358.032,23.2H354.32a2.321,2.321,0,0,1-2.32-2.32V2.32A2.321,2.321,0,0,1,354.32,0h1.392V20.879A2.321,2.321,0,0,0,358.032,23.2Z"
            transform="translate(-251.141)" fill="#2b597f" />
    </g>
</svg>