<svg xmlns="http://www.w3.org/2000/svg" width="21.904" height="21.904" viewBox="0 0 21.904 21.904">
    <path
        d="M19.08,1.711H17.112V.684a.684.684,0,1,0-1.369,0V1.711H6.16V.684a.684.684,0,0,0-1.369,0V1.711H2.824A2.827,2.827,0,0,0,0,4.535V19.08A2.827,2.827,0,0,0,2.824,21.9H19.08A2.827,2.827,0,0,0,21.9,19.08V4.535A2.827,2.827,0,0,0,19.08,1.711ZM2.824,3.08H4.791v.684a.684.684,0,0,0,1.369,0V3.08h9.583v.684a.684.684,0,1,0,1.369,0V3.08H19.08a1.456,1.456,0,0,1,1.455,1.455V6.16H1.369V4.535A1.456,1.456,0,0,1,2.824,3.08ZM19.08,20.535H2.824A1.456,1.456,0,0,1,1.369,19.08V7.529H20.535V19.08A1.456,1.456,0,0,1,19.08,20.535Z"
        fill="#272727" />
</svg>