<svg xmlns="http://www.w3.org/2000/svg" width="39.443" height="31.044" viewBox="0 0 39.443 31.044">
    <g transform="translate(0 0)">
        <g transform="translate(0)">
            <path
                d="M38.131,49.637a4.241,4.241,0,0,0-3.112-1.312H28.795v-.075a3.366,3.366,0,0,0-1.012-2.437A3.431,3.431,0,0,0,25.345,44.8H14.1a3.457,3.457,0,0,0-3.487,3.449v.075H4.424a4.241,4.241,0,0,0-3.112,1.312A4.458,4.458,0,0,0,0,52.749V71.42a4.241,4.241,0,0,0,1.312,3.112,4.458,4.458,0,0,0,3.112,1.312H35.019a4.241,4.241,0,0,0,3.112-1.312,4.458,4.458,0,0,0,1.312-3.112V52.749A4.241,4.241,0,0,0,38.131,49.637ZM37.493,71.42h-.037a2.432,2.432,0,0,1-2.437,2.437H4.424A2.432,2.432,0,0,1,1.987,71.42V52.749a2.432,2.432,0,0,1,2.437-2.437H11.66A1.008,1.008,0,0,0,12.673,49.3V48.212a1.411,1.411,0,0,1,1.462-1.462h11.21a1.411,1.411,0,0,1,1.462,1.462V49.3a1.008,1.008,0,0,0,1.012,1.012h7.236a2.432,2.432,0,0,1,2.437,2.437Z"
                transform="translate(0 -44.8)" fill="#0d6a6a" />
            <path
                d="M121.223,130.8a9.217,9.217,0,1,0,6.524,2.7A9.24,9.24,0,0,0,121.223,130.8Zm5.1,14.36a7.242,7.242,0,0,1-10.2,0,7.168,7.168,0,0,1-2.1-5.1,7.327,7.327,0,0,1,2.1-5.1,7.168,7.168,0,0,1,5.1-2.1,7.327,7.327,0,0,1,5.1,2.1,7.168,7.168,0,0,1,2.1,5.1A7.016,7.016,0,0,1,126.322,145.16Z"
                transform="translate(-101.502 -122.739)" fill="#0d6a6a" />
        </g>
    </g>
</svg>