<svg xmlns="http://www.w3.org/2000/svg" width="39.659" height="39.536" viewBox="0 0 39.659 39.536">
    <g transform="translate(0 -0.796)">
        <g transform="translate(0 0.796)">
            <path
                d="M39.07,30.637H35.189V25.824a.589.589,0,0,0-1.178,0V39.154H23.9v-17.5H34.011v1.42a.589.589,0,1,0,1.178,0V21.067a.589.589,0,0,0-.589-.589H26.553V1.385A.589.589,0,0,0,25.964.8H13.713a.589.589,0,0,0-.589.589V10.2H5.505a.589.589,0,0,0-.589.589V25.266H.589A.589.589,0,0,0,0,25.855V39.743a.589.589,0,0,0,.589.589H39.07a.589.589,0,0,0,.589-.589V31.226A.589.589,0,0,0,39.07,30.637ZM4.916,39.154H1.178V26.444H4.916Zm12.25,0H6.094V35.9H17.167Zm0-8.4H11.859a.589.589,0,0,0,0,1.178h5.308v2.788H6.094V31.931H9.11a.589.589,0,0,0,0-1.178H6.094V27.965H17.167Zm0-3.966H6.094V24H17.167Zm0-3.966H6.094V20.034H17.167Zm0-3.966H6.094V16.068H17.167Zm0-3.966H6.094V11.374H17.167Zm5.558,6.176V39.154h-4.38V10.785a.589.589,0,0,0-.589-.589h-.8V9.018a.589.589,0,0,0-1.178,0V10.2H14.3V1.974H25.375v18.5H23.314A.589.589,0,0,0,22.725,21.067ZM38.481,39.154H35.189V31.815h3.292Z"
                transform="translate(0 -0.796)" fill="#0d6a6a" />
        </g>
        <g transform="translate(22.725 13.557)">
            <path
                d="M293.966,165.543a.589.589,0,0,0-.589.589V167.9a.589.589,0,1,0,1.178,0v-1.767A.589.589,0,0,0,293.966,165.543Z"
                transform="translate(-293.377 -165.543)" fill="#0d6a6a" />
        </g>
        <g transform="translate(19.25 13.557)">
            <path
                d="M249.105,165.543a.589.589,0,0,0-.589.589V167.9a.589.589,0,1,0,1.178,0v-1.767A.589.589,0,0,0,249.105,165.543Z"
                transform="translate(-248.516 -165.543)" fill="#0d6a6a" />
        </g>
        <g transform="translate(22.725 8.429)">
            <path
                d="M293.966,99.34a.589.589,0,0,0-.589.589V101.7a.589.589,0,0,0,1.178,0V99.929A.589.589,0,0,0,293.966,99.34Z"
                transform="translate(-293.377 -99.34)" fill="#0d6a6a" />
        </g>
        <g transform="translate(19.25 8.429)">
            <path
                d="M249.105,99.34a.589.589,0,0,0-.589.589V101.7a.589.589,0,0,0,1.178,0V99.929A.589.589,0,0,0,249.105,99.34Z"
                transform="translate(-248.516 -99.34)" fill="#0d6a6a" />
        </g>
        <g transform="translate(15.775 3.301)">
            <path
                d="M204.243,33.137a.589.589,0,0,0-.589.589v1.767a.589.589,0,1,0,1.178,0V33.726A.589.589,0,0,0,204.243,33.137Z"
                transform="translate(-203.654 -33.137)" fill="#0d6a6a" />
        </g>
        <g transform="translate(22.725 3.301)">
            <path
                d="M293.966,33.137a.589.589,0,0,0-.589.589v1.767a.589.589,0,0,0,1.178,0V33.726A.589.589,0,0,0,293.966,33.137Z"
                transform="translate(-293.377 -33.137)" fill="#0d6a6a" />
        </g>
        <g transform="translate(19.25 3.301)">
            <path
                d="M249.105,33.137a.589.589,0,0,0-.589.589v1.767a.589.589,0,0,0,1.178,0V33.726A.589.589,0,0,0,249.105,33.137Z"
                transform="translate(-248.516 -33.137)" fill="#0d6a6a" />
        </g>
        <g transform="translate(22.726 18.713)">
            <path d="M293.662,232.2a.589.589,0,1,0,.874.682A.593.593,0,0,0,293.662,232.2Z"
                transform="translate(-293.389 -232.109)" fill="#0d6a6a" />
        </g>
        <g transform="translate(19.25 18.711)">
            <path
                d="M249.105,232.075a.589.589,0,0,0-.589.589v1.767a.589.589,0,1,0,1.178,0v-1.767A.589.589,0,0,0,249.105,232.075Z"
                transform="translate(-248.516 -232.075)" fill="#0d6a6a" />
        </g>
        <g transform="translate(19.25 34.171)">
            <path
                d="M249.105,431.671a.589.589,0,0,0-.589.589v1.767a.589.589,0,0,0,1.178,0V432.26A.589.589,0,0,0,249.105,431.671Z"
                transform="translate(-248.516 -431.671)" fill="#0d6a6a" />
        </g>
        <g transform="translate(19.25 29.018)">
            <path
                d="M249.105,365.139a.589.589,0,0,0-.589.589v1.767a.589.589,0,0,0,1.178,0v-1.767A.589.589,0,0,0,249.105,365.139Z"
                transform="translate(-248.516 -365.139)" fill="#0d6a6a" />
        </g>
        <g transform="translate(19.25 23.864)">
            <path
                d="M249.105,298.608a.589.589,0,0,0-.589.589v1.767a.589.589,0,0,0,1.178,0V299.2A.589.589,0,0,0,249.105,298.608Z"
                transform="translate(-248.516 -298.608)" fill="#0d6a6a" />
        </g>
        <g transform="translate(25.11 33.992)">
            <path d="M331.275,429.355h-6.516a.589.589,0,0,0,0,1.178h6.516a.589.589,0,0,0,0-1.178Z"
                transform="translate(-324.17 -429.355)" fill="#0d6a6a" />
        </g>
        <g transform="translate(25.11 36.776)">
            <path d="M331.275,465.3h-6.516a.589.589,0,0,0,0,1.178h6.516a.589.589,0,0,0,0-1.178Z"
                transform="translate(-324.17 -465.299)" fill="#0d6a6a" />
        </g>
        <g transform="translate(25.11 31.208)">
            <path d="M331.275,393.413h-6.516a.589.589,0,1,0,0,1.178h6.516a.589.589,0,0,0,0-1.178Z"
                transform="translate(-324.17 -393.413)" fill="#0d6a6a" />
        </g>
        <g transform="translate(25.11 22.855)">
            <path d="M331.275,285.583h-6.516a.589.589,0,0,0,0,1.178h6.516a.589.589,0,0,0,0-1.178Z"
                transform="translate(-324.17 -285.583)" fill="#0d6a6a" />
        </g>
        <g transform="translate(25.11 28.424)">
            <path d="M331.275,357.469h-6.516a.589.589,0,1,0,0,1.178h6.516a.589.589,0,0,0,0-1.178Z"
                transform="translate(-324.17 -357.469)" fill="#0d6a6a" />
        </g>
        <g transform="translate(25.11 25.64)">
            <path d="M331.275,321.527h-6.516a.589.589,0,0,0,0,1.178h6.516a.589.589,0,0,0,0-1.178Z"
                transform="translate(-324.17 -321.527)" fill="#0d6a6a" />
        </g>
        <g transform="translate(2.458 27.381)">
            <path
                d="M32.324,344a.589.589,0,0,0-.589.589v1.531a.589.589,0,0,0,1.178,0v-1.531A.589.589,0,0,0,32.324,344Z"
                transform="translate(-31.735 -344.004)" fill="#0d6a6a" />
        </g>
        <g transform="translate(2.458 31.445)">
            <path
                d="M32.324,396.469a.589.589,0,0,0-.589.589v1.531a.589.589,0,0,0,1.178,0v-1.531A.589.589,0,0,0,32.324,396.469Z"
                transform="translate(-31.735 -396.469)" fill="#0d6a6a" />
        </g>
        <g transform="translate(2.458 35.508)">
            <path
                d="M32.324,448.934a.589.589,0,0,0-.589.589v1.531a.589.589,0,0,0,1.178,0v-1.531A.589.589,0,0,0,32.324,448.934Z"
                transform="translate(-31.735 -448.934)" fill="#0d6a6a" />
        </g>
        <g transform="translate(36.246 33.229)">
            <path
                d="M468.529,419.5a.589.589,0,0,0-.589.589v1.667a.589.589,0,0,0,1.178,0V420.09A.589.589,0,0,0,468.529,419.5Z"
                transform="translate(-467.94 -419.501)" fill="#0d6a6a" />
        </g>
        <g transform="translate(27.334 12.144)">
            <path d="M360.658,147.293h-7.185a.589.589,0,0,0,0,1.178h7.185a.589.589,0,1,0,0-1.178Z"
                transform="translate(-352.884 -147.293)" fill="#0d6a6a" />
        </g>
        <g transform="translate(31.575 14.617)">
            <path d="M413.4,179.228h-5.183a.589.589,0,0,0,0,1.178H413.4a.589.589,0,1,0,0-1.178Z"
                transform="translate(-407.629 -179.228)" fill="#0d6a6a" />
        </g>
        <g transform="translate(4.835 5.194)">
            <path d="M68.2,57.571H63.014a.589.589,0,0,0,0,1.178H68.2a.589.589,0,0,0,0-1.178Z"
                transform="translate(-62.425 -57.571)" fill="#0d6a6a" />
        </g>
        <g transform="translate(1.891 7.157)">
            <path d="M30.18,82.916H25a.589.589,0,1,0,0,1.178H30.18a.589.589,0,1,0,0-1.178Z"
                transform="translate(-24.408 -82.916)" fill="#0d6a6a" />
        </g>
    </g>
</svg>