<svg xmlns="http://www.w3.org/2000/svg" width="17.602" height="22.404" viewBox="0 0 17.602 22.404">
    <g transform="translate(0 0)">
        <path
            d="M62.4,2.936H60.372V2.029c0-.293-.32-.427-.613-.427H58.185A2.386,2.386,0,0,0,55.811,0a2.427,2.427,0,0,0-2.374,1.6H51.891c-.293,0-.587.133-.587.427v.907H49.277a2.267,2.267,0,0,0-2.24,2.16V20.377a2.146,2.146,0,0,0,2.24,2.027H62.4a2.146,2.146,0,0,0,2.24-2.027V5.1A2.267,2.267,0,0,0,62.4,2.936ZM52.371,2.669h1.467a.587.587,0,0,0,.507-.48,1.547,1.547,0,0,1,1.467-1.2,1.52,1.52,0,0,1,1.44,1.2.587.587,0,0,0,.533.48H59.3V4.8H52.371Zm11.2,17.708a1.082,1.082,0,0,1-1.173.96H49.277a1.082,1.082,0,0,1-1.173-.96V5.1A1.2,1.2,0,0,1,49.277,4H51.3v1.36a.56.56,0,0,0,.587.507h7.867a.587.587,0,0,0,.613-.507V4H62.4A1.2,1.2,0,0,1,63.572,5.1V20.377Z"
            transform="translate(-47.037 0)" fill="#272727" />
        <path
            d="M103.456,230.478a.533.533,0,0,0-.747-.027L101,232.078l-.72-.747a.533.533,0,0,0-.747-.027.56.56,0,0,0,0,.773l1.093,1.12a.48.48,0,0,0,.373.16.533.533,0,0,0,.373-.16l2.08-1.974a.507.507,0,0,0,.031-.716C103.477,230.5,103.467,230.488,103.456,230.478Z"
            transform="translate(-96.709 -218.555)" fill="#272727" />
        <path d="M205.215,256.034h-6.134a.533.533,0,1,0,0,1.067h6.134a.533.533,0,0,0,0-1.067Z"
            transform="translate(-190.814 -242.964)" fill="#272727" />
        <path
            d="M103.456,146.886a.533.533,0,0,0-.747-.027L101,148.486l-.72-.747a.533.533,0,0,0-.747-.027.56.56,0,0,0,0,.773l1.093,1.12a.48.48,0,0,0,.373.16.533.533,0,0,0,.373-.16l2.08-1.974a.507.507,0,0,0,.031-.716C103.477,146.906,103.467,146.9,103.456,146.886Z"
            transform="translate(-96.709 -139.23)" fill="#272727" />
        <path d="M205.215,172.442h-6.134a.533.533,0,0,0,0,1.067h6.134a.533.533,0,0,0,0-1.067Z"
            transform="translate(-190.814 -163.639)" fill="#272727" />
        <path
            d="M103.456,314.069a.533.533,0,0,0-.747-.027L101,315.669l-.72-.747a.533.533,0,0,0-.747-.027.56.56,0,0,0,0,.773l1.093,1.12a.48.48,0,0,0,.373.16.533.533,0,0,0,.373-.16l2.08-1.974a.507.507,0,0,0,.031-.716Z"
            transform="translate(-96.709 -297.879)" fill="#272727" />
        <path d="M205.215,339.626h-6.134a.533.533,0,1,0,0,1.067h6.134a.533.533,0,0,0,0-1.067Z"
            transform="translate(-190.814 -322.289)" fill="#272727" />
    </g>
</svg>