<svg xmlns="http://www.w3.org/2000/svg" width="100.337" height="100.211"
    viewBox="0 0 100.337 100.211">
    <g transform="translate(0 -0.322)">
        <path
            d="M73.126,4.2,15.228.33a3.434,3.434,0,0,0-3.651,3.193l-.453,6.772h-7.7A3.434,3.434,0,0,0,0,13.724V97.1a3.434,3.434,0,0,0,3.429,3.429H47.746a1.486,1.486,0,0,0,1.037-.428l6.69-6.66a1.458,1.458,0,0,0,.209.031l11.422.764a3.515,3.515,0,0,0,3.651-3.193L76.319,7.853A3.459,3.459,0,0,0,73.126,4.2Zm-23.91,91.3V85.3a.491.491,0,0,1,.49-.49H59.877ZM67.822,90.85a.49.49,0,0,1-.521.456l-9.07-.607L64.453,84.5a1.469,1.469,0,0,0,.433-1.042V13.725A3.434,3.434,0,0,0,61.457,10.3H46.172a1.47,1.47,0,0,0,0,2.94H61.457a.49.49,0,0,1,.49.49V81.866H49.706A3.434,3.434,0,0,0,46.277,85.3v12.3H3.429a.491.491,0,0,1-.49-.49V13.725a.491.491,0,0,1,.49-.49H38.345a1.47,1.47,0,0,0,0-2.94H14.071l.44-6.576a.49.49,0,0,1,.521-.456l57.9,3.872a.49.49,0,0,1,.456.521Z"
            transform="translate(0 0)" fill="#0d6a6a" />
        <path d="M97.33,237.047H57.244a1.47,1.47,0,1,0,0,2.94H97.33a1.47,1.47,0,1,0,0-2.94Z"
            transform="translate(-44.844 -190.334)" fill="#0d6a6a" />
        <path d="M97.33,289.332H57.244a1.47,1.47,0,1,0,0,2.94H97.33a1.47,1.47,0,1,0,0-2.94Z"
            transform="translate(-44.844 -232.372)" fill="#0d6a6a" />
        <path
            d="M55.774,186.232a1.47,1.47,0,0,0,1.47,1.47H97.33a1.47,1.47,0,1,0,0-2.94H57.244A1.47,1.47,0,0,0,55.774,186.232Z"
            transform="translate(-44.844 -148.295)" fill="#0d6a6a" />
        <path
            d="M91.807,133.947a1.47,1.47,0,0,0,1.47,1.47H119.24a1.47,1.47,0,1,0,0-2.94H93.277A1.47,1.47,0,0,0,91.807,133.947Z"
            transform="translate(-73.816 -106.256)" fill="#0d6a6a" />
        <path
            d="M81.07,397.045q-3.965.011-7.93.017l-2.665,0c-1.61,0-2.695-.322-3.055-2.093-.3-1.5-2.423-1.3-2.835,0-1.017,3.2-2.7,1.947-3.642-.206a30.152,30.152,0,0,1-1.592-6.839c-.3-1.68-2.843-1.209-2.887.391a27.387,27.387,0,0,1-.79,6.224,49.936,49.936,0,0,1-2.2,6.149c-.715,1.756,2.13,2.512,2.835.782a56.752,56.752,0,0,0,2-5.431c1.007,2.422,3.091,5.162,6.061,3.547a5.92,5.92,0,0,0,1.521-1.225c1.544,1.784,3.843,1.644,5.994,1.641q4.594-.006,9.187-.019A1.471,1.471,0,0,0,81.07,397.045Z"
            transform="translate(-42.904 -310.796)" fill="#0d6a6a" />
        <path
            d="M420.407,188.631a4.227,4.227,0,0,0-2.88-1.179l-1.111.005v-2.1a4.069,4.069,0,0,0-1.849-3.3v-2.959c0-6.089-9.479-6.062-9.479.029v2.959a3.884,3.884,0,0,0-1.853,3.3v2.152c-4.893.333-4.907,7.789.005,8.08.031,6.58.03,13.052-.005,19.742a1.471,1.471,0,0,0,2.94.015c.035-6.7.037-13.173.006-19.758l7.292-.036s-.009,21.723-.009,31.509c0,4.77-7.294,4.8-7.294-.05l0-2.68a1.47,1.47,0,0,0-2.934-.177V226.7a7.219,7.219,0,0,0,1.957,5.266,12.291,12.291,0,0,0,3.6,8.222,1.559,1.559,0,0,0,2.105-.036,12.12,12.12,0,0,0,3.561-8.312c.97-.966,1.942-1.939,1.942-5.271V213.171a4.118,4.118,0,0,0,5.192-3.909V191.493a4.01,4.01,0,0,0-1.189-2.862Zm-14.232-1.122v-2.125a.944.944,0,0,1,.7-.908l5.884-.029a.928.928,0,0,1,.718.91v2.115Zm3.659-10.19a1.913,1.913,0,0,1,1.794,1.776v2.384l-3.6.018v-2.373A1.814,1.814,0,0,1,409.834,177.318Zm0,59.556a9.376,9.376,0,0,1-1.453-3.215,6.392,6.392,0,0,0,2.913-.038A9.165,9.165,0,0,1,409.832,236.874Zm8.825-27.612a1.123,1.123,0,0,1-2.244.026s0-13.909,0-15.184a1.482,1.482,0,0,0-1.481-1.472l-11.443.057a1.115,1.115,0,0,1,.015-2.227l14.034-.07a1.1,1.1,0,0,1,1.115,1.1v17.769Z"
            transform="translate(-321.259 -140.077)" fill="#0d6a6a" />
    </g>
</svg>