<svg xmlns="http://www.w3.org/2000/svg" width="34.828" height="23.219" viewBox="0 0 34.828 23.219">
    <g transform="translate(0 -85.333)">
        <g transform="translate(0 85.333)">
            <g transform="translate(0 0)">
                <path
                    d="M31.2,85.333H3.628A3.633,3.633,0,0,0,0,88.961v15.963a3.633,3.633,0,0,0,3.628,3.628H31.2a3.633,3.633,0,0,0,3.628-3.628V88.961A3.633,3.633,0,0,0,31.2,85.333Zm2.177,19.591A2.179,2.179,0,0,1,31.2,107.1H3.628a2.179,2.179,0,0,1-2.177-2.177V88.961a2.179,2.179,0,0,1,2.177-2.177H31.2a2.179,2.179,0,0,1,2.177,2.177v15.963Z"
                    transform="translate(0 -85.333)" fill="#0d6a6a" />
            </g>
        </g>
        <g transform="translate(0 89.687)">
            <g transform="translate(0 0)">
                <path
                    d="M34.1,149.333H.726a.726.726,0,0,0-.726.726v4.354a.726.726,0,0,0,.726.726H34.1a.726.726,0,0,0,.726-.726v-4.354A.726.726,0,0,0,34.1,149.333Zm-.726,4.354H1.451v-2.9H33.377v2.9Z"
                    transform="translate(0 -149.333)" fill="#0d6a6a" />
            </g>
        </g>
        <g transform="translate(4.354 99.845)">
            <path d="M73.433,298.667H64.726a.726.726,0,1,0,0,1.451h8.707a.726.726,0,1,0,0-1.451Z"
                transform="translate(-64 -298.667)" fill="#0d6a6a" />
        </g>
        <g transform="translate(4.354 102.747)">
            <g transform="translate(0 0)">
                <path
                    d="M73.433,341.333H64.726a.726.726,0,1,0,0,1.451h8.707a.726.726,0,1,0,0-1.451Z"
                    transform="translate(-64 -341.333)" fill="#0d6a6a" />
            </g>
        </g>
        <g transform="translate(24.67 98.394)">
            <g transform="translate(0 0)">
                <path
                    d="M366.295,277.333h-1.451a2.179,2.179,0,0,0-2.177,2.177v1.451a2.179,2.179,0,0,0,2.177,2.177h1.451a2.179,2.179,0,0,0,2.177-2.177V279.51A2.179,2.179,0,0,0,366.295,277.333Zm.726,3.628a.726.726,0,0,1-.726.726h-1.451a.726.726,0,0,1-.726-.726V279.51a.726.726,0,0,1,.726-.726h1.451a.726.726,0,0,1,.726.726Z"
                    transform="translate(-362.667 -277.333)" fill="#0d6a6a" />
            </g>
        </g>
    </g>
</svg>