<svg xmlns="http://www.w3.org/2000/svg" width="13.574" height="13.505" viewBox="0 0 13.574 13.505">
    <g transform="translate(0 -0.261)">
        <path
            d="M12.528,46.332a.338.338,0,0,0-.338.338v3a1.015,1.015,0,0,1-1.014,1.014H1.69A1.015,1.015,0,0,1,.676,49.672V40.862A1.015,1.015,0,0,1,1.69,39.848h3a.338.338,0,1,0,0-.676h-3A1.692,1.692,0,0,0,0,40.862v8.809a1.692,1.692,0,0,0,1.69,1.69h9.485a1.692,1.692,0,0,0,1.69-1.69v-3a.338.338,0,0,0-.338-.338Zm0,0"
            transform="translate(0 -37.596)" fill="#fff" />
        <path
            d="M117.265.706a1.521,1.521,0,0,0-2.151,0l-6.031,6.031a.338.338,0,0,0-.087.149L108.2,9.749a.338.338,0,0,0,.416.416l2.863-.793a.338.338,0,0,0,.149-.087l6.031-6.031a1.523,1.523,0,0,0,0-2.151Zm-7.446,6.251,4.936-4.936,1.592,1.592-4.936,4.936ZM109.5,7.6l1.272,1.272-1.759.487Zm7.683-4.819-.359.359-1.592-1.592.359-.359a.845.845,0,0,1,1.2,0l.4.4A.846.846,0,0,1,117.183,2.776Zm0,0"
            transform="translate(-104.533 0)" fill="#fff" />
    </g>
</svg>