<svg xmlns="http://www.w3.org/2000/svg" width="75.237" height="100.314"
    viewBox="0 0 75.237 100.314">
    <g transform="translate(-63.998)">
        <g transform="translate(63.998)">
            <path
                d="M137.561,12.121a2.909,2.909,0,0,0-2.926,0,23.306,23.306,0,0,1-11.452,2.926,21.835,21.835,0,0,1-15.716-6.186A25.212,25.212,0,0,0,89.294,1.672,26.182,26.182,0,0,0,74.029,6.42v-1.4A5.016,5.016,0,1,0,64,5.016V95.3a5.016,5.016,0,1,0,10.031,0V51.829a2.925,2.925,0,0,0,1.521-.6,22.671,22.671,0,0,1,13.743-4.414A21.869,21.869,0,0,1,105.043,53a25.2,25.2,0,0,0,18.14,7.189A26.131,26.131,0,0,0,137.8,55.925a3.344,3.344,0,0,0,1.438-2.842V15.047A3.345,3.345,0,0,0,137.561,12.121Z"
                transform="translate(-63.998)" fill="#0d6a6a" />
        </g>
    </g>
</svg>