<svg xmlns="http://www.w3.org/2000/svg" width="39.144" height="44.606" viewBox="0 0 39.144 44.606">
    <g transform="translate(-0.011 0)">
        <path
            d="M20.368,0H12.04A6.833,6.833,0,0,0,5.216,6.825v7.852H2.522a2.513,2.513,0,0,0-2.51,2.51V37.266a2.513,2.513,0,0,0,2.51,2.51h22.4A7.337,7.337,0,1,0,32.4,29.953V17.186a2.513,2.513,0,0,0-2.51-2.51H27.193V6.825A6.833,6.833,0,0,0,20.368,0Zm5.666,6.825v7.852H25.11V6.825a4.748,4.748,0,0,0-4.743-4.743H18.344V1.158h2.023A5.673,5.673,0,0,1,26.034,6.825ZM15.222,2.082V1.158h1.964v.923ZM20.368,3.24a3.588,3.588,0,0,1,3.584,3.585v7.852H8.456V6.825A3.588,3.588,0,0,1,12.041,3.24ZM6.374,6.825a5.673,5.673,0,0,1,5.666-5.666h2.023v.923H12.041A4.748,4.748,0,0,0,7.3,6.825v7.852H6.374ZM38,37.266a6.179,6.179,0,1,1-6.179-6.179A6.179,6.179,0,0,1,38,37.266ZM31.238,17.187V29.953a7.328,7.328,0,0,0-6.631,8.664H2.522A1.353,1.353,0,0,1,1.17,37.266V17.187a1.353,1.353,0,0,1,1.352-1.352H29.887a1.353,1.353,0,0,1,1.352,1.352Zm0,0"
            fill="#0d6a6a" />
        <path
            d="M128.443,273.591a1.127,1.127,0,1,0-1.127-1.127A1.127,1.127,0,0,0,128.443,273.591Zm0-1.159a.031.031,0,1,1-.031.031A.031.031,0,0,1,128.443,272.432Zm0,0"
            transform="translate(-115.014 -245.141)" fill="#0d6a6a" />
        <path
            d="M185.935,273.591a1.127,1.127,0,1,0-1.127-1.127A1.127,1.127,0,0,0,185.935,273.591Zm0-1.159a.031.031,0,0,1,.031.031.032.032,0,0,1-.032.031.031.031,0,0,1-.031-.031A.032.032,0,0,1,185.935,272.432Zm0,0"
            transform="translate(-166.956 -245.141)" fill="#0d6a6a" />
        <path
            d="M243.428,273.591a1.127,1.127,0,1,0-1.127-1.127A1.127,1.127,0,0,0,243.428,273.591Zm0-1.159a.031.031,0,1,1-.031.031A.031.031,0,0,1,243.428,272.432Zm0,0"
            transform="translate(-218.898 -245.141)" fill="#0d6a6a" />
        <path
            d="M70.948,273.591a1.127,1.127,0,1,0-1.127-1.127A1.128,1.128,0,0,0,70.948,273.591Zm0-1.159a.031.031,0,1,1-.031.031A.031.031,0,0,1,70.948,272.432Zm0,0"
            transform="translate(-63.069 -245.141)" fill="#0d6a6a" />
        <path
            d="M303.461,340.6a.579.579,0,1,0,1.159,0,1.352,1.352,0,1,1,2.029,1.17,2.563,2.563,0,0,0-1.256,2.22v.838a.579.579,0,1,0,1.159,0v-.838a1.4,1.4,0,0,1,.679-1.218,2.51,2.51,0,1,0-3.769-2.172Zm0,0"
            transform="translate(-274.154 -305.449)" fill="#0d6a6a" />
        <path
            d="M321.03,415.246a.9.9,0,1,0,.9.9A.9.9,0,0,0,321.03,415.246Zm0,1.159a.257.257,0,1,1,.258-.258A.257.257,0,0,1,321.03,416.4Zm0,0"
            transform="translate(-289.212 -375.157)" fill="#0d6a6a" />
    </g>
</svg>