<svg xmlns="http://www.w3.org/2000/svg" width="33.958" height="39.183" viewBox="0 0 33.958 39.183">
    <g transform="translate(-3567.666 -18)">
        <g transform="translate(3567.666 38.898)">
            <g transform="translate(0)">
                <path
                    d="M123.645,234.667a17,17,0,0,0-16.979,16.979,1.306,1.306,0,1,0,2.612,0,14.367,14.367,0,1,1,28.734,0,1.306,1.306,0,0,0,2.612,0A17,17,0,0,0,123.645,234.667Z"
                    transform="translate(-106.666 -234.667)" fill="#0d6a6a" />
            </g>
        </g>
        <g transform="translate(3575.503 18)">
            <g transform="translate(0)">
                <path
                    d="M179.809,64a9.143,9.143,0,1,0,9.143,9.143A9.153,9.153,0,0,0,179.809,64Zm0,15.673a6.53,6.53,0,1,1,6.53-6.53A6.54,6.54,0,0,1,179.809,79.673Z"
                    transform="translate(-170.666 -64)" fill="#0d6a6a" />
            </g>
        </g>
    </g>
</svg>