<svg xmlns="http://www.w3.org/2000/svg" width="279.586" height="295.451"
    viewBox="0 0 279.586 295.451">
    <g transform="translate(-6754 126)">
        <circle cx="122.699" cy="122.699" r="122.699" transform="translate(6788.188 -84.501)"
            fill="#dae0d1" opacity="0.13" />
        <path
            d="M391.164,420.108a9.906,9.906,0,0,0,1.31-5.022c0-4.538-2.81-8.217-6.277-8.217s-6.277,3.679-6.277,8.217a9.906,9.906,0,0,0,1.31,5.022,10.279,10.279,0,0,0,0,10.044,10.279,10.279,0,0,0,0,10.044,10.279,10.279,0,0,0,0,10.044,9.906,9.906,0,0,0-1.31,5.022c0,4.538,2.81,8.217,6.277,8.217s6.277-3.679,6.277-8.217a9.906,9.906,0,0,0-1.31-5.022,10.279,10.279,0,0,0,0-10.044,10.279,10.279,0,0,0,0-10.044A10.279,10.279,0,0,0,391.164,420.108Z"
            transform="translate(6448.072 -403.607)" fill="#3f3d56" />
        <ellipse cx="6.277" cy="8.217" rx="6.277" ry="8.217" transform="translate(6827.992 -6.782)"
            fill="#3f3d56" />
        <ellipse cx="6.277" cy="8.217" rx="6.277" ry="8.217" transform="translate(6827.992 -16.825)"
            fill="#3f3d56" />
        <path
            d="M360.889,62.58a30.131,30.131,0,0,0,2.338-3.441L346.733,56.43l17.839.133a30.121,30.121,0,0,0,.574-23.825L341.213,45.153l22.072-16.224A30.07,30.07,0,1,0,313.622,62.58a30.083,30.083,0,0,0-3.429,5.483L331.6,79.186l-22.829-7.662a30.086,30.086,0,0,0,4.848,28.236,30.068,30.068,0,1,0,47.267,0,30.072,30.072,0,0,0,0-37.181Z"
            transform="translate(6496.879 -139.919)" fill="#0d6a6a" />
        <path
            d="M307.188,217.455a29.939,29.939,0,0,0,6.435,18.59,30.068,30.068,0,1,0,47.267,0C364.92,230.93,307.188,214.081,307.188,217.455Z"
            transform="translate(6496.878 -276.204)" opacity="0.1" />
        <path
            d="M427.186,591.8c-7.781,27.726-67.819,53.442-131.664,35.525S188.2,554.644,195.982,526.918s63.872-17.915,127.717,0S434.967,564.075,427.186,591.8Z"
            transform="translate(6572.106 -472.551)" fill="#3f3d56" />
        <path
            d="M427.186,591.8c-7.781,27.726-67.819,53.442-131.664,35.525S188.2,554.644,195.982,526.918s63.872-17.915,127.717,0S434.967,564.075,427.186,591.8Z"
            transform="translate(6572.106 -472.551)" opacity="0.1" />
        <ellipse cx="52.143" cy="120.067" rx="52.143" ry="120.067"
            transform="translate(6754 104.569) rotate(-74.324)" fill="#81bb2e" />
        <ellipse cx="35.198" cy="10.198" rx="35.198" ry="10.198"
            transform="translate(6828.978 78.33)" opacity="0.1" />
        <path
            d="M469.66,483.279,425.142,527.8l-18.711-18.711a6.4,6.4,0,0,0-9.046,0l-.672-1.005c-2.5,2.5-1.826,7.553.672,10.051l24.277,24.277a4.88,4.88,0,0,0,6.9,0L478.7,492.324c2.5-2.5,3.406-7.075.908-9.574h0C477.112,480.254,472.157,480.782,469.66,483.279Z"
            transform="translate(6437.857 -453.434)" fill="#57b894" />
        <path
            d="M469.66,483.279,425.142,527.8l-18.711-18.711a6.4,6.4,0,0,0-9.046,0l-.672-1.005c-2.5,2.5-1.826,7.553.672,10.051l24.277,24.277a4.88,4.88,0,0,0,6.9,0L478.7,492.324c2.5-2.5,3.406-7.075.908-9.574h0C477.112,480.254,472.157,480.782,469.66,483.279Z"
            transform="translate(6437.857 -453.434)" opacity="0.1" />
        <path
            d="M470.414,477.859,425.9,522.377l-18.711-18.711a6.4,6.4,0,0,0-9.046,0h0a6.4,6.4,0,0,0,0,9.046l24.277,24.277a4.88,4.88,0,0,0,6.9,0L479.455,486.9a6.4,6.4,0,0,0,0-9.046h0A6.4,6.4,0,0,0,470.414,477.859Z"
            transform="translate(6437.103 -449.988)" fill="#57b894" />
        <path
            d="M655.1,712.05s-3.981,1.194-5.972,3.583c0,0-3.583,1.593-5.773,1.194s-6.171,3.583-2.986,4.778,22.693,4.379,23.091,3.384.4-11.148.4-11.148Z"
            transform="translate(6274.096 -608.398)" fill="#0c5f5f" />
        <path
            d="M753.436,706.854s-3.719,1.857-5.272,4.551c0,0-3.258,2.181-5.484,2.163s-5.468,4.584-2.126,5.217,23.108.439,23.33-.61-1.512-11.052-1.512-11.052Z"
            transform="translate(6207.033 -604.912)" fill="#0c5f5f" />
        <circle cx="8.958" cy="8.958" r="8.958" transform="translate(6926.707 -50.921)"
            fill="#ffb9b9" />
        <path
            d="M710.391,273.926s1,6.768,2.787,7.564a13.225,13.225,0,0,1,3.384,2.389l-4.976,2.389-9.754-.6s.8-4.379-.6-6.569S710.391,273.926,710.391,273.926Z"
            transform="translate(6232.54 -314.396)" fill="#ffb9b9" />
        <path
            d="M769.365,371.354s4.578,11.745,0,23.091-6.569,13.138-6.569,13.138l-1.393-14.93L763,391.2s.97-4.529.182-7.211.406-11.042.406-11.042Z"
            transform="translate(6192.079 -379.775)" fill="#ffb9b9" />
        <path
            d="M670.876,433.788S665.1,446.926,665.7,453.3s5.176,33.244,5.176,33.244-.6,34.637,1.194,34.637,10.351,3.185,10.351,1,1.792-54.743,1.792-54.743,10.152,23.091,11.148,24.883,7.365,29.86,9.555,29.86,8.958-1.991,8.361-3.384-7.366-32.447-11.148-40.41-2.986-38.021-2.986-38.021l-6.37-13.934Z"
            transform="translate(6256.328 -416.728)" fill="#2f2e41" />
        <path
            d="M685.044,237.956s-5.574-.4-5.972-1.792-1.194-2.588-.8-2.588.6-1,.6-1,.4-.2.6,0,.4-1.393.4-1.393.2-.6.4-.2.2.2.4-.4,1.195-1,1.195-1,3.782.2,4.379-.6,7.365-.2,8.759.8,7.564,4.578,6.569,7.564-4.578,9.555-4.578,10.55-1.393.8-1.792-.2-3.583-2.19-3.583-2.787-1.792-6.171-2.787-5.773-2.19,3.583-2.588,2.986A28.44,28.44,0,0,1,685.044,237.956Z"
            transform="translate(6247.933 -284)" fill="#3f3d56" />
        <path
            d="M709.85,309.837s-8.162-11.944-10.55-12.541-7.763-2.19-7.763-2.19-5.375.8-6.967,1.593-7.564,2.19-7.763,4.578,1.592,25.281.6,27.471-4.379,23.091-2.787,22.693.4-5.574,7.365-5.773,10.749-4.379,13.337.6,9.953,8.759,9.953,8.759a48.171,48.171,0,0,1,.8-4.778c.6-2.787-1.592-9.555-1.592-9.555s.2-15.726,1-17.518S709.85,309.837,709.85,309.837Z"
            transform="translate(6250.598 -328.609)" fill="#0d6a6a" />
        <path
            d="M766.6,338.677l2.986.4s-.2,3.981.6,5.176,2.19,7.365,1.393,7.564-7.963,1.393-7.963,1.393l-.4-9.157Z"
            transform="translate(6190.86 -357.847)" fill="#0d6a6a" />
        <path
            d="M646.4,360.462s-1.991,12.939-2.986,14.532-5.972,23.888-5.972,23.888-8.184,11.38-4.2,11.181,8.184-10.385,8.184-10.385,12.342-22.494,12.342-24.883,2.986-14.333,2.986-14.333Z"
            transform="translate(6278.816 -372.466)" fill="#ffb9b9" />
        <path
            d="M678.113,307.209,674.53,308.6s-4.578,16.323-3.583,17.717,12.939-.6,13.138-1.194S681.9,307.209,678.113,307.209Z"
            transform="translate(6252.874 -336.731)" fill="#0d6a6a" />
        <path d="M206.474,434.718c0,13.872,8.7,25.1,19.457,25.1"
            transform="translate(6564.462 -422.295)" fill="#3f3d56" />
        <path d="M265.624,459.24c0-14.028,9.712-25.379,21.713-25.379"
            transform="translate(6524.77 -421.72)" fill="#0d6a6a" />
        <path d="M227.9,438.541c0,13.177,5.549,23.84,12.408,23.84"
            transform="translate(6550.081 -424.861)" fill="#0d6a6a" />
        <path d="M265.624,444.859c0-17.924,11.225-32.429,25.1-32.429"
            transform="translate(6524.77 -407.339)" fill="#3f3d56" />
        <path
            d="M253.18,508.508s2.759-.085,3.591-.677,4.245-1.3,4.451-.35,4.147,4.724,1.031,4.749-7.239-.485-8.069-.991S253.18,508.508,253.18,508.508Z"
            transform="translate(6533.12 -470.812)" fill="#a8a8a8" />
        <path
            d="M262.309,514.934c-3.115.025-7.239-.485-8.069-.991-.632-.385-.884-1.767-.968-2.4l-.092,0s.175,2.225,1,2.731,4.953,1.016,8.069.991c.9-.007,1.21-.327,1.193-.8C263.322,514.749,262.979,514.928,262.309,514.934Z"
            transform="translate(6533.12 -473.846)" opacity="0.2" />
    </g>
</svg>