<svg xmlns="http://www.w3.org/2000/svg" width="33.931" height="33.931" viewBox="0 0 33.931 33.931">
    <g transform="translate(-4759 43)">
        <g transform="translate(4759 -43)">
            <g transform="translate(0 0)">
                <path
                    d="M30.6,21.221A20.667,20.667,0,0,1,26.094,20.1a3.881,3.881,0,0,0-4.078.87l-1.788,1.784a25.8,25.8,0,0,1-9.095-9.076l1.789-1.785a3.863,3.863,0,0,0,.87-4.069,20.582,20.582,0,0,1-1.124-4.506A3.877,3.877,0,0,0,8.81,0H3.862c-.115,0-.231.006-.345.016a3.859,3.859,0,0,0-3.5,4.2A33.248,33.248,0,0,0,5.166,18.727,32.9,32.9,0,0,0,15.231,28.773a33.413,33.413,0,0,0,14.49,5.142q.175.015.351.015h.011a3.865,3.865,0,0,0,3.848-3.871V25.129A3.86,3.86,0,0,0,30.6,21.221Zm2.2,3.888v4.954A2.734,2.734,0,0,1,30.079,32.8c-.088,0-.173,0-.248-.01a32.278,32.278,0,0,1-13.99-4.969,31.775,31.775,0,0,1-9.723-9.706A32.112,32.112,0,0,1,1.143,4.1a2.729,2.729,0,0,1,2.476-2.96c.081-.007.162-.011.243-.011h4.98a2.738,2.738,0,0,1,2.705,2.34,21.711,21.711,0,0,0,1.186,4.75,2.729,2.729,0,0,1-.612,2.873l-2.095,2.09a.565.565,0,0,0-.092.68A26.931,26.931,0,0,0,20.041,23.951a.565.565,0,0,0,.679-.092l2.092-2.088a2.748,2.748,0,0,1,2.885-.613,21.775,21.775,0,0,0,4.753,1.182A2.728,2.728,0,0,1,32.8,25.108Z"
                    transform="translate(-0.002 0)" fill="#0d6a6a" />
            </g>
        </g>
        <g transform="translate(4761.259 -40.738)">
            <g transform="translate(0 0)">
                <path
                    d="M40.32,34.134H35.7c-.048,0-.094,0-.141.007A1.6,1.6,0,0,0,34.1,35.846a32.305,32.305,0,0,0,1.151,5.8.566.566,0,0,0,.542.4.559.559,0,0,0,.162-.024.565.565,0,0,0,.38-.7,31.121,31.121,0,0,1-1.109-5.588.449.449,0,0,1,.109-.3.5.5,0,0,1,.36-.169h4.621a.566.566,0,0,0,0-1.131Z"
                    transform="translate(-34.097 -34.134)" fill="#0d6a6a" />
            </g>
        </g>
        <g transform="translate(4782.751 -18.117)">
            <g transform="translate(0)">
                <path
                    d="M365.748,375.467a.566.566,0,0,0-.565.565v4.614a.471.471,0,0,1-.137.336.461.461,0,0,1-.318.139h-.052a31.1,31.1,0,0,1-5.55-1.106.566.566,0,0,0-.325,1.084,32.248,32.248,0,0,0,5.763,1.148c.046,0,.141.007.154.007a1.6,1.6,0,0,0,1.6-1.609v-4.612A.566.566,0,0,0,365.748,375.467Z"
                    transform="translate(-358.396 -375.467)" fill="#0d6a6a" />
            </g>
        </g>
    </g>
</svg>