<svg xmlns="http://www.w3.org/2000/svg" xmlns:xlink="http://www.w3.org/1999/xlink" width="334.844"
    height="303.589" viewBox="0 0 334.844 303.589">
    <defs>
        <clipPath id="a">
            <path
                d="M754.44,158.1C712.67,212.655,751.672,310.717,822.346,329S939.7,307.146,982.671,306.246c53.531-1.121,94.017-20.848,89.029-89.817-2.149-29.709-41.249-125.124-96.835-155.251C897.35,19.165,756.226,38.676,754.44,158.1Z"
                transform="translate(-737.271 -40.987)" fill="none" />
        </clipPath>
        <linearGradient id="b" x1="0.5" y1="1" x2="0.5" gradientUnits="objectBoundingBox">
            <stop offset="0" stop-color="#cbc1f7" />
            <stop offset="1" stop-color="#e8dcf7" />
        </linearGradient>
        <linearGradient id="c" x1="0.5" y1="1" x2="0.5" gradientUnits="objectBoundingBox">
            <stop offset="0" stop-color="#ccedff" />
            <stop offset="1" stop-color="#9d68c2" />
        </linearGradient>
        <linearGradient id="d" x1="0.432" y1="1.048" x2="0.554" y2="-0.062"
            gradientUnits="objectBoundingBox">
            <stop offset="0" stop-color="#0d6a6a" />
            <stop offset="1" stop-color="#083333" />
        </linearGradient>
        <linearGradient id="f" y1="0.5" x2="1" y2="0.5" gradientUnits="objectBoundingBox">
            <stop offset="0" stop-color="#dce3f7" />
            <stop offset="1" stop-color="#755cbb" />
        </linearGradient>
        <linearGradient id="g" y1="0.5" x2="1" y2="0.5" gradientUnits="objectBoundingBox">
            <stop offset="0" stop-color="#ffa9a2" />
            <stop offset="0.984" stop-color="#ffc2a9" />
        </linearGradient>
        <linearGradient id="h" y1="0.5" x2="1" y2="0.5" gradientUnits="objectBoundingBox">
            <stop offset="0" stop-color="#ff7c7c" />
            <stop offset="0.984" stop-color="#ff9e8b" />
        </linearGradient>
        <linearGradient id="i" x1="0" y1="0.5" x2="1" y2="0.5" xlink:href="#h" />
        <linearGradient id="j" y1="0.5" x2="1" y2="0.5" gradientUnits="objectBoundingBox">
            <stop offset="0.016" stop-color="#ff8b83" />
            <stop offset="1" stop-color="#ff7c7c" />
        </linearGradient>
        <linearGradient id="k" y1="0.5" x2="1" y2="0.5" gradientUnits="objectBoundingBox">
            <stop offset="0.016" stop-color="#ffc2a9" />
            <stop offset="1" stop-color="#ffbdb8" />
        </linearGradient>
        <linearGradient id="m" x1="0" y1="0.5" x2="1" y2="0.5" xlink:href="#h" />
        <linearGradient id="o" x1="0" y1="0.5" x2="1" y2="0.5" xlink:href="#k" />
        <linearGradient id="r" y1="0.5" x2="1" y2="0.5" gradientUnits="objectBoundingBox">
            <stop offset="0.016" stop-color="#ff9e8b" />
            <stop offset="1" stop-color="#ff7c7c" />
        </linearGradient>
        <linearGradient id="s" x1="0" y1="0.5" x2="1" y2="0.5" xlink:href="#r" />
        <linearGradient id="u" y1="0.5" x2="1" y2="0.5" gradientUnits="objectBoundingBox">
            <stop offset="0" stop-color="#b8c5c6" />
            <stop offset="1" stop-color="#4834bb" />
        </linearGradient>
        <linearGradient id="v" x1="0.5" y1="1" x2="0.5" gradientUnits="objectBoundingBox">
            <stop offset="0" stop-color="#38b5b5" />
            <stop offset="1" stop-color="#0d6a6a" />
        </linearGradient>
        <linearGradient id="w" y1="0.5" x2="1" y2="0.5" gradientUnits="objectBoundingBox">
            <stop offset="0" />
            <stop offset="1" stop-color="#0d6a6a" />
        </linearGradient>
        <linearGradient id="x" x1="0.5" y1="1" x2="0.5" gradientUnits="objectBoundingBox">
            <stop offset="0" stop-color="#f9af19" />
            <stop offset="1" stop-color="#f9af19" />
        </linearGradient>
        <linearGradient id="y" x1="0.131" y1="0.98" x2="0.878" y2="0.01"
            gradientUnits="objectBoundingBox">
            <stop offset="0" stop-color="#9f7521" />
            <stop offset="1" stop-color="#f9af19" />
        </linearGradient>
        <linearGradient id="z" x1="0.5" y1="1" x2="0.5" gradientUnits="objectBoundingBox">
            <stop offset="0.016" stop-color="#ffc2a9" />
            <stop offset="1" stop-color="#ffa9a2" />
        </linearGradient>
        <linearGradient id="aa" x1="0" y1="0.5" x2="1" y2="0.5" xlink:href="#r" />
        <linearGradient id="ac" x1="0" y1="0.5" x2="1" y2="0.5" xlink:href="#r" />
        <linearGradient id="ad" x1="0" y1="0.5" x2="1" y2="0.5" xlink:href="#r" />
        <linearGradient id="ae" x1="0" y1="0.5" x2="1" y2="0.5" xlink:href="#r" />
        <linearGradient id="aj" x1="0" y1="0.5" x2="1" y2="0.5" xlink:href="#z" />
        <linearGradient id="ao" x1="0" y1="0.5" x2="1" y2="0.5" xlink:href="#r" />
        <linearGradient id="as" x1="0" y1="0.502" x2="1.001" y2="0.502" xlink:href="#r" />
        <linearGradient id="at" y1="0.5" x2="1" y2="0.5" gradientUnits="objectBoundingBox">
            <stop offset="0" stop-color="#9d68c2" />
            <stop offset="1" stop-color="#ccedff" />
        </linearGradient>
        <linearGradient id="av" x1="-36.297" y1="3.787" x2="-36.297" y2="2.942"
            gradientUnits="objectBoundingBox">
            <stop offset="0" stop-color="#1852a0" />
            <stop offset="1" stop-color="#067ed3" />
        </linearGradient>
        <linearGradient id="aw" x1="-44.742" y1="4.029" x2="-44.742" y2="3.178"
            gradientUnits="objectBoundingBox">
            <stop offset="0" stop-color="#313131" />
            <stop offset="1" stop-color="#365e8b" />
        </linearGradient>
        <linearGradient id="ax" x1="0.452" y1="2.824" x2="0.452" y2="1.619"
            gradientUnits="objectBoundingBox">
            <stop offset="0" stop-color="#2e33a0" />
            <stop offset="1" stop-color="#0665a5" />
        </linearGradient>
        <linearGradient id="ay" x1="0.485" y1="3.235" x2="0.485" y2="2.02" xlink:href="#aw" />
    </defs>
    <g transform="translate(-2623 -1004.618)">
        <g transform="translate(2623 1058.31)" opacity="0.05">
            <path
                d="M754.44,134.327c-41.769,54.552-2.768,152.614,67.907,170.893S939.7,283.369,982.671,282.469c53.531-1.121,94.017-20.849,89.029-89.817C1064.806,97.328,822.888,44.928,754.44,134.327Z"
                transform="translate(-737.271 -67.897)" fill="#0d6a6a" />
            <path
                d="M936.879,84.958a37.62,37.62,0,0,0-12.653,11.453,6.607,6.607,0,0,0-1.205,2.478,5.372,5.372,0,0,0,2.039,4.717,11.024,11.024,0,0,0,12.275,1.219,13.662,13.662,0,0,0,6.79-10.638,9.208,9.208,0,0,0-1.695-6.82c-1.542-1.847-4.433-2.67-6.461-1.378A1.119,1.119,0,0,0,937.5,87.08Z"
                transform="translate(-643.945 -69.574)" fill="#0d6a6a" />
            <path
                d="M751.189,118.273a37.621,37.621,0,0,0-12.653,11.453,6.558,6.558,0,0,0-1.2,2.478,5.366,5.366,0,0,0,2.039,4.717,11.018,11.018,0,0,0,12.273,1.217,13.653,13.653,0,0,0,6.79-10.637,9.2,9.2,0,0,0-1.695-6.82c-1.542-1.847-4.431-2.67-6.461-1.378a1.119,1.119,0,0,0,1.528,1.092Z"
                transform="translate(-737.271 -52.83)" fill="#0d6a6a" />
            <path
                d="M931.662,96.454a6.972,6.972,0,0,0-6.306,2.407,7.336,7.336,0,0,0,4.879,4.676c2.29.508,5.023-.947,5.337-3.271s-2.67-4.515-4.573-3.14Z"
                transform="translate(-642.741 -63.833)" fill="#0d6a6a" />
            <path
                d="M919.957,105.915a3.579,3.579,0,0,0-3.019-.929,3.671,3.671,0,0,0,.314,1.424,1.253,1.253,0,0,0,1.174.729c.666-.074,1.025-.8,1.264-1.423l.228.5Z"
                transform="translate(-646.972 -59.531)" fill="#0d6a6a" />
            <path
                d="M921.924,103.59a1.624,1.624,0,0,1,.834-.511,2.753,2.753,0,0,1-1.249,2.113c-.361.307-.858.619-1.274.392-.291-.158-.4-.512-.618-.762-.431-.5-1.354-.715-1.312-1.375a.81.81,0,0,1,.778-.672,2.354,2.354,0,0,1,1.08.263l2.258.947Z"
                transform="translate(-646.286 -60.621)" fill="#0d6a6a" />
            <path
                d="M895.845,130.4c-.687.032-.744,1.172-.167,1.546a2.5,2.5,0,0,0,2,.024,2.411,2.411,0,0,0-1.791-1.986Z"
                transform="translate(-657.855 -46.946)" fill="#0d6a6a" opacity="0.5" />
            <path
                d="M906.692,142.67a.623.623,0,0,1,.5.706,1.158,1.158,0,0,1-.541.766,1.111,1.111,0,0,1-.523.209.812.812,0,0,1-.835-.811.871.871,0,0,1,.873-.8.936.936,0,0,1,.865.835Z"
                transform="translate(-652.825 -40.568)" fill="#0d6a6a" />
            <path
                d="M919.978,112.823a.96.96,0,0,0-1.031-1.286,1.667,1.667,0,0,0-.14,1.043.81.81,0,0,0,.757.637.543.543,0,0,0,.466-.756Z"
                transform="translate(-646.05 -56.226)" fill="#0d6a6a" />
            <path
                d="M923.559,103.134a2.736,2.736,0,0,0-1.934-1.4q-.081,1.007-.164,2.018a1.812,1.812,0,0,0,.09.938,1.085,1.085,0,0,0,1.6.282,1.526,1.526,0,0,0,.376-1.7Z"
                transform="translate(-644.708 -61.142)" fill="#0d6a6a" />
            <path
                d="M907.348,136.667l-.1.676a.83.83,0,0,0,1.034-.074.691.691,0,0,0-.053-.993.592.592,0,0,0-.9.308Z"
                transform="translate(-651.842 -43.833)" fill="#0d6a6a" opacity="0.5" />
            <path
                d="M920.072,110.112c.33.3.885-.048,1.019-.475a12.982,12.982,0,0,0,.12-1.33,1.611,1.611,0,0,1,.789-1.079.774.774,0,0,1,.763-.051.975.975,0,0,1,.317.427,4.811,4.811,0,0,1,.573,2.542,2.251,2.251,0,0,1-1.51,1.97,1.729,1.729,0,0,1-2.1-2.17Z"
                transform="translate(-645.448 -58.447)" fill="#0d6a6a" />
            <path
                d="M916.4,102.616a1.078,1.078,0,0,0-1.471-.257,1.549,1.549,0,0,0-.6,1.467c.029.243.159.529.4.539a.62.62,0,0,0,.425-.24l1.443-1.462Z"
                transform="translate(-648.287 -60.918)" fill="#0d6a6a" />
            <path
                d="M905.753,116.752a1.818,1.818,0,0,1,.257,2.87,4.538,4.538,0,0,1-1.739-1.922,1.568,1.568,0,0,1,.96-2.095q.656.4,1.312.8Z"
                transform="translate(-653.387 -54.17)" fill="#0d6a6a" />
            <path
                d="M946.88,74.907a.466.466,0,0,1,.672-.084,1.093,1.093,0,0,1,.353.664,1.335,1.335,0,0,1,.018.621.916.916,0,0,1-.945.633,1.158,1.158,0,0,1-.936-.711.748.748,0,0,1-.032-.585.408.408,0,0,1,.49-.237Z"
                transform="translate(-632.384 -74.72)" fill="#0d6a6a" />
            <path
                d="M915.773,113.485l-.708-.1a1.507,1.507,0,0,0-.024,1.077c.168.328.726.437.882.1a.753.753,0,0,0,.026-.409l-.162-1.316Z"
                transform="translate(-647.972 -55.561)" fill="#0d6a6a" />
            <path
                d="M911.778,120.395a4.319,4.319,0,0,0-1.7.4,1.474,1.474,0,0,0-.825,1.424,1.3,1.3,0,0,0,.421.742,1.619,1.619,0,1,0,2.047-2.5Z"
                transform="translate(-650.838 -51.763)" fill="#0d6a6a" />
            <path d="M907.168,120.915l-.927.75a2.1,2.1,0,0,0,.548.721,1.122,1.122,0,0,0,.69-1.411Z"
                transform="translate(-652.348 -51.502)" fill="#0d6a6a" />
            <path
                d="M905.37,95.924a15.067,15.067,0,0,0-2.673,6.287,2.654,2.654,0,0,0-.021,1.1,2.145,2.145,0,0,0,1.533,1.37,4.413,4.413,0,0,0,4.664-1.62,5.461,5.461,0,0,0,.679-5,3.681,3.681,0,0,0-1.761-2.194,2.074,2.074,0,0,0-2.578.585.449.449,0,0,0,.739.141Z"
                transform="translate(-654.165 -64.197)" fill="#0d6a6a" />
            <path
                d="M934.924,107.228a3.578,3.578,0,0,0-2.974,1.064,3.675,3.675,0,0,0,1.1.953,1.258,1.258,0,0,0,1.378-.119c.488-.46.343-1.253.159-1.9l.485.267Z"
                transform="translate(-639.427 -58.393)" fill="#0d6a6a" />
            <path
                d="M932.394,112.593a1.4,1.4,0,0,0-.765.476,1.482,1.482,0,0,0-.137.862,13.44,13.44,0,0,1-.137,2.419l3.026-2.678a.8.8,0,0,1,.265-.177c.354-.117.666.272,1.026.365.529.137.992-.377,1.234-.867C938.629,109.508,933.969,112.04,932.394,112.593Z"
                transform="translate(-639.726 -56.391)" fill="#0d6a6a" />
            <path
                d="M936.1,102.627a2.739,2.739,0,0,0-2.388.036q.539.859,1.079,1.714a1.807,1.807,0,0,0,.633.7,1.086,1.086,0,0,0,1.45-.732,1.527,1.527,0,0,0-.72-1.59Z"
                transform="translate(-638.54 -60.822)" fill="#0d6a6a" />
            <path
                d="M929.937,106.69a1.08,1.08,0,0,0-1.333.675,1.552,1.552,0,0,0,.4,1.534c.168.179.443.328.646.191a.61.61,0,0,0,.2-.448q.14-1.016.281-2.035Z"
                transform="translate(-641.144 -58.693)" fill="#0d6a6a" />
            <path
                d="M927.279,101a4.3,4.3,0,0,0-1.695.4,1.473,1.473,0,0,0-.825,1.424,1.311,1.311,0,0,0,.421.744,1.62,1.62,0,1,0,2.047-2.5Z"
                transform="translate(-643.048 -61.512)" fill="#0d6a6a" />
            <path
                d="M909.338,109.658c-.191.562.3,1.109.769,1.476s1.008.819.953,1.409a.516.516,0,0,1-.228.409c-.364.206-.715-.263-1.061-.5a4.449,4.449,0,0,0-.932-.352,1.986,1.986,0,0,1-1.235-1.862,1.1,1.1,0,0,1,2,.194Z"
                transform="translate(-651.664 -57.16)" fill="#0d6a6a" />
            <path
                d="M908.84,119.419c-.189.562.3,1.109.769,1.476s1.008.819.953,1.409a.516.516,0,0,1-.228.409c-.364.206-.715-.263-1.059-.5a4.458,4.458,0,0,0-.933-.352A1.99,1.99,0,0,1,907.106,120a1.1,1.1,0,0,1,2,.194Z"
                transform="translate(-651.914 -52.254)" fill="#0d6a6a" />
            <path
                d="M902.9,123.927a3.165,3.165,0,0,0-1.034,1,.548.548,0,0,0-.093.212.448.448,0,0,0,.183.391.926.926,0,0,0,1.035.069,1.153,1.153,0,0,0,.542-.912.78.78,0,0,0-.161-.569.437.437,0,0,0-.547-.1.093.093,0,0,0,.131.087Z"
                transform="translate(-654.594 -49.988)" fill="#0d6a6a" />
            <path
                d="M936.719,91.385a3.577,3.577,0,0,0-2.974,1.065,3.717,3.717,0,0,0,1.1.953,1.255,1.255,0,0,0,1.376-.12c.488-.458.343-1.253.161-1.9l.484.267Z"
                transform="translate(-638.525 -66.356)" fill="#0d6a6a" />
            <path
                d="M940.832,96.675a.96.96,0,0,0-1.6-.412,1.665,1.665,0,0,0,.514.918.809.809,0,0,0,.987.057.542.542,0,0,0-.08-.884Z"
                transform="translate(-635.765 -64.033)" fill="#0d6a6a" />
            <path
                d="M929.472,100.933a.959.959,0,0,0-1.6-.41,1.675,1.675,0,0,0,.514.918.813.813,0,0,0,.989.057.543.543,0,0,0-.081-.885Z"
                transform="translate(-641.475 -61.893)" fill="#0d6a6a" />
            <path
                d="M938.81,94.863c.445.042.681-.57.532-.99a13.191,13.191,0,0,0-.7-1.137,1.6,1.6,0,0,1-.015-1.334.772.772,0,0,1,.58-.5.966.966,0,0,1,.509.15,4.819,4.819,0,0,1,1.982,1.692,2.255,2.255,0,0,1-.029,2.484,1.731,1.731,0,0,1-2.984-.478Z"
                transform="translate(-636.141 -66.587)" fill="#0d6a6a" />
            <path
                d="M910.485,114.66c.445.042.681-.569.532-.99a12.781,12.781,0,0,0-.7-1.137,1.607,1.607,0,0,1-.015-1.336.77.77,0,0,1,.58-.5.967.967,0,0,1,.509.15,4.818,4.818,0,0,1,1.982,1.692,2.255,2.255,0,0,1-.028,2.484,1.729,1.729,0,0,1-2.983-.478Z"
                transform="translate(-650.377 -56.637)" fill="#0d6a6a" />
            <path
                d="M907.819,111.882c.443.042.679-.569.531-.99a12.808,12.808,0,0,0-.7-1.137,1.609,1.609,0,0,1-.015-1.334.773.773,0,0,1,.581-.5.957.957,0,0,1,.508.15,4.806,4.806,0,0,1,1.984,1.693,2.253,2.253,0,0,1-.03,2.482,1.729,1.729,0,0,1-2.983-.478Z"
                transform="translate(-651.717 -58.033)" fill="#0d6a6a" />
            <path
                d="M912.853,108.745c.445.044.681-.568.532-.99a12.73,12.73,0,0,0-.7-1.136,1.607,1.607,0,0,1-.015-1.336.772.772,0,0,1,.58-.5.951.951,0,0,1,.509.152,4.808,4.808,0,0,1,1.982,1.692,2.253,2.253,0,0,1-.029,2.482,1.729,1.729,0,0,1-2.983-.478Z"
                transform="translate(-649.186 -59.61)" fill="#0d6a6a" />
            <path
                d="M927.1,147.782c.445.044.681-.568.532-.989a13.13,13.13,0,0,0-.7-1.137,1.607,1.607,0,0,1-.015-1.336.77.77,0,0,1,.58-.5.953.953,0,0,1,.509.15,4.819,4.819,0,0,1,1.982,1.692,2.258,2.258,0,0,1-.028,2.484,1.732,1.732,0,0,1-2.984-.478Z"
                transform="translate(-642.026 -39.99)" fill="#0d6a6a" />
            <path
                d="M937.772,99.769l-.628.343a1.518,1.518,0,0,0,.627.878c.331.161.843-.086.768-.446a.753.753,0,0,0-.224-.343q-.46-.478-.918-.957Z"
                transform="translate(-636.817 -62.394)" fill="#0d6a6a" />
            <path
                d="M924.341,127.477a4.335,4.335,0,0,0-1.695.4,1.473,1.473,0,0,0-.825,1.426,1.307,1.307,0,0,0,.421.742,1.62,1.62,0,1,0,2.047-2.5Z"
                transform="translate(-644.524 -48.204)" fill="#0d6a6a" />
            <path
                d="M926.479,95.076a1.184,1.184,0,0,1,1.92.625,3.3,3.3,0,0,1-.882,1.059,2.1,2.1,0,0,1-.808-1.265Z"
                transform="translate(-642.177 -64.635)" fill="#0d6a6a" />
            <path
                d="M919.081,128.6a2.468,2.468,0,0,0-.911.41.845.845,0,0,0-.31.893c.189.521.923.559,1.328.936s.473,1.089.984,1.307,1.085-.278,1.162-.82a2.408,2.408,0,0,0-.482-1.537,2.675,2.675,0,0,0-.993-1.053,1.056,1.056,0,0,0-1.321.24Z"
                transform="translate(-646.527 -47.637)" fill="#0d6a6a" opacity="0.5" />
            <path
                d="M919.583,109.256a6.97,6.97,0,0,0-6.491-1.85,7.335,7.335,0,0,0,1.106,6.667c1.53,1.779,4.589,2.251,6.233.579s.566-5.217-1.779-5.255Z"
                transform="translate(-649.07 -58.384)" fill="#0d6a6a" />
            <path
                d="M924.713,92.408a.621.621,0,0,1-.021.864,1.155,1.155,0,0,1-.894.29,1.1,1.1,0,0,1-.542-.146.812.812,0,0,1-.183-1.149.87.87,0,0,1,1.179-.117.938.938,0,0,1,.191,1.187Z"
                transform="translate(-643.97 -66.049)" fill="#0d6a6a" />
            <path
                d="M921.369,100.222c.006.594.652.947,1.214,1.137s1.223.439,1.366,1.014a.516.516,0,0,1-.081.461c-.273.316-.762-.011-1.165-.119a4.319,4.319,0,0,0-1-.023,1.99,1.99,0,0,1-1.782-1.349,1.1,1.1,0,0,1,1.953-.479Z"
                transform="translate(-645.471 -61.902)" fill="#0d6a6a" />
            <path
                d="M921.02,112.865l-.485.482a.832.832,0,0,0,.871.56.693.693,0,0,0,.555-.828.593.593,0,0,0-.9-.288Z"
                transform="translate(-645.164 -55.643)" fill="#0d6a6a" />
            <path
                d="M924.256,104.693a.469.469,0,0,1,.591.335,1.091,1.091,0,0,1-.117.744,1.314,1.314,0,0,1-.356.506.916.916,0,0,1-1.136-.059,1.16,1.16,0,0,1-.325-1.13.742.742,0,0,1,.326-.487.405.405,0,0,1,.533.1Z"
                transform="translate(-643.987 -59.729)" fill="#0d6a6a" />
            <path
                d="M937.3,113.49a6.971,6.971,0,0,0-3.7-5.645,7.336,7.336,0,0,0-3.527,5.765c-.006,2.346,2,4.7,4.337,4.515s3.841-3.575,2.092-5.139Z"
                transform="translate(-640.371 -58.071)" fill="#0d6a6a" />
            <path
                d="M924.852,223.842a6.973,6.973,0,0,0-3.7-5.645,7.334,7.334,0,0,0-3.525,5.765c-.008,2.346,2,4.7,4.336,4.515s3.839-3.575,2.09-5.137Z"
                transform="translate(-646.626 -2.609)" fill="#0d6a6a" />
            <path
                d="M935.383,99.484c-.685.03-.742,1.172-.167,1.545a2.489,2.489,0,0,0,2,.024,2.409,2.409,0,0,0-1.79-1.985Z"
                transform="translate(-637.983 -62.482)" fill="#0d6a6a" />
            <path
                d="M919.544,94.283l-.485.484a.83.83,0,0,0,.873.559.691.691,0,0,0,.553-.826.593.593,0,0,0-.9-.29Z"
                transform="translate(-645.906 -64.982)" fill="#0d6a6a" />
            <path
                d="M926.252,101a16.3,16.3,0,0,0-5.632,4.807,2.833,2.833,0,0,0-.553,1.059,2.328,2.328,0,0,0,.823,2.071,4.781,4.781,0,0,0,5.307.682,5.929,5.929,0,0,0,3.079-4.527,3.992,3.992,0,0,0-.649-2.978,2.247,2.247,0,0,0-2.784-.679.486.486,0,0,0,.649.493Z"
                transform="translate(-645.417 -61.511)" fill="#0d6a6a" />
            <path
                d="M937.433,125.975a6.968,6.968,0,0,0-6.3,2.407,7.33,7.33,0,0,0,4.879,4.676c2.29.508,5.022-.947,5.337-3.27s-2.672-4.515-4.572-3.142Z"
                transform="translate(-639.84 -48.996)" fill="#0d6a6a" />
            <path
                d="M906.839,124.031a3.577,3.577,0,0,0-2.974,1.065,3.677,3.677,0,0,0,1.1.953,1.258,1.258,0,0,0,1.376-.119c.488-.46.343-1.253.161-1.9l.484.267Z"
                transform="translate(-653.543 -49.948)" fill="#0d6a6a" />
            <path
                d="M904.309,129.4a1.4,1.4,0,0,0-.765.478,1.47,1.47,0,0,0-.137.862,13.572,13.572,0,0,1-.137,2.419l3.025-2.678a.8.8,0,0,1,.266-.177c.355-.119.664.272,1.026.365.527.137.992-.377,1.234-.867C910.544,126.313,905.883,128.843,904.309,129.4Z"
                transform="translate(-653.841 -47.946)" fill="#0d6a6a" />
            <path
                d="M919.622,101.539l-.927.738a1.893,1.893,0,0,0,2.129.577c.708-.349.88-1.542.18-1.905-.431-.225-1.2-.406-.969-.834Z"
                transform="translate(-646.089 -61.956)" fill="#0d6a6a" />
            <path
                d="M915.846,123.452a1.632,1.632,0,0,1,.834-.512,2.75,2.75,0,0,1-1.247,2.113c-.362.308-.858.619-1.276.394-.29-.158-.4-.514-.616-.763-.433-.5-1.354-.715-1.313-1.375a.814.814,0,0,1,.78-.672,2.378,2.378,0,0,1,1.08.263l2.257.948Z"
                transform="translate(-649.34 -50.639)" fill="#0d6a6a" />
            <path
                d="M921.15,129.128c-.687.032-.744,1.172-.167,1.546a2.5,2.5,0,0,0,2,.024,2.413,2.413,0,0,0-1.791-1.986Z"
                transform="translate(-645.137 -47.583)" fill="#0d6a6a" />
            <path
                d="M912.064,131.729a.623.623,0,0,1,.5.706,1.158,1.158,0,0,1-.541.766,1.109,1.109,0,0,1-.523.209.812.812,0,0,1-.835-.811.871.871,0,0,1,.875-.8.936.936,0,0,1,.864.835Z"
                transform="translate(-650.125 -46.067)" fill="#0d6a6a" opacity="0.5" />
            <path
                d="M910.952,129.321a.959.959,0,0,0-1.6-.41,1.675,1.675,0,0,0,.514.918.811.811,0,0,0,.987.057.543.543,0,0,0-.08-.885Z"
                transform="translate(-650.783 -47.626)" fill="#0d6a6a" />
            <path
                d="M908.017,119.431a2.736,2.736,0,0,0-2.386.036l1.077,1.714a1.821,1.821,0,0,0,.634.7,1.085,1.085,0,0,0,1.448-.732,1.524,1.524,0,0,0-.718-1.59Z"
                transform="translate(-652.655 -52.377)" fill="#0d6a6a" />
            <path
                d="M917.807,133.653a1.222,1.222,0,0,1,.634,2.158c-.251.207-.694.269-.858-.014a.721.721,0,0,1-.06-.4l.063-1.8.308.06Z"
                transform="translate(-646.68 -45.13)" fill="#0d6a6a" opacity="0.5" />
            <path
                d="M920.326,139.541c-.191.562.3,1.109.768,1.476s1.01.819.954,1.409a.516.516,0,0,1-.229.409c-.364.206-.715-.263-1.061-.5a4.443,4.443,0,0,0-.932-.352,1.986,1.986,0,0,1-1.235-1.862,1.1,1.1,0,0,1,2,.194Z"
                transform="translate(-646.141 -42.141)" fill="#0d6a6a" opacity="0.5" />
            <path
                d="M907.443,106.079c-.189.562.3,1.11.769,1.476s1.008.819.953,1.409a.513.513,0,0,1-.228.409c-.364.206-.715-.263-1.059-.5a4.389,4.389,0,0,0-.932-.35,1.991,1.991,0,0,1-1.237-1.863,1.1,1.1,0,0,1,2,.194Z"
                transform="translate(-652.616 -58.959)" fill="#0d6a6a" opacity="0.5" />
            <path
                d="M916.192,140.783l-.618.294a.83.83,0,0,0,.637.817.691.691,0,0,0,.8-.6.593.593,0,0,0-.756-.572Z"
                transform="translate(-647.658 -41.561)" fill="#0d6a6a" opacity="0.5" />
            <path
                d="M908.93,127.509c.445.042.681-.569.532-.99a13.139,13.139,0,0,0-.7-1.136,1.608,1.608,0,0,1-.015-1.336.772.772,0,0,1,.58-.5.955.955,0,0,1,.509.152,4.808,4.808,0,0,1,1.982,1.692,2.256,2.256,0,0,1-.029,2.482,1.731,1.731,0,0,1-2.984-.478Z"
                transform="translate(-651.158 -50.179)" fill="#0d6a6a" />
            <path
                d="M901.851,123.494a1.077,1.077,0,0,0-1.331.675,1.548,1.548,0,0,0,.4,1.534c.17.179.445.328.648.191a.616.616,0,0,0,.2-.448l.279-2.035Z"
                transform="translate(-655.259 -50.248)" fill="#0d6a6a" />
            <path
                d="M922.335,122.992a1.817,1.817,0,0,1,.257,2.87,4.539,4.539,0,0,1-1.739-1.922,1.569,1.569,0,0,1,.96-2.095l1.312.8Z"
                transform="translate(-645.053 -51.034)" fill="#0d6a6a" />
            <path
                d="M907.892,132.416l-.628.341a1.518,1.518,0,0,0,.627.878c.33.161.843-.086.768-.445a.75.75,0,0,0-.224-.344l-.92-.956Z"
                transform="translate(-651.834 -45.986)" fill="#0d6a6a" opacity="0.5" />
            <path
                d="M930.575,96.672a4.328,4.328,0,0,0-1.693.4,1.473,1.473,0,0,0-.825,1.426,1.293,1.293,0,0,0,.421.742,1.619,1.619,0,1,0,2.047-2.5Z"
                transform="translate(-641.391 -63.686)" fill="#0d6a6a" />
            <path
                d="M932.473,119.646l-.927.75a2.114,2.114,0,0,0,.547.721,1.123,1.123,0,0,0,.691-1.412Z"
                transform="translate(-639.63 -52.14)" fill="#0d6a6a" />
            <path
                d="M945.341,82.822a.623.623,0,0,1,.5.706,1.157,1.157,0,0,1-.541.766,1.109,1.109,0,0,1-.523.209.811.811,0,0,1-.835-.811.871.871,0,0,1,.873-.8.936.936,0,0,1,.865.835Z"
                transform="translate(-633.4 -70.647)" fill="#0d6a6a" />
            <path
                d="M925.926,119.9l-.927.75a2.117,2.117,0,0,0,.548.723,1.124,1.124,0,0,0,.69-1.412Z"
                transform="translate(-642.921 -52.014)" fill="#0d6a6a" />
            <path
                d="M912.54,104c-.412-.171-.818.344-.8.79a12.848,12.848,0,0,0,.335,1.292,1.611,1.611,0,0,1-.379,1.282.775.775,0,0,1-.7.305.962.962,0,0,1-.442-.295,4.8,4.8,0,0,1-1.4-2.2,2.253,2.253,0,0,1,.757-2.365,1.73,1.73,0,0,1,2.711,1.334Z"
                transform="translate(-650.918 -60.755)" fill="#0d6a6a" />
            <path
                d="M927.659,104.925a2.5,2.5,0,0,0,.992-.125.844.844,0,0,0,.557-.762c-.027-.554-.717-.805-.995-1.285s-.132-1.181-.555-1.54a.942.942,0,0,0-1.352.443,2.4,2.4,0,0,0,.009,1.611,2.668,2.668,0,0,0,.64,1.3,1.054,1.054,0,0,0,1.333.159Z"
                transform="translate(-642.332 -61.481)" fill="#0d6a6a" />
            <path
                d="M915.042,117.023a13.282,13.282,0,0,0,3.19-5.115,2.324,2.324,0,0,0,.168-.959,1.9,1.9,0,0,0-1.15-1.4,3.894,3.894,0,0,0-4.287.775,4.826,4.826,0,0,0-1.276,4.272,3.245,3.245,0,0,0,1.237,2.152,1.829,1.829,0,0,0,2.328-.158.4.4,0,0,0-.625-.222Z"
                transform="translate(-649.65 -57.387)" fill="#0d6a6a" />
            <path
                d="M910.778,105.8a1.414,1.414,0,0,0-.793-.427,1.476,1.476,0,0,0-.816.311A13.585,13.585,0,0,1,907,106.765l3.829,1.294a.771.771,0,0,1,.286.141c.278.248.095.712.194,1.073.143.526.82.672,1.364.639C916.554,109.671,912.042,106.887,910.778,105.8Z"
                transform="translate(-651.966 -59.316)" fill="#0d6a6a" />
            <path
                d="M913.811,114.282l-.637.251a.832.832,0,0,0,.58.859.691.691,0,0,0,.835-.539.593.593,0,0,0-.714-.624Z"
                transform="translate(-648.865 -54.873)" fill="#0d6a6a" />
            <path
                d="M908.782,109.913a1.076,1.076,0,0,0-1.247-.82A1.55,1.55,0,0,0,906.4,110.2c-.071.236-.063.548.156.657a.611.611,0,0,0,.485-.053q.954-.383,1.905-.769Z"
                transform="translate(-652.287 -57.452)" fill="#0d6a6a" />
            <path
                d="M911.835,114.223a3.577,3.577,0,0,0-2.4-2.051,3.674,3.674,0,0,0-.276,1.432,1.258,1.258,0,0,0,.787,1.136c.642.2,1.258-.326,1.727-.805l.007.554Z"
                transform="translate(-650.886 -55.896)" fill="#0d6a6a" />
            <path
                d="M912.242,117.893a1.637,1.637,0,0,1,.859.469,2.758,2.758,0,0,1-2.455-.032c-.446-.161-.963-.437-.974-.911-.008-.331.245-.6.355-.915.219-.624-.054-1.53.539-1.823a.814.814,0,0,1,.971.343,2.37,2.37,0,0,1,.308,1.067l.3,2.431Z"
                transform="translate(-650.624 -54.665)" fill="#0d6a6a" />
            <path
                d="M911.842,109.146a2.738,2.738,0,0,0-1.219-2.053l-.951,1.788a1.8,1.8,0,0,0-.29.9,1.084,1.084,0,0,0,1.355.894,1.527,1.527,0,0,0,1.022-1.415Z"
                transform="translate(-650.77 -58.449)" fill="#0d6a6a" />
            <path
                d="M906.006,113.883c.185.406.833.307,1.122-.032a12.759,12.759,0,0,0,.639-1.174,1.609,1.609,0,0,1,1.151-.676.767.767,0,0,1,.721.255.948.948,0,0,1,.122.517,4.812,4.812,0,0,1-.481,2.56,2.258,2.258,0,0,1-2.17,1.21,1.728,1.728,0,0,1-1.068-2.825Z"
                transform="translate(-652.651 -55.985)" fill="#0d6a6a" />
            <path
                d="M926.036,111.484a4.341,4.341,0,0,0-1.192-1.271,1.474,1.474,0,0,0-1.647-.006,1.306,1.306,0,0,0-.436.735,1.619,1.619,0,1,0,3.19.53Z"
                transform="translate(-644.063 -57.009)" fill="#0d6a6a" />
            <path
                d="M921.811,103.956a3.58,3.58,0,0,0-2.4-2.05,3.7,3.7,0,0,0-.276,1.432,1.259,1.259,0,0,0,.789,1.136c.64.194,1.258-.326,1.725-.805l.009.553Z"
                transform="translate(-645.873 -61.056)" fill="#0d6a6a" />
            <path
                d="M911.565,118.135c-.23.547.222,1.127.663,1.525s.948.888.852,1.473a.518.518,0,0,1-.257.392c-.377.18-.7-.313-1.022-.571a4.319,4.319,0,0,0-.906-.416,1.992,1.992,0,0,1-1.1-1.944,1.1,1.1,0,0,1,1.985.334Z"
                transform="translate(-650.567 -52.921)" fill="#0d6a6a" />
            <path
                d="M937.96,103.958l-.361.581a.828.828,0,0,0,.978.341.69.69,0,0,0,.347-.932.593.593,0,0,0-.945-.072Z"
                transform="translate(-636.588 -60.167)" fill="#0d6a6a" />
            <path
                d="M915.054,109.148l-.61-.374a1.512,1.512,0,0,0-.449.98c.025.367.493.688.769.445a.749.749,0,0,0,.185-.365l.374-1.273Z"
                transform="translate(-648.452 -57.712)" fill="#0d6a6a" />
            <g transform="translate(114.719 183.814)">
                <path
                    d="M829.062,241.488a25.642,25.642,0,0,0,10.446-5.131,4.533,4.533,0,0,0,1.255-1.4,3.662,3.662,0,0,0-.452-3.474,7.517,7.517,0,0,0-7.816-3.1,9.32,9.32,0,0,0-6.451,5.7,6.276,6.276,0,0,0-.168,4.79,3.533,3.533,0,0,0,3.977,2.116.764.764,0,0,0-.8-1Z"
                    transform="translate(-807.661 -181.389)" fill="#0d6a6a" />
                <path
                    d="M832.433,231.617a4.757,4.757,0,0,0,4.586-.394,5,5,0,0,0-2.32-3.982,3.024,3.024,0,0,0-4.114,1.142c-.643,1.465.9,3.462,2.409,2.917Z"
                    transform="translate(-805.166 -182.063)" fill="#0d6a6a" />
                <path
                    d="M840.438,226.191a2.445,2.445,0,0,0,1.8,1.177,2.524,2.524,0,0,0,.062-.993.857.857,0,0,0-.633-.7c-.451-.075-.822.331-1.1.7l-.054-.373Z"
                    transform="translate(-800.139 -182.669)" fill="#0d6a6a" />
                <path
                    d="M839.069,227.55a1.121,1.121,0,0,1-.643.179c.113-.57.687-.911,1.214-1.151.295-.134.679-.245.911-.018.161.158.167.412.26.616.189.41.754.723.6,1.148a.553.553,0,0,1-.637.293,1.615,1.615,0,0,1-.658-.374l-1.3-1.046Z"
                    transform="translate(-801.15 -182.286)" fill="#0d6a6a" />
                <path
                    d="M860.647,214.676c.455.108.708-.628.4-.981a1.7,1.7,0,0,0-1.3-.391,1.644,1.644,0,0,0,.8,1.638Z"
                    transform="translate(-790.445 -188.882)" fill="#0d6a6a" opacity="0.5" />
                <path
                    d="M855.819,204.433a.425.425,0,0,1-.2-.557.791.791,0,0,1,.5-.4.768.768,0,0,1,.382-.038.554.554,0,0,1,.4.688.6.6,0,0,1-.723.361.639.639,0,0,1-.41-.711Z"
                    transform="translate(-792.525 -193.847)" fill="#0d6a6a" />
                <path
                    d="M841.348,221.507a.653.653,0,0,0,.434,1.035,1.141,1.141,0,0,0,.287-.657.554.554,0,0,0-.377-.56c-.236-.057-.512.174-.446.409Z"
                    transform="translate(-799.749 -184.856)" fill="#0d6a6a" />
                <path
                    d="M837.33,227.594a1.863,1.863,0,0,0,1,1.28l.487-1.291a1.241,1.241,0,0,0,.117-.633.74.74,0,0,0-.995-.485,1.039,1.039,0,0,0-.566,1.047Z"
                    transform="translate(-801.701 -182.294)" fill="#0d6a6a" />
                <path
                    d="M854.112,208.147l.192-.425a.564.564,0,0,0-.691-.146.471.471,0,0,0-.153.661.4.4,0,0,0,.646-.035Z"
                    transform="translate(-793.634 -191.793)" fill="#0d6a6a" opacity="0.5" />
                <path
                    d="M841.224,224.077c-.161-.258-.59-.135-.757.12a8.851,8.851,0,0,0-.329.849,1.093,1.093,0,0,1-.718.559.529.529,0,0,1-.511-.11.655.655,0,0,1-.128-.338,3.306,3.306,0,0,1,.1-1.775,1.537,1.537,0,0,1,1.361-1.008,1.179,1.179,0,0,1,.971,1.817Z"
                    transform="translate(-801.008 -184.324)" fill="#0d6a6a" />
                <path
                    d="M842.016,228.951a.735.735,0,0,0,.917.445,1.055,1.055,0,0,0,.669-.849c.027-.164,0-.376-.164-.428a.413.413,0,0,0-.323.077q-.611.345-1.22.688Z"
                    transform="translate(-799.407 -181.442)" fill="#0d6a6a" />
                <path
                    d="M851.653,222.171a1.238,1.238,0,0,1,.371-1.929,3.088,3.088,0,0,1,.778,1.587c.039.6-.428,1.264-1.023,1.192l-.709-.769Z"
                    transform="translate(-794.795 -185.395)" fill="#0d6a6a" />
                <path
                    d="M816.742,241.4a.319.319,0,0,1-.457-.071.742.742,0,0,1-.105-.5.915.915,0,0,1,.1-.41.628.628,0,0,1,.739-.237.792.792,0,0,1,.479.642.512.512,0,0,1-.089.389.278.278,0,0,1-.367.063Z"
                    transform="translate(-812.333 -175.391)" fill="#0d6a6a" />
                <path
                    d="M844.186,221.9l.445.2a1.03,1.03,0,0,0,.218-.7c-.05-.246-.394-.422-.559-.233a.5.5,0,0,0-.093.263l-.141.894Z"
                    transform="translate(-798.321 -184.971)" fill="#0d6a6a" />
                <path
                    d="M848.53,218.417a2.964,2.964,0,0,0,1.187.056,1.009,1.009,0,0,0,.808-.78.89.89,0,0,0-.137-.566,1.1,1.1,0,1,0-1.812,1.258Z"
                    transform="translate(-796.157 -187.218)" fill="#0d6a6a" />
                <path
                    d="M851.306,218.538q.374-.16.748-.317a1.428,1.428,0,0,0-.224-.577.767.767,0,0,0-.717.8Z"
                    transform="translate(-794.775 -186.701)" fill="#0d6a6a" />
                <path
                    d="M848.894,237.124a10.283,10.283,0,0,0,2.933-3.618,1.826,1.826,0,0,0,.221-.72,1.467,1.467,0,0,0-.748-1.187,3.01,3.01,0,0,0-3.361.186,3.727,3.727,0,0,0-1.385,3.154,2.515,2.515,0,0,0,.742,1.769,1.418,1.418,0,0,0,1.8.1.306.306,0,0,0-.458-.231Z"
                    transform="translate(-797.069 -179.902)" fill="#0d6a6a" />
                <path
                    d="M830.939,222.543a2.44,2.44,0,0,0,2.15-.14,2.548,2.548,0,0,0-.545-.832.861.861,0,0,0-.926-.18c-.406.209-.46.757-.461,1.214l-.268-.266Z"
                    transform="translate(-804.938 -184.853)" fill="#0d6a6a" />
                <path
                    d="M834.207,220.032a.966.966,0,0,0,.59-.168,1,1,0,0,0,.251-.541,9.351,9.351,0,0,1,.544-1.56l-2.485,1.187a.548.548,0,0,1-.207.066c-.254.011-.385-.3-.6-.433-.322-.188-.721.063-.972.338C829.54,220.884,833.071,220.1,834.207,220.032Z"
                    transform="translate(-804.969 -186.641)" fill="#0d6a6a" />
                <path
                    d="M829.242,225.491a1.861,1.861,0,0,0,1.572.424q-.194-.663-.385-1.325a1.265,1.265,0,0,0-.284-.577.741.741,0,0,0-1.088.207,1.04,1.04,0,0,0,.173,1.178Z"
                    transform="translate(-805.916 -183.58)" fill="#0d6a6a" />
                <path
                    d="M814.348,235.619l.192-.425a.568.568,0,0,0-.691-.146.471.471,0,0,0-.152.661.4.4,0,0,0,.645-.033Z"
                    transform="translate(-813.618 -177.985)" fill="#0d6a6a" />
                <path
                    d="M833.789,223.849a.735.735,0,0,0,1-.192,1.058,1.058,0,0,0,.027-1.08c-.077-.149-.23-.3-.389-.246a.42.42,0,0,0-.212.257q-.284.64-.567,1.282Z"
                    transform="translate(-803.551 -184.351)" fill="#0d6a6a" />
                <path
                    d="M834.726,228.222a2.963,2.963,0,0,0,1.187.056,1.009,1.009,0,0,0,.808-.78.89.89,0,0,0-.137-.566,1.1,1.1,0,1,0-1.812,1.258Z"
                    transform="translate(-803.095 -182.29)" fill="#0d6a6a" />
                <path
                    d="M848.092,226.081c.23-.332.01-.784-.227-1.112s-.508-.726-.361-1.1a.357.357,0,0,1,.227-.225c.276-.066.419.308.6.526a2.872,2.872,0,0,0,.545.406,1.358,1.358,0,0,1,.46,1.453.748.748,0,0,1-1.277-.5Z"
                    transform="translate(-796.608 -183.691)" fill="#0d6a6a" />
                <path
                    d="M850.251,219.776c.23-.334.01-.784-.227-1.112s-.508-.727-.361-1.1a.35.35,0,0,1,.227-.225c.276-.068.419.307.6.526a2.982,2.982,0,0,0,.546.4,1.358,1.358,0,0,1,.46,1.453.747.747,0,0,1-1.277-.5Z"
                    transform="translate(-795.523 -186.86)" fill="#0d6a6a" />
                <path
                    d="M854.752,217.456a2.168,2.168,0,0,0,.864-.46.392.392,0,0,0,.1-.12.311.311,0,0,0-.048-.292.633.633,0,0,0-.666-.24.789.789,0,0,0-.527.5.526.526,0,0,0,0,.4.3.3,0,0,0,.34.168.064.064,0,0,0-.069-.083Z"
                    transform="translate(-793.103 -187.364)" fill="#0d6a6a" />
                <path
                    d="M826.788,232.592a2.437,2.437,0,0,0,2.149-.14,2.525,2.525,0,0,0-.545-.832.859.859,0,0,0-.924-.18c-.407.209-.46.757-.461,1.214l-.267-.266Z"
                    transform="translate(-807.025 -179.803)" fill="#0d6a6a" />
                <path
                    d="M824.741,228.132a.655.655,0,0,0,.969.569,1.145,1.145,0,0,0-.164-.7.554.554,0,0,0-.637-.222.371.371,0,0,0-.114.6Z"
                    transform="translate(-808.055 -181.624)" fill="#0d6a6a" />
                <path
                    d="M832.988,227.473a.655.655,0,0,0,.969.569,1.139,1.139,0,0,0-.165-.7.552.552,0,0,0-.636-.222.37.37,0,0,0-.114.6Z"
                    transform="translate(-803.91 -181.955)" fill="#0d6a6a" />
                <path
                    d="M826.008,230.54c-.283-.111-.553.245-.534.55a8.864,8.864,0,0,0,.245.876,1.094,1.094,0,0,1-.24.879.533.533,0,0,1-.475.218.659.659,0,0,1-.305-.2,3.274,3.274,0,0,1-.981-1.482,1.536,1.536,0,0,1,.485-1.623,1.179,1.179,0,0,1,1.865.875Z"
                    transform="translate(-808.571 -180.72)" fill="#0d6a6a" />
                <path
                    d="M848.3,222.88c-.284-.111-.553.245-.535.55a8.726,8.726,0,0,0,.246.876,1.1,1.1,0,0,1-.242.879.526.526,0,0,1-.473.218.64.64,0,0,1-.3-.2,3.277,3.277,0,0,1-.983-1.482,1.538,1.538,0,0,1,.485-1.621,1.18,1.18,0,0,1,1.866.873Z"
                    transform="translate(-797.37 -184.57)" fill="#0d6a6a" />
                <path
                    d="M849.522,225.2c-.284-.111-.553.246-.533.55a8.344,8.344,0,0,0,.245.876,1.1,1.1,0,0,1-.24.879.526.526,0,0,1-.475.218.647.647,0,0,1-.3-.2,3.28,3.28,0,0,1-.983-1.48,1.54,1.54,0,0,1,.485-1.623,1.18,1.18,0,0,1,1.866.873Z"
                    transform="translate(-796.753 -183.403)" fill="#0d6a6a" />
                <path
                    d="M845.632,226.313c-.284-.111-.553.245-.535.55a8.805,8.805,0,0,0,.246.876,1.1,1.1,0,0,1-.242.879.529.529,0,0,1-.473.218.651.651,0,0,1-.3-.2,3.277,3.277,0,0,1-.983-1.482,1.539,1.539,0,0,1,.485-1.623,1.179,1.179,0,0,1,1.866.874Z"
                    transform="translate(-798.709 -182.844)" fill="#0d6a6a" />
                <path
                    d="M843.623,198.046c-.284-.111-.553.245-.534.55a8.481,8.481,0,0,0,.245.876,1.1,1.1,0,0,1-.242.879.526.526,0,0,1-.473.218.648.648,0,0,1-.305-.2,3.277,3.277,0,0,1-.983-1.482,1.542,1.542,0,0,1,.485-1.623,1.181,1.181,0,0,1,1.866.875Z"
                    transform="translate(-799.718 -197.051)" fill="#0d6a6a" />
                <path
                    d="M827.229,226.749l.475-.107a1.026,1.026,0,0,0-.245-.691c-.188-.168-.569-.1-.588.147a.5.5,0,0,0,.083.267c.141.266.281.532.422.8Z"
                    transform="translate(-806.958 -182.573)" fill="#0d6a6a" />
                <path
                    d="M841.624,211.415a2.964,2.964,0,0,0,1.187.056,1.007,1.007,0,0,0,.808-.78.894.894,0,0,0-.137-.566,1.1,1.1,0,1,0-1.812,1.258Z"
                    transform="translate(-799.628 -190.736)" fill="#0d6a6a" />
                <path
                    d="M833.892,231.993a.808.808,0,0,1-1.142-.771,2.254,2.254,0,0,1,.777-.529,1.422,1.422,0,0,1,.293.981Z"
                    transform="translate(-804.006 -180.143)" fill="#0d6a6a" />
                <path
                    d="M845.3,211.86a1.673,1.673,0,0,0,.675-.1.576.576,0,0,0,.37-.527c-.026-.377-.5-.539-.694-.862s-.107-.8-.4-1.041a.64.64,0,0,0-.915.32,1.631,1.631,0,0,0,.027,1.1,1.818,1.818,0,0,0,.454.878.718.718,0,0,0,.911.09Z"
                    transform="translate(-798.224 -190.929)" fill="#0d6a6a" opacity="0.5" />
                <path
                    d="M842.261,225.7a4.755,4.755,0,0,0,3.908,2.431,5,5,0,0,0,.527-4.578,3.024,3.024,0,0,0-3.977-1.549c-1.393.789-1.351,3.313.18,3.779Z"
                    transform="translate(-799.499 -184.657)" fill="#0d6a6a" />
                <path
                    d="M834.568,234a.424.424,0,0,1,.176-.563.8.8,0,0,1,.64-.023.778.778,0,0,1,.329.2.554.554,0,0,1-.1.787.593.593,0,0,1-.795-.144.64.64,0,0,1,.1-.814Z"
                    transform="translate(-803.115 -178.804)" fill="#0d6a6a" />
                <path
                    d="M838.59,229.916c.107-.391-.25-.744-.582-.975s-.72-.515-.706-.921a.353.353,0,0,1,.14-.287c.239-.155.5.15.741.3a2.963,2.963,0,0,0,.649.2,1.356,1.356,0,0,1,.915,1.219.747.747,0,0,1-1.37-.051Z"
                    transform="translate(-801.715 -181.652)" fill="#0d6a6a" />
                <path
                    d="M840.733,221.183l.409-.225a.567.567,0,0,0-.467-.53.471.471,0,0,0-.518.437.4.4,0,0,0,.538.359Z"
                    transform="translate(-800.281 -185.304)" fill="#0d6a6a" />
                <path
                    d="M837.19,226.093c-.173.027-.323-.155-.324-.329a.752.752,0,0,1,.216-.466.922.922,0,0,1,.329-.266.628.628,0,0,1,.735.252.792.792,0,0,1,0,.8.512.512,0,0,1-.3.258.277.277,0,0,1-.331-.168Z"
                    transform="translate(-801.934 -183.008)" fill="#0d6a6a" />
                <path
                    d="M831.155,219.928a4.753,4.753,0,0,0,1.366,4.4,5,5,0,0,0,3.394-3.116,3.024,3.024,0,0,0-2-3.775c-1.569-.316-3.188,1.623-2.337,2.975Z"
                    transform="translate(-804.856 -186.825)" fill="#0d6a6a" />
                <path
                    d="M828.921,227.517c.455.11.706-.628.4-.981a1.7,1.7,0,0,0-1.3-.391,1.646,1.646,0,0,0,.8,1.638Z"
                    transform="translate(-806.391 -182.429)" fill="#0d6a6a" />
                <path
                    d="M838.21,233.642l.409-.225a.565.565,0,0,0-.467-.53.469.469,0,0,0-.517.437.4.4,0,0,0,.536.359Z"
                    transform="translate(-801.548 -179.042)" fill="#0d6a6a" />
                <path
                    d="M836.654,229.949a11.128,11.128,0,0,0,4.593-2.093,1.966,1.966,0,0,0,.562-.591,1.588,1.588,0,0,0-.152-1.513,3.259,3.259,0,0,0-3.351-1.444,4.044,4.044,0,0,0-2.868,2.389,2.727,2.727,0,0,0-.134,2.075,1.53,1.53,0,0,0,1.7.968.331.331,0,0,0-.332-.445Z"
                    transform="translate(-802.795 -183.379)" fill="#0d6a6a" />
                <path
                    d="M834.193,211.18a4.757,4.757,0,0,0,4.586-.394,5.009,5.009,0,0,0-2.32-3.983,3.026,3.026,0,0,0-4.114,1.143c-.643,1.464.9,3.462,2.407,2.917Z"
                    transform="translate(-804.282 -192.335)" fill="#0d6a6a" />
                <path
                    d="M852.507,216.8a2.442,2.442,0,0,0,2.149-.14,2.494,2.494,0,0,0-.545-.832.858.858,0,0,0-.926-.18c-.406.209-.46.757-.46,1.214-.09-.089-.179-.177-.267-.267Z"
                    transform="translate(-794.099 -187.739)" fill="#0d6a6a" />
                <path
                    d="M855.773,214.29a.969.969,0,0,0,.592-.17,1.012,1.012,0,0,0,.251-.539,9.073,9.073,0,0,1,.544-1.56l-2.487,1.187a.541.541,0,0,1-.207.066c-.254.011-.385-.3-.6-.433-.32-.188-.721.062-.971.337C851.108,215.14,854.637,214.356,855.773,214.29Z"
                    transform="translate(-794.129 -189.527)" fill="#0d6a6a" />
                <path
                    d="M839.746,229.284l.745-.31a1.288,1.288,0,0,0-1.286-.778c-.529.1-.867.846-.476,1.216.24.228.712.491.479.729Z"
                    transform="translate(-801.083 -181.405)" fill="#0d6a6a" />
                <path
                    d="M846.782,215.67a1.1,1.1,0,0,1-.643.179c.114-.569.687-.911,1.216-1.151.295-.134.679-.243.909-.018.161.158.167.412.261.616.189.41.754.723.6,1.148a.555.555,0,0,1-.637.295,1.627,1.627,0,0,1-.658-.376l-1.3-1.046Z"
                    transform="translate(-797.274 -188.256)" fill="#0d6a6a" />
                <path
                    d="M843.819,210.756c.455.11.708-.628.4-.981a1.7,1.7,0,0,0-1.3-.391,1.641,1.641,0,0,0,.8,1.638Z"
                    transform="translate(-798.903 -190.853)" fill="#0d6a6a" />
                <path
                    d="M850.243,210.6a.427.427,0,0,1-.2-.557.794.794,0,0,1,.5-.4.764.764,0,0,1,.38-.039.554.554,0,0,1,.4.69.594.594,0,0,1-.723.361.64.64,0,0,1-.409-.711Z"
                    transform="translate(-795.327 -190.749)" fill="#0d6a6a" opacity="0.5" />
                <path
                    d="M850.46,212.34a.654.654,0,0,0,.969.569,1.144,1.144,0,0,0-.164-.7.553.553,0,0,0-.637-.224.371.371,0,0,0-.114.6Z"
                    transform="translate(-795.129 -189.561)" fill="#0d6a6a" />
                <path
                    d="M850.809,219.749a1.868,1.868,0,0,0,1.572.424c-.128-.442-.255-.885-.385-1.327a1.231,1.231,0,0,0-.284-.576.741.741,0,0,0-1.088.207,1.043,1.043,0,0,0,.173,1.178Z"
                    transform="translate(-795.077 -186.466)" fill="#0d6a6a" />
                <path
                    d="M846.685,208.39a.833.833,0,0,1-.01-1.533c.2-.089.506-.047.56.17a.507.507,0,0,1-.035.273c-.128.389-.254.78-.382,1.171l-.191-.1Z"
                    transform="translate(-797.257 -192.144)" fill="#0d6a6a" opacity="0.5" />
                <path
                    d="M846.5,204.426c.23-.332.01-.784-.227-1.112s-.508-.726-.361-1.1a.35.35,0,0,1,.227-.225c.276-.068.419.307.6.526a2.929,2.929,0,0,0,.545.4,1.358,1.358,0,0,1,.46,1.453.748.748,0,0,1-1.277-.5Z"
                    transform="translate(-797.408 -194.574)" fill="#0d6a6a" opacity="0.5" />
                <path
                    d="M848.663,228.783c.23-.332.01-.784-.227-1.112s-.508-.726-.361-1.1a.357.357,0,0,1,.227-.225c.276-.066.419.308.6.526a2.878,2.878,0,0,0,.545.406,1.358,1.358,0,0,1,.46,1.453.748.748,0,0,1-1.277-.5Z"
                    transform="translate(-796.322 -182.333)" fill="#0d6a6a" opacity="0.5" />
                <path
                    d="M849.136,203.78l.46-.078a.565.565,0,0,0-.264-.655.472.472,0,0,0-.634.242.4.4,0,0,0,.388.517Z"
                    transform="translate(-795.997 -194.06)" fill="#0d6a6a" opacity="0.5" />
                <path
                    d="M851.727,214.749c-.282-.111-.553.245-.534.548a8.506,8.506,0,0,0,.245.878,1.093,1.093,0,0,1-.24.878.527.527,0,0,1-.475.218.656.656,0,0,1-.305-.194,3.281,3.281,0,0,1-.981-1.482,1.534,1.534,0,0,1,.485-1.623,1.179,1.179,0,0,1,1.865.873Z"
                    transform="translate(-795.645 -188.657)" fill="#0d6a6a" />
                <path
                    d="M855.357,218.107a.736.736,0,0,0,1-.192,1.058,1.058,0,0,0,.029-1.08c-.078-.149-.23-.3-.389-.246a.423.423,0,0,0-.213.257q-.282.64-.565,1.28Z"
                    transform="translate(-792.711 -187.238)" fill="#0d6a6a" />
                <path
                    d="M841.954,214.966a1.239,1.239,0,0,1,.37-1.929,3.09,3.09,0,0,1,.78,1.587c.039.6-.43,1.264-1.023,1.193l-.709-.771Z"
                    transform="translate(-799.67 -189.017)" fill="#0d6a6a" />
                <path
                    d="M852.946,210.958c.159-.035.317-.071.476-.107a1.02,1.02,0,0,0-.246-.691c-.186-.168-.568-.1-.586.147a.492.492,0,0,0,.083.266q.21.4.422.8Z"
                    transform="translate(-794.032 -190.509)" fill="#0d6a6a" opacity="0.5" />
                <path
                    d="M831.752,230.439a2.936,2.936,0,0,0,1.187.056,1,1,0,0,0,.808-.78.888.888,0,0,0-.137-.565,1.1,1.1,0,1,0-1.812,1.256Z"
                    transform="translate(-804.59 -181.175)" fill="#0d6a6a" />
                <path
                    d="M834.48,214.618q.374-.158.748-.317a1.443,1.443,0,0,0-.224-.575.766.766,0,0,0-.718.795Z"
                    transform="translate(-803.232 -188.671)" fill="#0d6a6a" />
                <path
                    d="M819.244,236.41a.424.424,0,0,1-.2-.556.791.791,0,0,1,.5-.4.755.755,0,0,1,.382-.039.555.555,0,0,1,.4.69.6.6,0,0,1-.723.361.641.641,0,0,1-.41-.711Z"
                    transform="translate(-810.907 -177.776)" fill="#0d6a6a" />
                <path
                    d="M838.818,215.683l.748-.317a1.428,1.428,0,0,0-.224-.577.767.767,0,0,0-.717.8Z"
                    transform="translate(-801.051 -188.136)" fill="#0d6a6a" />
                <path
                    d="M845.022,229.53c.237.189.6-.072.672-.368a8.714,8.714,0,0,0,.023-.911,1.1,1.1,0,0,1,.49-.769.526.526,0,0,1,.517-.068.665.665,0,0,1,.234.275,3.285,3.285,0,0,1,.5,1.705,1.536,1.536,0,0,1-.941,1.408,1.18,1.18,0,0,1-1.527-1.384Z"
                    transform="translate(-797.864 -181.812)" fill="#0d6a6a" />
                <path
                    d="M835.085,225.794a1.681,1.681,0,0,0-.675-.105.576.576,0,0,0-.508.4c-.086.368.319.663.41,1.029s-.135.8.075,1.113a.641.641,0,0,0,.969-.036,1.645,1.645,0,0,0,.3-1.058,1.824,1.824,0,0,0-.176-.971.72.72,0,0,0-.844-.356Z"
                    transform="translate(-803.43 -182.661)" fill="#0d6a6a" />
                <path
                    d="M846.529,221.183a9.062,9.062,0,0,0-3.05,2.756,1.579,1.579,0,0,0-.292.6,1.3,1.3,0,0,0,.49,1.136,2.654,2.654,0,0,0,2.956.3,3.288,3.288,0,0,0,1.639-2.56,2.221,2.221,0,0,0-.406-1.644,1.249,1.249,0,0,0-1.557-.334.269.269,0,0,0,.368.263Z"
                    transform="translate(-798.765 -184.922)" fill="#0d6a6a" />
                <path
                    d="M847.18,228.793a.958.958,0,0,0,.44.43,1.012,1.012,0,0,0,.594-.051,9.21,9.21,0,0,1,1.624-.3q-1.131-.784-2.266-1.567a.534.534,0,0,1-.161-.146c-.135-.216.072-.485.075-.739,0-.373-.413-.6-.775-.676C844.121,225.168,846.558,227.842,847.18,228.793Z"
                    transform="translate(-797.573 -182.672)" fill="#0d6a6a" />
                <path
                    d="M845.717,221.6l.464-.045a.566.566,0,0,0-.218-.672.471.471,0,0,0-.649.2.4.4,0,0,0,.35.542Z"
                    transform="translate(-797.702 -185.104)" fill="#0d6a6a" />
                <path
                    d="M848.42,225.515a.735.735,0,0,0,.664.772,1.062,1.062,0,0,0,.951-.514c.09-.141.144-.347.021-.46a.42.42,0,0,0-.329-.057l-1.393.147Z"
                    transform="translate(-796.171 -182.879)" fill="#0d6a6a" />
                <path
                    d="M847.181,222.358a2.442,2.442,0,0,0,1.19,1.8,2.529,2.529,0,0,0,.451-.887.856.856,0,0,0-.3-.893c-.383-.248-.885-.023-1.282.2l.1-.365Z"
                    transform="translate(-796.75 -184.404)" fill="#0d6a6a" />
                <path
                    d="M847.661,220.263a1.108,1.108,0,0,1-.475-.469,1.876,1.876,0,0,1,1.6.482c.263.188.55.466.467.78-.056.218-.273.349-.4.532-.261.368-.252,1.014-.7,1.094a.557.557,0,0,1-.572-.407,1.633,1.633,0,0,1,0-.757l.26-1.65Z"
                    transform="translate(-796.748 -185.647)" fill="#0d6a6a" />
                <path
                    d="M846.186,225.889a1.863,1.863,0,0,0,.415,1.573l.959-.993a1.229,1.229,0,0,0,.358-.532.74.74,0,0,0-.72-.841,1.041,1.041,0,0,0-.936.736Z"
                    transform="translate(-797.268 -182.956)" fill="#0d6a6a" />
                <path
                    d="M851.346,224.134c-.044-.3-.487-.358-.742-.191s-.4.457-.639.649a1.091,1.091,0,0,1-.882.228.527.527,0,0,1-.424-.3.663.663,0,0,1,.016-.362,3.29,3.29,0,0,1,.8-1.588,1.538,1.538,0,0,1,1.65-.385,1.179,1.179,0,0,1,.17,2.053Z"
                    transform="translate(-796.017 -184.474)" fill="#0d6a6a" />
                <path
                    d="M837.527,221.581a2.973,2.973,0,0,0,.542,1.058,1.009,1.009,0,0,0,1.079.314.892.892,0,0,0,.424-.4,1.1,1.1,0,1,0-1.992-.947Z"
                    transform="translate(-801.602 -185.05)" fill="#0d6a6a" />
                <path
                    d="M838.714,227.215a2.438,2.438,0,0,0,1.19,1.8,2.516,2.516,0,0,0,.451-.887.859.859,0,0,0-.3-.893c-.383-.248-.886-.023-1.283.2l.1-.365Z"
                    transform="translate(-801.006 -181.963)" fill="#0d6a6a" />
                <path
                    d="M848.185,220.123c.253-.316.065-.781-.149-1.125s-.455-.76-.281-1.125a.351.351,0,0,1,.242-.209c.281-.047.4.337.562.568a2.918,2.918,0,0,0,.515.442,1.357,1.357,0,0,1,.358,1.482.747.747,0,0,1-1.238-.592Z"
                    transform="translate(-796.492 -186.693)" fill="#0d6a6a" />
                <path
                    d="M827.945,223.844l.346-.316a.568.568,0,0,0-.578-.407.471.471,0,0,0-.4.547.4.4,0,0,0,.606.224Z"
                    transform="translate(-806.742 -183.95)" fill="#0d6a6a" />
                <path
                    d="M843.95,224.83l.329.359a1.024,1.024,0,0,0,.479-.557c.053-.245-.194-.544-.421-.436a.511.511,0,0,0-.191.2l-.482.765Z"
                    transform="translate(-798.518 -183.42)" fill="#0d6a6a" />
            </g>
        </g>
        <g transform="translate(2623 1004.618)">
            <g transform="translate(0 0)" clip-path="url(#a)">
                <g transform="translate(-15.509 52.163)">
                    <path
                        d="M758.025,246.762l42.245-80.826,9.263,18.885-20.01,73.07S767.288,255.28,758.025,246.762Z"
                        transform="translate(-711.332 -30.351)" fill="url(#b)" />
                    <path d="M778.8,189.953l-3.638,66.44,5.744.923,20.011-73.07L792.5,167.076Z"
                        transform="translate(-702.717 -29.778)" opacity="0.3" fill="url(#c)"
                        style="mix-blend-mode:multiply;isolation:isolate" />
                    <path
                        d="M794.406,243.579S780,156.372,775.543,97.972c0,0,123.388-19.493,189.537-22.27a130.445,130.445,0,0,1,2.778,19.654l.063,1.391-3.675,1.711,2.131,111.61S943.772,229,928.208,234.8C928.208,234.8,821.064,244.7,794.406,243.579Z"
                        transform="translate(-702.528 -75.702)" fill="url(#d)" />
                    <path d="M878.064,171.886l.122,14.446Z" transform="translate(-651.001 -27.361)"
                        fill="url(#b)" />
                    <path
                        d="M788.1,192.7s28.011-13.807,62.655-15.522S921.9,183.92,921.9,183.92,821.98,192.7,788.1,192.7Z"
                        transform="translate(-696.218 -24.818)" opacity="0.5" fill="url(#f)"
                        style="mix-blend-mode:multiply;isolation:isolate" />
                    <path
                        d="M871.1,153.294a2.659,2.659,0,0,1-1.614-2.2c-.28-1.775,1.848-3.388,2.258-3.373h.176C871.07,148.292,868.973,150.127,871.1,153.294Z"
                        transform="translate(-655.325 -39.506)" fill="#fff" opacity="0.5"
                        style="mix-blend-mode:soft-light;isolation:isolate" />
                    <path
                        d="M871.525,163.341a8.736,8.736,0,0,1-2.347-.117s-3.77-2.786-1.158-5.911c0,0,.352-.161.939-.4a5.288,5.288,0,0,0-.44,3.872A3.587,3.587,0,0,0,871.525,163.341Z"
                        transform="translate(-656.513 -34.884)" fill="#fff" opacity="0.5"
                        style="mix-blend-mode:soft-light;isolation:isolate" />
                    <g transform="translate(196.133 152.396)">
                        <path
                            d="M998.108,215.4c-1.393,12.219-10.282,24.174-10.282,24.174-18.629-25.846-31.685-33.621-31.685-33.621a149.086,149.086,0,0,1-18.8,7.892.166.166,0,0,0-.059.03c-18.057,6.219-33.987,8.332-36.818,7.92-3.358-.5-11.089-3.315-12.805-3.946a.046.046,0,0,1-.03-.015c-.2-.072-.322-.117-.322-.117a93.982,93.982,0,0,1-21.77-4.077s-6.115-.279-6.115-1.863,7.6-6.382,7.6-6.382-9.534-.469-9.534-1.026.646-3.154,7.128-4.46,14.538.015,15.931,0c.514,0,2.332.044,4.841.044,3.285,0,7.788-.1,12.13-.542,1.349-.132,2.7-.293,3.976-.5,8.521-1.393,26.77-10.106,26.77-10.106a9.527,9.527,0,0,0-2.876-.645c-1.306-.074-4.885,1.775-10,2.6a.435.435,0,0,0-.1.029,28.735,28.735,0,0,1-3.139.338c-6.865.367-13.906-1.672-14.082-3.991-.191-2.3,2.494-4.811,3.33-5.089.631-.206,10.136.44,19.289.367,3.037-.015,6.015-.132,8.64-.367a35.106,35.106,0,0,0,5.531-.968c7.612-1.878,13.378-5.369,20.052-3.345,5.558,1.7,9.328,7.759,11.28,11.807a27.424,27.424,0,0,1,1.495,3.755C967.949,194.413,998.108,215.4,998.108,215.4Z"
                            transform="translate(-857.48 -177.124)" fill="url(#g)" />
                        <path
                            d="M891.486,194.489a108.5,108.5,0,0,1-13.341,1.642s10.215.251,11.465-.162A3.7,3.7,0,0,0,891.486,194.489Z"
                            transform="translate(-847.094 -168.396)" fill="url(#h)" />
                        <path
                            d="M940.326,190.449s-5.642,2.678-10.057,4.868c-7.887,3.914-11.534,9.608-16.814,14.243s-13.131,5.841-13.131,5.841a3,3,0,0,0-1.6-.911c-.924-.234-5.208.249-6.629.425,1.2-.219,3.27-.733,3.432-1.291.206-.69-.792-3.213-3.844-3.3-2.024-.074-6.894-.542-8.625-.44a12.754,12.754,0,0,0,3.814-.954c3.125-1.041,1.672-2.361-.191-3.608s-8.992-1.8-8.992-1.8c3.8-.1,1.657-2.419.748-3.475a9.35,9.35,0,0,0-2.391-1.409c3.285,0,7.788-.1,12.13-.542,1.349-.132,2.7-.293,3.976-.5,8.521-1.393,26.77-10.106,26.77-10.106a9.527,9.527,0,0,0-2.876-.645c-1.306-.074-4.885,1.775-10,2.6.939-.264,8.449-2.436,8.523-4.679.044-1.306-1.672-2.685-3.228-3.668,3.037-.015,6.015-.132,8.64-.367a35.106,35.106,0,0,0,5.531-.968h.043l-1.393,2.493s-.074,4.4,5.28,5.707C936.248,189.614,940.326,190.449,940.326,190.449Z"
                            transform="translate(-848.148 -175.801)" opacity="0.4" fill="url(#i)"
                            style="mix-blend-mode:multiply;isolation:isolate" />
                        <path
                            d="M933.451,187.438a20.74,20.74,0,0,0-19.825,4.912c-9.435,8.858-8.595,12.533-18.009,17.8,0,0,3.926-1.032,11.245-8.26S917.423,186.882,933.451,187.438Z"
                            transform="translate(-838.313 -172.322)" fill="url(#j)" />
                        <path
                            d="M870.52,201.366c-.209-1.112,1.991,3.3,9.955-2.733,5.489.893,11.376,6.972,13.947,7.25s7.364-1.214,7.364-1.214-5.6,1.19-6.948.774-8.691-6.9-14.036-7.644C871.6,196.523,870.52,201.366,870.52,201.366Z"
                            transform="translate(-850.933 -166.841)" fill="url(#k)" />
                        <path
                            d="M884.93,207.075c-.2-.072-.322-.117-.322-.117a93.982,93.982,0,0,1-21.77-4.077c.588-3.2,7.893-4.225,8.8-4.342a19.477,19.477,0,0,0-7.408,3.388s.748,1.6,3.536,2.069c2.8.454,6.6-3.11,6.6-3.11C874.912,202.441,884.344,206.812,884.93,207.075Z"
                            transform="translate(-854.786 -166.361)" fill="url(#i)" />
                        <path
                            d="M864.483,196.412a39.608,39.608,0,0,1,9.151-.838c5.974,0,10.353.419,10.353.419s-12.161-2.221-21.471,0Z"
                            transform="translate(-854.949 -168.137)" fill="url(#m)" />
                        <path
                            d="M882.816,200.018s3.683-.972,5.211-1.181a10.291,10.291,0,0,1,2.78,0A76.96,76.96,0,0,1,882.816,200.018Z"
                            transform="translate(-844.746 -166.258)" fill="#ec6a6b" />
                        <path
                            d="M887.518,193.35s1.528,9.941,6.81,13.447C894.328,206.8,885.225,201.548,887.518,193.35Z"
                            transform="translate(-842.569 -168.969)" fill="#ec6a6b" />
                        <path
                            d="M893.1,201.581s-3.809,2.219-6.143,2.326a29.913,29.913,0,0,0,7.291-1.352Z"
                            transform="translate(-842.665 -164.832)" fill="#ec6a6b" />
                        <path
                            d="M859.233,202.594a9.779,9.779,0,0,0,7.133-1.034c3.614-2.084,4.29-5.131,3.382-5.6S859.094,198.161,859.233,202.594Z"
                            transform="translate(-856.599 -167.684)" fill="url(#k)" />
                        <path
                            d="M863.487,202.042a5.041,5.041,0,0,0,4.79,1.881c3.27-.4,5.282-3.872,5.282-3.872a5.656,5.656,0,0,0-3.468-1.321C868.211,198.8,864,201.151,863.487,202.042Z"
                            transform="translate(-854.461 -166.266)" fill="url(#o)" />
                        <path
                            d="M857.507,196.6a13.32,13.32,0,0,0,6.762-.081,13.067,13.067,0,0,0,7.014-4.08C871.448,192.081,861.214,190.553,857.507,196.6Z"
                            transform="translate(-857.466 -169.646)" fill="url(#k)" />
                        <path
                            d="M885.031,186.594a22.054,22.054,0,0,0,12.306,2.926c6.946-.5,8.475-5.585,7.223-7.17s-15.152-1.811-16.817-1.947S883.636,183.89,885.031,186.594Z"
                            transform="translate(-843.841 -175.478)" fill="url(#k)" />
                        <path d="M906.972,184.9l7.011.651s-6,.981-14.154,2.581Z"
                            transform="translate(-836.196 -173.215)" fill="#ec6a6b" />
                        <path
                            d="M971.4,211.25c-1.393,12.219-10.282,24.174-10.282,24.174C942.486,209.578,929.43,201.8,929.43,201.8a149.086,149.086,0,0,1-18.8,7.892c1.086-.512,15.869-8.566,19.081-10.632,7.411-4.769,5.283-10.329,5.283-10.329s3.785-1.393,4.46-3.33l.015-.015a27.424,27.424,0,0,1,1.495,3.755C941.239,190.259,971.4,211.25,971.4,211.25Z"
                            transform="translate(-830.77 -172.97)" opacity="0.2" fill="url(#r)"
                            style="mix-blend-mode:color-burn;isolation:isolate" />
                        <path
                            d="M932.707,188.871s-2.637.3-4.861,6.616c0,0-1.806-5.923,0-8.7S932.707,188.871,932.707,188.871Z"
                            transform="translate(-822.518 -172.697)" fill="url(#s)" />
                        <path
                            d="M886.965,209.111s-10.3-4.772-10.56-6.189,4.938-5.282,11.067-3.421,11.011,7.256,13.743,7.572,6.2-1.677,6.2-1.677-4.261-5.325-5.124-7.971a18.676,18.676,0,0,0-1.071-2.935s-10.085,1.932-16.82,1.648-14.109-.548-18.039.535c0,0-6.954,3.567-7.53,6.1s6.048,2.147,6.048,2.147S878.146,208.985,886.965,209.111Z"
                            transform="translate(-856.821 -168.396)" opacity="0.4" fill="url(#r)"
                            style="mix-blend-mode:multiply;isolation:isolate" />
                    </g>
                    <path
                        d="M964.246,91.01S946.718,100.993,928.662,107c0,0-120.52,3.635-127.932,1.9s-19.084-17.047-19.084-17.047l-6.1-1.328L797.4,111.612s130.4,6.638,132.548,5.821S964.3,93.648,964.3,93.648Z"
                        transform="translate(-702.528 -68.253)" opacity="0.5" fill="url(#u)"
                        style="mix-blend-mode:multiply;isolation:isolate" />
                    <path
                        d="M875.927,93.3s4.775,10.662,2.282,21.143l1.05,119.764s22.12-10.955,36.665-24.142l-2.131-111.61,3.675-1.711A64.415,64.415,0,0,0,914.628,75.7S893.369,89.595,875.927,93.3Z"
                        transform="translate(-655.081 -75.702)" fill="#0d6a6a" opacity="0.42"
                        style="mix-blend-mode:multiply;isolation:isolate" />
                    <path
                        d="M775.543,97.972S881.01,94.227,926.379,93.3c0,0,24.8-6.209,38.7-17.6C965.08,75.7,870.33,80.775,775.543,97.972Z"
                        transform="translate(-702.528 -75.702)" fill="url(#v)" />
                    <path
                        d="M775.543,97.972s116.4-2.633,150.836-4.669c0,0,22.859-4.542,38.7-17.6l-39.426,9.659s-23.884,3.645-39.49,4.927C833.618,94.6,775.543,97.972,775.543,97.972Z"
                        transform="translate(-702.528 -75.702)" opacity="0.2" fill="url(#w)"
                        style="mix-blend-mode:color-dodge;isolation:isolate" />
                    <path
                        d="M843.145,236.531l-4.375-124.083-3.644.284-2.364-21.38c9.677-3.928,16.757-5.78,27.8-9.13l-34.064,9.13S830.938,220.72,843.145,236.531Z"
                        transform="translate(-676.921 -72.425)" fill="#5d656d" opacity="0.42"
                        style="mix-blend-mode:multiply;isolation:isolate" />
                    <path
                        d="M838.131,93.317s-.714,95.21,11.785,145.2l-17.8,1.193S817.552,156.1,813.372,109.219c-.47-5.355-.822-10.24-.983-14.449,0,0,33.591-10.445,68.59-14.859l15.152-1.6C893.652,78.752,853.871,85.792,838.131,93.317Z"
                        transform="translate(-684.009 -74.39)" fill="url(#x)" />
                    <path
                        d="M850.233,233.472l-18.115,1.219-.631-3.683c-2.846-16.649-14.462-85.8-18.115-126.808l-.983-14.449L838.131,88.3S837.736,183.483,850.233,233.472Z"
                        transform="translate(-684.009 -69.371)" fill="url(#y)" />
                    <path
                        d="M788.413,196.3l36.056-2.047s12.583,2.26,17.4,2.047,14.35-9.728,14.35-9.728l-15.277-1.445,22.5-13.366,2.648-10.7-20.7-.983s8.608-7.9,17.83-15.87l-1.143-5.3-59.859,8.625-14.823-.927s18.593-5.1,28.2-13.761,8-13.167,8-13.167l-28.222,7.584-15.783,6.1Z"
                        transform="translate(-700.495 -53.597)" fill="#5d656d" opacity="0.42"
                        style="mix-blend-mode:multiply;isolation:isolate" />
                    <g transform="translate(209.949 69.871)">
                        <path
                            d="M1039.9,216.918c-4.033,9.857-9.885,26.461-10.942,29.484l-.176.484c-29.675-35.44-54.172-57.809-62.9-65.436-.382-.338-.7-.6-.954-.837q-.286-.241-.527-.44c-.059-.059-.119-.1-.162-.146-.059-.045-.1-.089-.146-.117-1.071-.924-1.644-1.394-1.644-1.394s-4.254,4.811-9.152,6.323c-4.327,1.319-36.085,8.844-44.974,10.679-1.158.248-1.937.4-2.2.41-2.317.191-19.964-.5-20.521-.646-.557-.131-1.115-1.291-1.056-1.892s3.932-3.11,7.774-3.521c3.844-.425,6.073,1.013,10.048.176a12.967,12.967,0,0,0,1.409-.4,53.036,53.036,0,0,0,9.46-5.164s-2.024.119-4.781.264c-4.328.234-10.488.557-13.5.646-4.928.132-21.606.352-22.163-.557s-.074-3.683-.074-3.683a21.945,21.945,0,0,1-3.33-.484c-.763-.278-2.787-2.581-2.714-3.755.074-1.189,2.083-3.829,7.848-6.4a21.99,21.99,0,0,1,2.742-.983l.059-.015a66.575,66.575,0,0,1,10.254-2.009l.117-.015c2.186-.264,3.7-.382,3.7-.382s-.571-.015-1.54-.044c-4.43-.1-16.957-.47-18.1-1.158a3.13,3.13,0,0,1-1.395-3.33c.191-1.028,5.193-4.358,12.323-5.106a99.944,99.944,0,0,1,16.091.132c.41.044.63.059.63.059a84.973,84.973,0,0,0,19.466-2.787,68.255,68.255,0,0,0,11.632-4.415,1.486,1.486,0,0,1,.147-.074c5.881-2.846,10.312-5.794,10.312-6.249,0-.512-1.952-3.872-5.414-6.161a.044.044,0,0,0-.029-.014,12.663,12.663,0,0,0-5.486-2.069c-6.865-.835-16.121,1.2-21.872-.382a6.109,6.109,0,0,1-2.493-1.393,10.067,10.067,0,0,1-1.878-2.245l-.014-.014c-2.421-3.77-3.169-9.022-2.289-9.594,1.306-.835,21.87,5.75,29.923,6.028,5.546.191,14.362-.675,21.138.162h.015c3.08.382,5.749,1.1,7.48,2.434,4.811,3.683,11.412,21.768,13.115,26.594.263.763.41,1.189.41,1.189,19.347,25.009,50.415,47.408,61.887,55.256l1.011.69c1.584,1.085,2.685,1.8,3.154,2.111Z"
                            transform="translate(-866.675 -122.202)" fill="url(#z)" />
                        <path
                            d="M870.978,147.721s5.732-.063,8.234,1.291,1.459,3.2-.8,4.1-7.435.219-7.435.219Z"
                            transform="translate(-864.512 -109.377)" opacity="0.2" fill="url(#aa)"
                            style="mix-blend-mode:color-burn;isolation:isolate" />
                        <path
                            d="M890.079,126.037a30.76,30.76,0,0,0,7.881,1.192c4.829.174,6.15-1.354,6.15-1.841s-3.793-1.653-3.793-1.653Z"
                            transform="translate(-854.912 -121.432)" opacity="0.2" fill="url(#r)"
                            style="mix-blend-mode:color-burn;isolation:isolate" />
                        <path
                            d="M868.047,157.7a18.435,18.435,0,0,1,9.245-2c5.674.14,6.168,4.052,3.919,5.513s-8.76,2.595-8.76,2.595Z"
                            transform="translate(-865.985 -105.368)" opacity="0.2" fill="url(#ac)"
                            style="mix-blend-mode:color-burn;isolation:isolate" />
                        <path
                            d="M871.847,161.78s7.508-1.088,10.258.627-1.42,3.025-3.573,3.176S871.847,161.78,871.847,161.78Z"
                            transform="translate(-864.075 -102.482)" opacity="0.2" fill="url(#ad)"
                            style="mix-blend-mode:color-burn;isolation:isolate" />
                        <path
                            d="M878.911,169.537a20.354,20.354,0,0,1,6.18-.646c3.231.209,2.64,2.233.694,2.711a9.762,9.762,0,0,1-3.994,0Z"
                            transform="translate(-860.525 -98.753)" opacity="0.2" fill="url(#ae)"
                            style="mix-blend-mode:color-burn;isolation:isolate" />
                        <path
                            d="M969.613,155.4s-10.62,12.13-10.709,21.02c0,0-4.254,4.811-9.152,6.323-4.327,1.319-36.085,8.844-44.974,10.679a5.742,5.742,0,0,0,.117-3.286c-.646-2.787-4.664-2.581-4.664-2.581l4.664-4.724a1.547,1.547,0,0,1,.015-.176c.087-1.026.337-6.439-4.284-7.54,0,0,3.8-1.011,5.471-2.449s.485-5.926-1.95-6.659c-2.362-.7-29.132,1.334-30.423,1.438l.059-.015,10.254-2.009.117-.015,2.156-.425,1.907-.367s8.245.117,10.475-1.82c2.215-1.935-1.629-6.131-3.462-7.276.41.044.63.059.63.059a84.973,84.973,0,0,0,19.466-2.787c10.562-2.772,22.091-10,22.091-10.738s-4.078-7.421-10.928-8.243-16.121,1.2-21.872-.382a6.109,6.109,0,0,1-2.493-1.393l-1.878-2.245c.353.206,6.88,3.887,20.126,2.993,13.334-.909,28.017-6.176,28.633-6.41h.015c3.08.382,5.749,1.1,7.48,2.434C961.31,132.488,967.911,150.573,969.613,155.4Z"
                            transform="translate(-863.132 -120.107)" opacity="0.2" fill="url(#r)"
                            style="mix-blend-mode:color-burn;isolation:isolate" />
                        <path
                            d="M883.124,152.584s8.918.069,11.9,0,12.855-1.461,12.855-1.461-10.909,1.738-12.855,2.016S883.124,152.584,883.124,152.584Z"
                            transform="translate(-858.407 -107.667)" fill="#ee7778" />
                        <path
                            d="M870.38,162.369a114.7,114.7,0,0,1,16.671-2.876s-10.9,2.383-16.253,3.346Z"
                            transform="translate(-864.812 -103.46)" fill="#ee7778" />
                        <path
                            d="M905.621,157.181s-6.67,1.112-13.433,2.455c0,0,11.581-1.321,14.267-1.69Z"
                            transform="translate(-853.852 -104.622)" fill="#ee7778" />
                        <path d="M899.76,164.042l-6.279,3.746s9.173-3.05,13.25-4.9Z"
                            transform="translate(-853.202 -101.756)" fill="#ee7778" />
                        <path
                            d="M902.193,127.019a12.589,12.589,0,0,1-2.553.4,36.438,36.438,0,0,1-8.273-.469l-.894-.161c-2.449-3.418-.352-4.533-.352-4.533s.484.044,1.246.117a40.42,40.42,0,0,1,8.729,1.863,10.521,10.521,0,0,1,1.144.5h.015C903.308,125.669,903.749,126.5,902.193,127.019Z"
                            transform="translate(-855.311 -122.178)" fill="#fec0b9" />
                        <path
                            d="M879.519,152.326c-1.731,1.011-5.4,1.13-8.406.983l-.013-.015a2.659,2.659,0,0,1-1.614-2.2c-.28-1.775,1.848-3.388,2.258-3.373h.176c.983.029,5.722.234,7.7,1.671a1.875,1.875,0,0,1,.822,1.1A1.563,1.563,0,0,1,879.519,152.326Z"
                            transform="translate(-865.274 -109.377)" fill="#fec0b9" />
                        <path
                            d="M880.546,160.988a5.731,5.731,0,0,1-1.776,1.026,25.694,25.694,0,0,1-7.2,1.818h-.043a8.736,8.736,0,0,1-2.347-.117s-3.77-2.786-1.158-5.911c0,0,.352-.161.939-.4,1.833-.733,5.985-2.113,9.065-1.13.322.1.616.219.894.337C881.44,157.731,882.071,159.594,880.546,160.988Z"
                            transform="translate(-866.462 -105.247)" fill="#fec0b9" />
                        <path
                            d="M880.7,165.23a4.931,4.931,0,0,1-1.54.264,60.57,60.57,0,0,1-6.733-.161,5.075,5.075,0,0,1-1.6-.308c-.484-.353-.132-3.256-.132-3.256s.675-.045,1.687-.074c2.434-.1,6.835-.176,8.419.323.089.029.162.059.234.087C882.581,162.8,882.67,164.571,880.7,165.23Z"
                            transform="translate(-864.714 -102.391)" fill="#fec0b9" />
                        <path
                            d="M886.023,171.254h-.015a13.973,13.973,0,0,1-6.161.527,1.744,1.744,0,0,1-.28-.015,1.986,1.986,0,0,1-.835-2.228s.263-.059.69-.147c1.364-.264,4.458-.733,6.248-.044a3.453,3.453,0,0,1,.412.191C887.122,170.139,887.049,170.8,886.023,171.254Z"
                            transform="translate(-860.643 -98.688)" fill="#fec0b9" />
                        <path
                            d="M1006.714,197.1l-10.942,29.484-.176.484c-29.675-35.44-54.172-57.809-62.9-65.436,8.844,7.495,47.951,40.469,57.059,42.92,10.284,2.787,12.514-10.43,12.514-10.43l1.011.69,3.154,2.111Z"
                            transform="translate(-833.492 -102.385)" opacity="0.2" fill="url(#r)"
                            style="mix-blend-mode:color-burn;isolation:isolate" />
                        <path
                            d="M876.386,151.768a1.859,1.859,0,0,1-.69-1.232,2.937,2.937,0,0,1,.792-1.7,1.875,1.875,0,0,1,.822,1.1A1.563,1.563,0,0,1,876.386,151.768Z"
                            transform="translate(-862.141 -108.818)" fill="#fff" opacity="0.5"
                            style="mix-blend-mode:soft-light;isolation:isolate" />
                        <path
                            d="M876.651,160.762a2.419,2.419,0,0,1-1.555-1.351,5.6,5.6,0,0,1-.074-3.022C877.545,157.5,878.176,159.367,876.651,160.762Z"
                            transform="translate(-862.567 -105.02)" fill="#fff" opacity="0.5"
                            style="mix-blend-mode:soft-light;isolation:isolate" />
                        <path
                            d="M877.684,165.1a1.616,1.616,0,0,1-1.086-1.158,2.415,2.415,0,0,1,1.189-2.053c.089.029.162.059.234.087C879.561,162.663,879.65,164.437,877.684,165.1Z"
                            transform="translate(-861.693 -102.258)" fill="#fff" opacity="0.5"
                            style="mix-blend-mode:soft-light;isolation:isolate" />
                        <path
                            d="M872.431,165.309a5.076,5.076,0,0,1-1.6-.308c-.484-.353-.132-3.256-.132-3.256s.675-.045,1.687-.074c-.236.66-.793,2.421-.221,3.3A3.222,3.222,0,0,0,872.431,165.309Z"
                            transform="translate(-864.714 -102.366)" fill="#fff" opacity="0.5"
                            style="mix-blend-mode:soft-light;isolation:isolate" />
                        <path
                            d="M879.847,171.647a1.744,1.744,0,0,1-.28-.015,1.986,1.986,0,0,1-.835-2.228s.263-.059.69-.147A3.456,3.456,0,0,0,879.847,171.647Z"
                            transform="translate(-860.643 -98.553)" fill="#fff" opacity="0.5"
                            style="mix-blend-mode:soft-light;isolation:isolate" />
                        <path
                            d="M883.781,171.134h-.015a1,1,0,0,1-.631-.822,2,2,0,0,1,.293-1.085,3.453,3.453,0,0,1,.412.191C884.881,170.019,884.808,170.678,883.781,171.134Z"
                            transform="translate(-858.402 -98.568)" fill="#fff" opacity="0.5"
                            style="mix-blend-mode:soft-light;isolation:isolate" />
                        <path
                            d="M891.367,126.945l-.894-.161c-2.449-3.418-.352-4.533-.352-4.533s.484.044,1.246.117C891.059,122.793,890.5,124.026,891.367,126.945Z"
                            transform="translate(-855.311 -122.178)" fill="#fff" opacity="0.5"
                            style="mix-blend-mode:soft-light;isolation:isolate" />
                        <path
                            d="M898.369,126.189c-.718-.425-1.57-1.056-1.466-1.642a.892.892,0,0,1,.512-.646h.015C899.484,124.84,899.925,125.676,898.369,126.189Z"
                            transform="translate(-851.487 -121.349)" fill="#fff" opacity="0.5"
                            style="mix-blend-mode:soft-light;isolation:isolate" />
                        <path
                            d="M919.561,138.867c0-.512-1.952-3.872-5.414-6.161.514.191,7.453,2.876,10.269,6.484,0,0-12.512,4.841-15.167,5.926C915.13,142.27,919.561,139.322,919.561,138.867Z"
                            transform="translate(-845.277 -116.923)" opacity="0.2" fill="url(#r)"
                            style="mix-blend-mode:color-burn;isolation:isolate" />
                        <path d="M900.943,148.23l7.046-1.525S905.76,149.347,900.943,148.23Z"
                            transform="translate(-849.452 -109.887)" fill="#feb1a8" />
                        <path d="M902.916,154.2l7.041-.847A6.242,6.242,0,0,1,902.916,154.2Z"
                            transform="translate(-848.46 -106.545)" fill="#feb1a8" />
                        <path d="M904.519,160.6l7.107-.741A8.525,8.525,0,0,1,904.519,160.6Z"
                            transform="translate(-847.654 -103.274)" fill="#feb1a8" />
                        <path
                            d="M876.252,161.24s16.261.7,27.792-2.545C904.044,158.695,888.134,158.466,876.252,161.24Z"
                            transform="translate(-861.861 -103.864)" fill="url(#ac)" />
                    </g>
                    <g transform="translate(0 59.339)">
                        <path
                            d="M893.762,169.467s.337,2.566-.557,3.74c-.911,1.189-16.356,4.386-20.713,4.666-.4.029-.909.074-1.51.132h-.03c-5.926.571-20.228,2.551-20.228,2.551s10.533,4.651,13.217,4.826c0,0,.352-.132,1.041-.337a52.29,52.29,0,0,1,8.816-1.585c6.4-.645,9.813.425,10.284.792.454.382,0,3.154-.28,3.991s-13.8,5-17.045,5.558a1.1,1.1,0,0,1-.234.03c-3.594.293-16.193-4.841-19.6-4.841-3.477,0-30.716.544-34.471-.556-3.74-1.115-8.243-6.968-8.243-6.968A250.6,250.6,0,0,0,784.553,207.9c-9.182,13.994-19.7,32.638-27.21,53.628,0,0-26.682-20.007-30.393-31.126,0,0,24.13-24.306,47.145-47.879,2.61-2.655,5.193-5.31,7.729-7.92,4.123-4.239,8.128-8.362,11.824-12.2,0,0,1.935-28.223,4.649-31.627l.132-.146a6.194,6.194,0,0,1,2.245-1.1c5.955-1.937,20.609-3.139,26.521-5.017,6.938-2.23,19.319-9.315,20.007-9.315s2.993,4.034,2.846,6.748c-.132,2.7-5.163,10.252-11.558,11.822-3.653.909-8.112.514-11.911.293l-.5-.044c-.279-.015-.675-.03-1.159-.059a12.86,12.86,0,0,0-5.149.469c-2.566,1.115-3.579,6.278-3.916,8.772v.015c-.117.807-.162,1.334-.162,1.334s19.833.661,30.115.529a151.9,151.9,0,0,0,16.018-1.041c.425-.06.807-.119,1.13-.147.425-.044.748-.1.983-.147h.015a.534.534,0,0,0,.176-.029c.1-.015.161-.03.161-.03.557-.132,7.511-5.838,14.171-6.527s14.595,1.482,14.742,2.684a15.674,15.674,0,0,1-1.672,5.926c-.69,1.115-17.089,3.067-25.156,5.707-1.438.469-2.963.909-4.5,1.319-7.115,1.908-14.538,3.125-14.538,3.125s9.564,1.935,16.605,2.9c2.054.278,3.9.484,5.221.527,5.839.176,8.523-.469,14.919-.1,6.38.367,13.421,2.6,13.8,3.711s-.514,4.635-1.731,5.6A3.88,3.88,0,0,1,893.762,169.467Z"
                            transform="translate(-726.95 -115.193)" fill="url(#aj)" />
                        <path d="M801.042,118.562s-2.5,1.4-2.431,2.721,7.9,2.015,13.78-2.362Z"
                            transform="translate(-690.935 -113.5)" opacity="0.2" fill="url(#r)"
                            style="mix-blend-mode:color-burn;isolation:isolate" />
                        <path
                            d="M841.629,131.635s-5.905-.808-10.422,1.692-1.521,5.187.834,5.489a25.572,25.572,0,0,0,6.411-.547Z"
                            transform="translate(-675.728 -106.992)" opacity="0.2" fill="url(#r)"
                            style="mix-blend-mode:color-burn;isolation:isolate" />
                        <path d="M842.6,146.593s-9.1-.461-11.465,2.727,4.933,4.123,4.933,4.123Z"
                            transform="translate(-674.823 -99.423)" opacity="0.2" fill="url(#r)"
                            style="mix-blend-mode:color-burn;isolation:isolate" />
                        <path d="M835.117,151.821s-4.521.735-4.452,3.33,7.1.458,7.1.458Z"
                            transform="translate(-674.824 -96.784)" opacity="0.2" fill="url(#ae)"
                            style="mix-blend-mode:color-burn;isolation:isolate" />
                        <path d="M832.9,161.478s-8.191,3.515-7.851,5.217,5.558,0,5.558,0Z"
                            transform="translate(-677.652 -91.931)" opacity="0.2" fill="url(#ao)"
                            style="mix-blend-mode:color-burn;isolation:isolate" />
                        <path
                            d="M780.22,155.18s-.108,22.918,3.474,25.738,7.238-2.434,7.238-2.434-23.5,37.927-31.834,62.664A73.74,73.74,0,0,1,726.95,210.3S773.61,161,780.22,155.18Z"
                            transform="translate(-726.95 -95.096)" fill="url(#b)" />
                        <path
                            d="M812.073,120.62a7.547,7.547,0,0,1-.924.675,17.208,17.208,0,0,1-10.8,1.761h-.015c-.807-.206-1.232-.529-1.056-.954a4.511,4.511,0,0,1,1.394-1.569l.014-.015a46.628,46.628,0,0,1,8.934-4.8c.762-.337,1.246-.527,1.246-.527C812.717,117.276,812.073,120.62,812.073,120.62Z"
                            transform="translate(-690.617 -115.193)" fill="#fec0b9" />
                        <path
                            d="M839.843,137.519s-.412.117-1.056.264c-1.6.367-4.679.909-6.85.279a3.541,3.541,0,0,1-1.746-1.028c-.762-.879-.469-2.273,1.291-3.447,1.57-1.041,4.343-1.892,8.553-1.98.367-.015.747-.015,1.128-.015C841.162,131.593,842,134.117,839.843,137.519Z"
                            transform="translate(-675.261 -106.95)" fill="#fec0b9" />
                        <path
                            d="M842.308,153.456l-.616.044h-.015a7.385,7.385,0,0,1-.836.045c-.646.029-1.336.029-2.024.014H838.8a15.21,15.21,0,0,1-5.443-.924c-.015-.015-.015-.015-.015,0-1.2-.557-1.877-1.378-1.54-2.581a3.234,3.234,0,0,1,1.731-1.76,18.3,18.3,0,0,1,9.961-1.527h.029c.47.117.778.279.865.5C846.239,151.9,842.308,153.456,842.308,153.456Z"
                            transform="translate(-674.294 -99.416)" fill="#fec0b9" />
                        <path
                            d="M840.922,155.139a1.678,1.678,0,0,1-.4.177,26.484,26.484,0,0,1-7.245.968c-1.321-.03-2.288-.249-2.3-.822a2.225,2.225,0,0,1,.807-1.672c1.584-1.482,5.134-2.258,7.393-2.523h.015a5.251,5.251,0,0,1,2.009-.059c0,.015.015.03.015.045a3.222,3.222,0,0,1,.191.762C841.581,153.028,841.655,154.67,840.922,155.139Z"
                            transform="translate(-674.668 -97.125)" fill="#fec0b9" />
                        <path
                            d="M834.261,165.144a3.35,3.35,0,0,1-.382.2,16.281,16.281,0,0,1-5.252,1.848,4.789,4.789,0,0,1-3.035-.4.129.129,0,0,1-.074-.132c0-.792,4.048-4.019,7.51-5.149a7.766,7.766,0,0,1,1.512-.367S835.552,162.665,834.261,165.144Z"
                            transform="translate(-677.41 -92.094)" fill="#fec0b9" />
                        <path
                            d="M843.473,138.871c-10.9,1.657-50.618,6.18-62.43,16.742-6.416,5.737-13.421,12.007-17.573,13.827,4.123-4.239,8.128-8.362,11.824-12.2,0,0,1.935-28.223,4.649-31.627l.132-.146s4.577,3.462,13.334,2.918a147.836,147.836,0,0,0,16.679-2.1l10.048,2.317c-6.4,1.584-15.284-.822-18.718.66-3.417,1.482-4.078,10.121-4.078,10.121s19.833.661,30.115.529A151.9,151.9,0,0,0,843.473,138.871Z"
                            transform="translate(-708.595 -110.031)" opacity="0.2" fill="url(#r)"
                            style="mix-blend-mode:color-burn;isolation:isolate" />
                        <path
                            d="M787.094,137.079l-3.237-.771s1.763-4.185,4.82-6.261C788.677,130.047,787.086,134.885,787.094,137.079Z"
                            transform="translate(-698.349 -107.728)" fill="#ec6a6b" />
                        <path
                            d="M849,183.829a10.605,10.605,0,0,0,2.581,5.208c-3.594.293-16.193-4.841-19.6-4.841-3.477,0-30.716.544-34.471-.556-3.74-1.115-8.243-6.968-8.243-6.968A250.6,250.6,0,0,0,769.618,203.1l-12.952.822V190.651l2.494-12.924c2.61-2.655,5.193-5.31,7.729-7.92,4.123-4.239,8.128-8.362,11.824-12.2,0,0,1.935-28.223,4.649-31.627l.132-.146a6.194,6.194,0,0,1,2.245-1.1c3.974,3.007,19.156,4.137,24.247,4.43a12.86,12.86,0,0,0-5.149.469c-2.566,1.115-3.579,6.278-3.916,8.772v.015c-.117.807-.162,1.334-.162,1.334s19.833.661,30.115.529a151.9,151.9,0,0,0,16.018-1.041c.425-.06.807-.119,1.13-.147.425-.044.748-.1.983-.147h.015a.534.534,0,0,0,.176-.029c.1-.015.161-.03.161-.03s-3.007,5.926-2.464,8.933l.045.176c-7.115,1.908-14.538,3.125-14.538,3.125s9.564,1.935,16.605,2.9c0,0-2.464,2.655-3.022,5.061s.909,5.339.909,5.339-.733,3.931,2.113,6.058a17.455,17.455,0,0,0,7.011,2.729c-5.926.571-20.228,2.551-20.228,2.551s10.533,4.651,13.217,4.826c0,0,.352-.132,1.041-.337A6.31,6.31,0,0,0,849,183.829Z"
                            transform="translate(-712.015 -110.399)" opacity="0.2" fill="url(#r)"
                            style="mix-blend-mode:color-burn;isolation:isolate" />
                        <path
                            d="M809.021,142.293l-5.84.577s18.863,3.5,27.667,2.855C830.848,145.725,817.014,144.048,809.021,142.293Z"
                            transform="translate(-688.637 -101.573)" fill="#fe9083" />
                        <path
                            d="M841.25,151.092s-13.821-.338-20.213.261c0,0,18.317.893,25.487.745l-.05-.627S841.659,151.274,841.25,151.092Z"
                            transform="translate(-679.663 -97.198)" fill="#ec6a6b" />
                        <path
                            d="M803.55,150.738s12.658.878,17.753.948c0,0-13.62.862-15.379.559A3.275,3.275,0,0,1,803.55,150.738Z"
                            transform="translate(-688.451 -97.328)" fill="#ec6a6b" />
                        <path
                            d="M810.935,158.693l-4.819.915s12.725,3.922,18.036,3.911C824.152,163.519,815.539,161.106,810.935,158.693Z"
                            transform="translate(-687.162 -93.33)" fill="#ec6a6b" />
                        <path
                            d="M793.422,127.762l-.5-.044c.337.015.527.03.527.03S793.437,127.748,793.422,127.762Z"
                            transform="translate(-693.793 -108.898)" opacity="0.2" fill="url(#as)"
                            style="mix-blend-mode:color-burn;isolation:isolate" />
                        <path
                            d="M804.864,140.812a30.8,30.8,0,0,1-6.948.834A4.567,4.567,0,0,0,804.864,140.812Z"
                            transform="translate(-691.283 -102.317)" fill="#feb1a8" />
                        <path
                            d="M805.889,148.1a30.834,30.834,0,0,1-6.992-.3A4.566,4.566,0,0,0,805.889,148.1Z"
                            transform="translate(-690.79 -98.807)" fill="#feb1a8" />
                        <path
                            d="M807.206,154.879a30.787,30.787,0,0,1-6.992-.3A4.567,4.567,0,0,0,807.206,154.879Z"
                            transform="translate(-690.128 -95.4)" fill="#feb1a8" />
                        <path
                            d="M800.353,121.294h-.015c-.807-.206-1.232-.529-1.056-.954a4.511,4.511,0,0,1,1.394-1.569l.014-.015c.661-.089,1.438-.117,1.79.234C802.949,119.446,801.32,120.648,800.353,121.294Z"
                            transform="translate(-690.617 -113.431)" fill="#fff" opacity="0.5"
                            style="mix-blend-mode:soft-light;isolation:isolate" />
                        <path
                            d="M808.6,120.62a7.547,7.547,0,0,1-.924.675,3.334,3.334,0,0,1-.044-.586,8.839,8.839,0,0,0-1.482-4.989c.762-.337,1.246-.527,1.246-.527C809.245,117.276,808.6,120.62,808.6,120.62Z"
                            transform="translate(-687.144 -115.193)" fill="#fff" opacity="0.5"
                            style="mix-blend-mode:soft-light;isolation:isolate" />
                        <path
                            d="M833.446,135.24c.147.807-.586,1.554-1.51,2.156a3.541,3.541,0,0,1-1.746-1.028c-.762-.879-.469-2.273,1.291-3.447A3.464,3.464,0,0,1,833.446,135.24Z"
                            transform="translate(-675.261 -106.283)" fill="#fff" opacity="0.5"
                            style="mix-blend-mode:soft-light;isolation:isolate" />
                        <path
                            d="M836.835,137.519s-.412.117-1.056.264a13.38,13.38,0,0,0,1.247-6.176c.367-.015.747-.015,1.128-.015C838.155,131.593,838.992,134.117,836.835,137.519Z"
                            transform="translate(-672.253 -106.95)" fill="#fff" opacity="0.5"
                            style="mix-blend-mode:soft-light;isolation:isolate" />
                        <path
                            d="M834.592,150.127a1.869,1.869,0,0,1-1.232,1.935c-.015-.015-.015-.015-.015,0-1.2-.557-1.877-1.378-1.54-2.581a3.234,3.234,0,0,1,1.731-1.76A4.077,4.077,0,0,1,834.592,150.127Z"
                            transform="translate(-674.294 -98.845)" fill="#fff" opacity="0.5"
                            style="mix-blend-mode:soft-light;isolation:isolate" />
                        <path
                            d="M838.972,153.395l-.616.044a7.938,7.938,0,0,0,1.8-6.733h.029c.47.117.778.279.865.5C842.9,151.839,838.972,153.395,838.972,153.395Z"
                            transform="translate(-670.958 -99.355)" fill="#fff" opacity="0.5"
                            style="mix-blend-mode:soft-light;isolation:isolate" />
                        <path
                            d="M833.28,155.423c-1.321-.03-2.288-.249-2.3-.822a2.225,2.225,0,0,1,.807-1.672l.616-.074a2.229,2.229,0,0,1,1.261,1.483A1.383,1.383,0,0,1,833.28,155.423Z"
                            transform="translate(-674.668 -96.264)" fill="#fff" opacity="0.5"
                            style="mix-blend-mode:soft-light;isolation:isolate" />
                        <path
                            d="M837.816,154.916a1.678,1.678,0,0,1-.4.177,6.944,6.944,0,0,0-.264-3.507l1.145.206C838.476,152.8,838.549,154.447,837.816,154.916Z"
                            transform="translate(-671.562 -96.902)" fill="#fff" opacity="0.5"
                            style="mix-blend-mode:soft-light;isolation:isolate" />
                        <path
                            d="M828.628,165.667a4.789,4.789,0,0,1-3.035-.4.129.129,0,0,1-.074-.132l1.011-.9s1.527-.293,2.054.572A1.006,1.006,0,0,1,828.628,165.667Z"
                            transform="translate(-677.41 -90.564)" fill="#fff" opacity="0.5"
                            style="mix-blend-mode:soft-light;isolation:isolate" />
                        <path
                            d="M831.842,165.144a3.35,3.35,0,0,1-.382.2c.529-2.625-1.129-3.623-1.129-3.623l.278-.206a7.766,7.766,0,0,1,1.512-.367S833.133,162.665,831.842,165.144Z"
                            transform="translate(-674.991 -92.094)" fill="#fff" opacity="0.5"
                            style="mix-blend-mode:soft-light;isolation:isolate" />
                        <path
                            d="M762.417,155.827s2.036,20.24,5.464,22.277,6.789-2.11,6.789-2.11l-2.527,3.313s-.648,3.243-5.558,2.5-4.167-25.983-4.167-25.983Z"
                            transform="translate(-709.144 -94.771)" fill="#ec6a6b" />
                        <path
                            d="M757.833,161.087s-1.823,20.859,1.142,26.788,8.515,2.52,8.515,2.52l-3.146,5.6s-5.187-.663-7.411-8.816S757.833,161.087,757.833,161.087Z"
                            transform="translate(-712.282 -92.127)" fill="#b396c7" opacity="0.2"
                            style="mix-blend-mode:multiply;isolation:isolate" />
                        <path
                            d="M733.138,214.694s35.454-28.453,52.359-41.81c0,0-22.283,37.686-29.509,59.366C755.988,232.25,740.305,224.316,733.138,214.694Z"
                            transform="translate(-723.84 -86.198)" opacity="0.3" fill="url(#at)"
                            style="mix-blend-mode:multiply;isolation:isolate" />
                        <path
                            d="M809,151.084s9.662.562,18.091.225,18.019-.072,18.019-.072-19.709,1.735-24.516,1.735S809,151.084,809,151.084Z"
                            transform="translate(-685.714 -97.154)" fill="url(#r)" />
                    </g>
                </g>
            </g>
        </g>
        <g transform="translate(2873.817 1005.192)">
            <g transform="translate(15.476 24.19)">
                <path
                    d="M914.794,113.76a73.149,73.149,0,0,0,21.586-10c11.63-7.716,17.846-43.786,14.106-47.778S922.429,72.3,917.346,87.17s.176,23.552.176,23.552l-3.028,1.672Z"
                    transform="translate(-914.494 -55.468)" fill="url(#av)" />
                <path
                    d="M917.784,110.013S932.9,70.411,947.564,56C947.564,56,953.507,101.393,917.784,110.013Z"
                    transform="translate(-912.84 -55.2)" opacity="0.82" fill="url(#aw)"
                    style="mix-blend-mode:color-dodge;isolation:isolate" />
            </g>
        </g>
        <g transform="translate(2645.095 1066.804)">
            <g transform="translate(0 16.326)">
                <path
                    d="M780.261,127.015a10.13,10.13,0,0,0-3.289-3.835c-4.469-2.862-12.377-6.595-17.041-12.725-6.925-9.1-8.6-17.289-7.753-18.877s12.006,2.515,18.767,9.746,6.877,18.01,6.73,21.032c0,0,2.652,1.6,4.129,1.606l.152,3.181Z"
                    transform="translate(-751.976 -91.238)" fill="url(#ax)" />
                <path
                    d="M752.11,91.464s14.945,9.917,18.859,16.282a48.137,48.137,0,0,1,5.378,12.4S756.625,115.832,752.11,91.464Z"
                    transform="translate(-751.909 -91.124)" opacity="0.82" fill="url(#ay)"
                    style="mix-blend-mode:color-dodge;isolation:isolate" />
            </g>
        </g>
    </g>
</svg>