<svg xmlns="http://www.w3.org/2000/svg" width="91.001" height="91.586" viewBox="0 0 91.001 91.586">
    <g transform="translate(-7326 352.793)">
        <g transform="translate(1898 273.738)">
            <path d="M42.071,0A42.071,42.071,0,1,1,0,42.071,42.071,42.071,0,0,1,42.071,0Z"
                transform="translate(5432.573 -619.837)" fill="none" stroke="#0d6a6a"
                stroke-width="1.5" />
            <path d="M1.6,0A1.6,1.6,0,1,1,0,1.6,1.6,1.6,0,0,1,1.6,0Z"
                transform="translate(5481.96 -547.128)" fill="none" stroke="#0d6a6a"
                stroke-width="1.5" />
            <circle cx="1.829" cy="1.829" r="1.829" transform="translate(5507.111 -567.248)"
                fill="none" stroke="#0d6a6a" stroke-miterlimit="10" stroke-width="1.5" />
            <g transform="translate(5514.428 -551.7)" fill="#0d6a6a" stroke-miterlimit="10">
                <path
                    d="M1.871,4.157V2.7H.416a.415.415,0,1,1,0-.831H1.871V.416a.415.415,0,1,1,.831,0V1.871H4.157a.415.415,0,1,1,0,.831H2.7V4.157a.415.415,0,1,1-.831,0Z"
                    stroke="none" />
                <path
                    d="M 2.286900043487549 4.572900295257568 C 2.056500196456909 4.572900295257568 1.871100187301636 4.386600017547607 1.871100187301636 4.157100200653076 L 1.871100187301636 2.701800107955933 L 0.415800154209137 2.701800107955933 C 0.1863001435995102 2.701800107955933 1.476287820878497e-07 2.516400098800659 1.476287820878497e-07 2.286900043487549 C 1.476287820878497e-07 2.056500196456909 0.1863001435995102 1.871100187301636 0.415800154209137 1.871100187301636 L 1.871100187301636 1.871100187301636 L 1.871100187301636 0.415800154209137 C 1.871100187301636 0.1863001435995102 2.056500196456909 1.476287820878497e-07 2.286900043487549 1.476287820878497e-07 C 2.516400098800659 1.476287820878497e-07 2.701800107955933 0.1863001435995102 2.701800107955933 0.415800154209137 L 2.701800107955933 1.871100187301636 L 4.157100200653076 1.871100187301636 C 4.386600017547607 1.871100187301636 4.572900295257568 2.056500196456909 4.572900295257568 2.286900043487549 C 4.572900295257568 2.516400098800659 4.386600017547607 2.701800107955933 4.157100200653076 2.701800107955933 L 2.701800107955933 2.701800107955933 L 2.701800107955933 4.157100200653076 C 2.701800107955933 4.386600017547607 2.516400098800659 4.572900295257568 2.286900043487549 4.572900295257568 Z"
                    stroke="none" fill="#0d6a6a" />
            </g>
            <circle cx="1.829" cy="1.829" r="1.829" transform="translate(5439.89 -580.967)"
                fill="none" stroke="#0d6a6a" stroke-miterlimit="10" stroke-width="1.5" />
            <circle cx="2.515" cy="2.515" r="2.515" transform="translate(5466.413 -625.781)"
                fill="none" stroke="#0d6a6a" stroke-miterlimit="10" stroke-width="1.5" />
            <g transform="translate(5428 -601.088)" fill="#0d6a6a" stroke-miterlimit="10">
                <path
                    d="M1.871,4.157V2.7H.416a.415.415,0,1,1,0-.831H1.871V.416a.415.415,0,1,1,.831,0V1.871H4.157a.415.415,0,1,1,0,.831H2.7V4.157a.415.415,0,1,1-.831,0Z"
                    stroke="none" />
                <path
                    d="M 2.286900043487549 4.572900295257568 C 2.056500196456909 4.572900295257568 1.871100187301636 4.386600017547607 1.871100187301636 4.157100200653076 L 1.871100187301636 2.701800107955933 L 0.415800154209137 2.701800107955933 C 0.1863001435995102 2.701800107955933 1.476287820878497e-07 2.516400098800659 1.476287820878497e-07 2.286900043487549 C 1.476287820878497e-07 2.056500196456909 0.1863001435995102 1.871100187301636 0.415800154209137 1.871100187301636 L 1.871100187301636 1.871100187301636 L 1.871100187301636 0.415800154209137 C 1.871100187301636 0.1863001435995102 2.056500196456909 1.476287820878497e-07 2.286900043487549 1.476287820878497e-07 C 2.516400098800659 1.476287820878497e-07 2.701800107955933 0.1863001435995102 2.701800107955933 0.415800154209137 L 2.701800107955933 1.871100187301636 L 4.157100200653076 1.871100187301636 C 4.386600017547607 1.871100187301636 4.572900295257568 2.056500196456909 4.572900295257568 2.286900043487549 C 4.572900295257568 2.516400098800659 4.386600017547607 2.701800107955933 4.157100200653076 2.701800107955933 L 2.701800107955933 2.701800107955933 L 2.701800107955933 4.157100200653076 C 2.701800107955933 4.386600017547607 2.516400098800659 4.572900295257568 2.286900043487549 4.572900295257568 Z"
                    stroke="none" fill="#0d6a6a" />
            </g>
        </g>
    </g>
</svg>