<svg xmlns="http://www.w3.org/2000/svg" width="23.354" height="20.818" viewBox="0 0 23.354 20.818">
    <g transform="translate(0 0)">
        <path
            d="M23.105,36.02l-11.07-8.105a.607.607,0,0,0-.717,0L.248,36.02A.607.607,0,1,0,.965,37l10.712-7.843L22.388,37a.607.607,0,0,0,.717-.979Z"
            transform="translate(0.001 -27.798)" fill="#656565" />
    </g>
    <g transform="translate(2.575 9.339)">
        <path
            d="M74.049,232.543a.607.607,0,0,0-.607.607v9.659H68.588v-5.272a3.034,3.034,0,0,0-6.068,0v5.272H57.666V233.15a.607.607,0,0,0-1.214,0v10.265a.607.607,0,0,0,.607.607h6.068a.606.606,0,0,0,.6-.56.459.459,0,0,0,0-.047v-5.879a1.821,1.821,0,0,1,3.641,0v5.879a.446.446,0,0,0,0,.047.606.606,0,0,0,.6.56h6.068a.607.607,0,0,0,.607-.607V233.15A.607.607,0,0,0,74.049,232.543Z"
            transform="translate(-56.452 -232.543)" fill="#656565" />
    </g>
</svg>