<svg xmlns="http://www.w3.org/2000/svg" width="39.924" height="29.444" viewBox="0 0 39.924 29.444">
    <g transform="translate(0 5.25)">
        <path
            d="M118.925,90.35a4.3,4.3,0,1,0-4.3-4.3A4.3,4.3,0,0,0,118.925,90.35Zm0-6.928a2.637,2.637,0,1,1-2.637,2.637A2.637,2.637,0,0,1,118.925,83.422Zm0,0"
            transform="translate(-106.998 -81.211)" fill="#0d6a6a" />
        <path
            d="M86.6,234.873a6.453,6.453,0,0,0-4.674,1.955A6.9,6.9,0,0,0,80,241.71a.834.834,0,0,0,.832.832H92.376a.834.834,0,0,0,.832-.832,6.9,6.9,0,0,0-1.93-4.882A6.453,6.453,0,0,0,86.6,234.873Zm-4.882,6.005a5.088,5.088,0,0,1,1.4-2.886,4.9,4.9,0,0,1,6.97,0,5.112,5.112,0,0,1,1.4,2.886Zm0,0"
            transform="translate(-74.677 -224.145)" fill="#0d6a6a" />
        <path
            d="M35.765-5.25H4.159A4.161,4.161,0,0,0,0-1.091V20.035a4.161,4.161,0,0,0,4.159,4.159H35.765a4.161,4.161,0,0,0,4.159-4.159V-1.091A4.161,4.161,0,0,0,35.765-5.25Zm2.5,25.285a2.5,2.5,0,0,1-2.5,2.5H4.159a2.5,2.5,0,0,1-2.5-2.5V-1.091a2.5,2.5,0,0,1,2.5-2.5H35.765a2.5,2.5,0,0,1,2.5,2.5Zm0,0"
            fill="#0d6a6a" />
        <path d="M359.147,203.5h-9.69a.832.832,0,0,0,0,1.664h9.69a.832.832,0,0,0,0-1.664Zm0,0"
            transform="translate(-325.428 -194.86)" fill="#0d6a6a" />
        <path d="M359.147,283.5h-9.69a.832.832,0,0,0,0,1.664h9.69a.832.832,0,0,0,0-1.664Zm0,0"
            transform="translate(-325.428 -269.537)" fill="#0d6a6a" />
        <path d="M359.147,123.5h-9.69a.832.832,0,0,0,0,1.663h9.69a.832.832,0,0,0,0-1.663Zm0,0"
            transform="translate(-325.428 -120.183)" fill="#0d6a6a" />
    </g>
</svg>