<svg xmlns="http://www.w3.org/2000/svg" width="20.167" height="22" viewBox="0 0 20.167 22">
    <path
        d="M136.77,420.125a3.442,3.442,0,0,1-3.437-3.437.688.688,0,1,1,1.375,0,2.063,2.063,0,0,0,4.125,0,.688.688,0,1,1,1.375,0A3.442,3.442,0,0,1,136.77,420.125Zm0,0"
        transform="translate(-127.603 -398.125)" fill="#fff" />
    <path
        d="M16.729,80.5H1.6A1.6,1.6,0,0,1,.561,77.677a.634.634,0,0,1,.073-.055A6.161,6.161,0,0,0,2.75,72.974V70.417A6.424,6.424,0,0,1,9.167,64a2.761,2.761,0,0,1,.452.028.687.687,0,1,1-.226,1.356,1.444,1.444,0,0,0-.226-.008,5.048,5.048,0,0,0-5.042,5.042v2.557a7.539,7.539,0,0,1-2.661,5.748c-.014.011-.026.021-.04.031a.227.227,0,0,0-.049.142.232.232,0,0,0,.229.229H16.729a.232.232,0,0,0,.229-.229.219.219,0,0,0-.05-.142l-.039-.031a7.538,7.538,0,0,1-2.661-5.748v-1a.688.688,0,0,1,1.375,0v1a6.163,6.163,0,0,0,2.118,4.65.667.667,0,0,1,.07.053A1.6,1.6,0,0,1,16.729,80.5Zm0,0"
        transform="translate(0 -61.25)" fill="#fff" />
    <path
        d="M260.583,9.167a4.583,4.583,0,1,1,4.583-4.583A4.588,4.588,0,0,1,260.583,9.167Zm0-7.792a3.208,3.208,0,1,0,3.208,3.208,3.212,3.212,0,0,0-3.208-3.208Zm0,0"
        transform="translate(-245)" fill="#fff" />
</svg>