<svg xmlns="http://www.w3.org/2000/svg" width="36.663" height="41.714" viewBox="0 0 36.663 41.714">
    <g transform="translate(-31)">
        <path
            d="M53.609,41.714H32.833A1.835,1.835,0,0,1,31,39.881V9.3a1.835,1.835,0,0,1,1.833-1.833h3.512a.611.611,0,0,1,0,1.222H32.833a.612.612,0,0,0-.611.611V39.881a.612.612,0,0,0,.611.611H53.609a.612.612,0,0,0,.611-.611V25.664H40.166a1.835,1.835,0,0,1-1.833-1.833v-22A1.835,1.835,0,0,1,40.166,0H58.5A1.835,1.835,0,0,1,60.33,1.833v6.11a.611.611,0,1,1-1.222,0V1.833a.612.612,0,0,0-.611-.611H40.166a.612.612,0,0,0-.611.611v22a.612.612,0,0,0,.611.611H58.5a.612.612,0,0,0,.611-.611V10.388a.611.611,0,0,1,.611-.611h3.666a.611.611,0,0,1,0,1.222H60.33v2.444h3.055a.611.611,0,0,1,0,1.222H60.33v2.444h3.055a.611.611,0,0,1,0,1.222H60.33v2.444h3.055a.611.611,0,0,1,0,1.222H60.33v1.833a1.826,1.826,0,0,1-.1.611h3.16a.611.611,0,0,1,0,1.222H55.442v2.444h7.944a.611.611,0,0,1,0,1.222H55.442v3.829H65.83a.612.612,0,0,0,.611-.611V5.638a.612.612,0,0,0-.611-.611H62.163a.611.611,0,0,1,0-1.222H65.83a1.835,1.835,0,0,1,1.833,1.833V32.548a1.835,1.835,0,0,1-1.833,1.833H55.442v3.666h6.722a.612.612,0,0,0,.611-.611V36.215a.611.611,0,1,1,1.222,0v1.222a1.835,1.835,0,0,1-1.833,1.833H55.442v.611A1.835,1.835,0,0,1,53.609,41.714ZM57.275,23.22H41.388a.611.611,0,0,1-.611-.611V20.486c0-3.14,2.076-3.858,3.592-4.383,1.251-.433,1.961-.725,2.087-1.666a5.11,5.11,0,0,1-2.235-4.224V7.694a5.112,5.112,0,0,1,10.223,0v2.52a5.11,5.11,0,0,1-2.235,4.224c.125.941.836,1.233,2.087,1.666,1.516.525,3.592,1.243,3.592,4.383v2.123a.611.611,0,0,1-.611.611ZM42,22H56.664V20.486c0-2.27-1.283-2.714-2.769-3.228-1.1-.38-2.42-.838-2.814-2.241a5.116,5.116,0,0,1-3.5,0c-.393,1.4-1.716,1.861-2.814,2.241-1.486.514-2.769.958-2.769,3.228ZM49.331,3.8a3.894,3.894,0,0,0-3.89,3.89v2.52a3.89,3.89,0,0,0,7.779,0V7.694a3.894,3.894,0,0,0-3.89-3.89Z"
            transform="translate(0)" fill="#0d6a6a" />
    </g>
</svg>