<svg xmlns="http://www.w3.org/2000/svg" width="100.242" height="100.242"
    viewBox="0 0 100.242 100.242">
    <g transform="translate(0 0)">
        <path
            d="M212.8,0H193.277a1.471,1.471,0,1,0,0,2.943H212.8a1.473,1.473,0,0,1,1.471,1.471V34.027A1.473,1.473,0,0,1,212.8,35.5H172.321v-.707a5.2,5.2,0,1,0-10.41,0V35.5H146.924a1.471,1.471,0,1,0,0,2.943h14.987V64.369l-3.495-3.916a11.393,11.393,0,0,0-8.492-3.8,3.389,3.389,0,0,0-2.977,5.009l5.859,10.764a29.1,29.1,0,0,0,5.507,7.178l6.244,5.941v3.152a3.369,3.369,0,0,0-2.678,3.293v4.891a3.368,3.368,0,0,0,3.364,3.364h23.2a3.368,3.368,0,0,0,3.364-3.364V91.987a3.367,3.367,0,0,0-2.581-3.268V85.448c1.341-1.692,5.5-7.9,5.5-19.825V56.637a5.2,5.2,0,0,0-7.836-4.49,5.2,5.2,0,0,0-7.467-2.565,5.2,5.2,0,0,0-7.1-2.763V38.441H212.8a4.419,4.419,0,0,0,4.414-4.414V4.414A4.418,4.418,0,0,0,212.8,0Zm-38.22,49.243a2.265,2.265,0,0,1,2.262,2.262v2.565a1.471,1.471,0,0,0,2.943,0,2.262,2.262,0,1,1,4.525,0v2.565a1.471,1.471,0,1,0,2.943,0,2.262,2.262,0,0,1,4.525,0v8.987c0,12.64-5.049,18.226-5.1,18.276a1.47,1.47,0,0,0-.4,1.012v3.712h-3.554a1.471,1.471,0,0,0,0,2.943h5.714a.422.422,0,0,1,.422.422v4.891a.422.422,0,0,1-.422.421h-23.2a.422.422,0,0,1-.421-.421V91.987a.422.422,0,0,1,.421-.422h11.6a1.471,1.471,0,0,0,0-2.943H167.5V84.911a1.471,1.471,0,0,0-.457-1.066l-6.7-6.377a26.158,26.158,0,0,1-4.951-6.454l-5.859-10.764c-.138-.371,0-.6.392-.66a8.447,8.447,0,0,1,6.3,2.82l6.008,6.733a1.513,1.513,0,0,0,2.625-.98V34.791a2.262,2.262,0,1,1,4.525,0V51.506a1.471,1.471,0,1,0,2.943,0,2.266,2.266,0,0,1,2.263-2.262Z"
            transform="translate(-116.975 0)" fill="#25ae88" />
        <path
            d="M24.064,35.5H4.414a1.473,1.473,0,0,1-1.471-1.471V4.414A1.473,1.473,0,0,1,4.414,2.942h66a1.471,1.471,0,1,0,0-2.942h-66A4.419,4.419,0,0,0,0,4.414V34.027a4.419,4.419,0,0,0,4.414,4.414h19.65a1.471,1.471,0,1,0,0-2.942Z"
            fill="#25ae88" />
        <path
            d="M222,48a3.148,3.148,0,0,0-1.745-5.37l-3.426-.5a.207.207,0,0,1-.155-.113l-1.532-3.1a3.148,3.148,0,0,0-5.647,0l-1.532,3.1a.206.206,0,0,1-.155.113l-3.426.5A3.148,3.148,0,0,0,202.637,48l2.479,2.417a.205.205,0,0,1,.059.182l-.585,3.412a3.149,3.149,0,0,0,4.568,3.319l3.064-1.611a.2.2,0,0,1,.191,0l3.065,1.611a3.148,3.148,0,0,0,4.568-3.319l-.585-3.412a.206.206,0,0,1,.059-.182Zm-4.533.31a3.147,3.147,0,0,0-.905,2.787l.585,3.413a.206.206,0,0,1-.3.217l-3.064-1.611a3.148,3.148,0,0,0-2.93,0l-3.064,1.611a.206.206,0,0,1-.3-.217l.585-3.412a3.147,3.147,0,0,0-.906-2.787l-2.479-2.417a.206.206,0,0,1,.114-.351l3.426-.5a3.148,3.148,0,0,0,2.37-1.722l1.532-3.1a.206.206,0,0,1,.369,0l1.532,3.1a3.148,3.148,0,0,0,2.371,1.723l3.426.5a.206.206,0,0,1,.114.351Z"
            transform="translate(-162.197 -29.885)" fill="#25ae88" />
        <path
            d="M70.212,54.012,69.627,50.6a.205.205,0,0,1,.059-.182L72.165,48a3.148,3.148,0,0,0-1.745-5.37l-3.426-.5a.206.206,0,0,1-.155-.113l-1.532-3.1a3.148,3.148,0,0,0-5.647,0l-1.532,3.1a.207.207,0,0,1-.155.113l-3.426.5A3.148,3.148,0,0,0,52.8,48l2.479,2.417a.205.205,0,0,1,.059.182l-.585,3.412a3.149,3.149,0,0,0,4.568,3.319l3.064-1.611a.206.206,0,0,1,.192,0l3.065,1.611a3.148,3.148,0,0,0,4.568-3.319Zm-2.58-5.7a3.147,3.147,0,0,0-.906,2.787l.585,3.412a.206.206,0,0,1-.3.217l-3.064-1.611a3.149,3.149,0,0,0-2.93,0l-3.064,1.611a.206.206,0,0,1-.3-.217l.585-3.412a3.147,3.147,0,0,0-.906-2.787l-2.479-2.417a.206.206,0,0,1,.114-.351l3.426-.5a3.149,3.149,0,0,0,2.37-1.722l1.532-3.1a.206.206,0,0,1,.369,0l1.532,3.1a3.148,3.148,0,0,0,2.371,1.723l3.426.5a.206.206,0,0,1,.114.351Z"
            transform="translate(-41.698 -29.885)" fill="#25ae88" />
        <path
            d="M371.837,48a3.148,3.148,0,0,0-1.745-5.37l-3.426-.5a.206.206,0,0,1-.155-.113l-1.532-3.1a3.148,3.148,0,0,0-5.647,0l-1.532,3.1a.207.207,0,0,1-.155.113l-3.426.5A3.148,3.148,0,0,0,352.473,48l2.479,2.417a.205.205,0,0,1,.059.182l-.585,3.412a3.148,3.148,0,0,0,4.568,3.319l3.064-1.611a.206.206,0,0,1,.191,0l3.065,1.611a3.148,3.148,0,0,0,4.568-3.319L369.3,50.6a.206.206,0,0,1,.059-.182Zm-4.533.31A3.147,3.147,0,0,0,366.4,51.1l.585,3.413a.206.206,0,0,1-.3.217l-3.064-1.611a3.148,3.148,0,0,0-2.93,0l-3.064,1.611a.206.206,0,0,1-.3-.217l.585-3.412a3.148,3.148,0,0,0-.905-2.787l-2.479-2.417a.206.206,0,0,1,.114-.351l3.426-.5a3.15,3.15,0,0,0,2.37-1.722l1.532-3.1a.206.206,0,0,1,.369,0l1.532,3.1a3.148,3.148,0,0,0,2.371,1.723l3.426.5a.206.206,0,0,1,.114.351Z"
            transform="translate(-282.698 -29.885)" fill="#25ae88" />
    </g>
</svg>