<svg xmlns="http://www.w3.org/2000/svg" width="38.207" height="41.465" viewBox="0 0 38.207 41.465">
    <g transform="translate(-20.116 0)">
        <path
            d="M182.409,10.333h-.42a11.728,11.728,0,0,0-1.037-2.5l.3-.3a1.819,1.819,0,0,0,0-2.567L179.26,2.978a1.814,1.814,0,0,0-2.568,0l-.3.3a11.686,11.686,0,0,0-2.5-1.039v-.42A1.817,1.817,0,0,0,172.076,0h-2.814a1.817,1.817,0,0,0-1.815,1.815v.42a11.719,11.719,0,0,0-2.5,1.039l-.3-.3a1.814,1.814,0,0,0-2.568,0l-1.99,1.99a1.819,1.819,0,0,0,0,2.566l.3.3a11.669,11.669,0,0,0-1.037,2.5h-.422a1.817,1.817,0,0,0-1.815,1.815v2.817a1.817,1.817,0,0,0,1.815,1.815h.422a11.672,11.672,0,0,0,1.037,2.5l-.3.3a1.818,1.818,0,0,0,0,2.566l1.989,1.989a1.8,1.8,0,0,0,1.285.533h0a1.8,1.8,0,0,0,1.283-.532l.3-.3a11.662,11.662,0,0,0,2.5,1.038V25.3a1.817,1.817,0,0,0,1.815,1.815h2.814a1.817,1.817,0,0,0,1.815-1.815v-.422a11.624,11.624,0,0,0,2.5-1.037l.3.3a1.814,1.814,0,0,0,2.568,0l1.993-1.991a1.819,1.819,0,0,0,0-2.566l-.3-.3a11.732,11.732,0,0,0,1.037-2.5h.42a1.817,1.817,0,0,0,1.815-1.815V12.148a1.817,1.817,0,0,0-1.815-1.815ZM172.272,25.3a.2.2,0,0,1-.2.2h-2.814a.2.2,0,0,1-.2-.2V19.141a.81.81,0,0,0-.528-.759,5.547,5.547,0,0,1-1.2-9.8c.069-.047.129-.085.182-.116,0,.105-.01.205-.014.258-.006.082-.011.147-.011.211v3.822a3.351,3.351,0,0,0,3.121,3.336.817.817,0,0,0,.107,0,3.35,3.35,0,0,0,3.118-3.336V8.932c0-.064,0-.129-.011-.21,0-.052-.011-.153-.014-.259.053.031.113.069.181.116a5.548,5.548,0,0,1-1.2,9.8.81.81,0,0,0-.528.759V25.3ZM182.6,14.965a.2.2,0,0,1-.2.2H181.36a.81.81,0,0,0-.79.631,10.129,10.129,0,0,1-1.32,3.185.81.81,0,0,0,.112,1.005l.744.744a.2.2,0,0,1,0,.275l-1.995,1.992a.195.195,0,0,1-.274,0l-.744-.744a.81.81,0,0,0-1.006-.111,10.047,10.047,0,0,1-2.2,1.043v-3.5a7.166,7.166,0,0,0,1.02-12.438c-.3-.206-1.219-.833-2.021-.371s-.709,1.517-.676,1.971c0,.039.006.073.006.091v3.822a1.561,1.561,0,1,1-3.107,0V8.938c0-.024,0-.057.007-.1.034-.454.113-1.516-.674-1.97s-1.72.165-2.023.371a7.165,7.165,0,0,0,1.022,12.438v3.5a10.1,10.1,0,0,1-2.2-1.043.81.81,0,0,0-1.005.112l-.745.745a.195.195,0,0,1-.274,0L161.233,21a.2.2,0,0,1,0-.276l.744-.744a.81.81,0,0,0,.112-1.005,10.077,10.077,0,0,1-1.32-3.184.81.81,0,0,0-.79-.632h-1.051a.2.2,0,0,1-.2-.2V12.148a.2.2,0,0,1,.2-.2h1.051a.81.81,0,0,0,.79-.632,10.074,10.074,0,0,1,1.32-3.184.81.81,0,0,0-.112-1.005l-.744-.744a.2.2,0,0,1,0-.276l1.992-1.992a.195.195,0,0,1,.274,0l.744.744a.81.81,0,0,0,1.005.112,10.123,10.123,0,0,1,3.187-1.322.81.81,0,0,0,.631-.79V1.815a.2.2,0,0,1,.2-.2h2.814a.2.2,0,0,1,.2.2V2.864a.81.81,0,0,0,.631.79,10.082,10.082,0,0,1,3.184,1.322.81.81,0,0,0,1.006-.111l.745-.746a.188.188,0,0,1,.136-.055.19.19,0,0,1,.138.057l1.992,1.99a.2.2,0,0,1,0,.276l-.744.744a.81.81,0,0,0-.112,1.005,10.13,10.13,0,0,1,1.32,3.185.81.81,0,0,0,.79.631h1.049a.2.2,0,0,1,.2.2v2.817Z"
            transform="translate(-125.901)" fill="#0d6a6a" />
        <path d="M380.094,437.624a.81.81,0,1,0,1.145,1.145l0,0a.81.81,0,0,0-1.148-1.143Z"
            transform="translate(-330.608 -401.965)" fill="#0d6a6a" />
        <path
            d="M53.238,333.16l-6.429,3.3a2.986,2.986,0,0,0-2.153-.917H40.25a1.215,1.215,0,0,1-.311-.021,2.376,2.376,0,0,1-.239-.21l-.04-.038c-3.564-3.355-6.575-3.142-10-1.791a2.329,2.329,0,0,1-1.121.243h-1a2.154,2.154,0,0,0-2.041-1.476H22.264a2.152,2.152,0,0,0-2.148,2.151v8.5a2.151,2.151,0,0,0,2.148,2.148H25.5a2.154,2.154,0,0,0,2.041-1.474h1.822a.862.862,0,0,1,.348.053l.258.071,8.381,2.242c.369.1.708.2,1.036.293a10.562,10.562,0,0,0,2.917.573,6.4,6.4,0,0,0,3.637-1.309l.021-.014,1.6-1.141a.81.81,0,0,0-.94-1.319l-1.589,1.133c-2.122,1.411-3.023,1.151-5.2.521-.335-.1-.681-.2-1.066-.3l-8.382-2.242-.238-.066a2.257,2.257,0,0,0-.787-.113H27.654v-6.61h.91l.046,0a3.8,3.8,0,0,0,1.646-.355c3.007-1.187,5.328-1.328,8.294,1.465l.04.038a1.961,1.961,0,0,0,1.659.67h4.405a1.376,1.376,0,0,1,1.2.71l.008.014a1.373,1.373,0,0,1-1.211,2.025H37.516a.81.81,0,0,0,0,1.62h7.139a2.991,2.991,0,0,0,2.923-3.646l6.4-3.287a1.3,1.3,0,1,1,1.38,2.208l-2.807,2a.81.81,0,1,0,.939,1.319l2.808-2a2.918,2.918,0,0,0-3.06-4.968Zm-27.2,9.745a.537.537,0,0,1-.531.529H22.264a.536.536,0,0,1-.529-.529v-8.5a.53.53,0,0,1,.529-.531H25.5a.538.538,0,0,1,.531.531Z"
            transform="translate(0 -305.346)" fill="#0d6a6a" />
    </g>
</svg>