<svg xmlns="http://www.w3.org/2000/svg" width="18.627" height="21.493" viewBox="0 0 18.627 21.493">
    <g transform="translate(-8.185 -4.911)">
        <g transform="translate(8.185 16.374)">
            <path
                d="M115.98,234.667a9.324,9.324,0,0,0-9.314,9.314.716.716,0,1,0,1.433,0,7.881,7.881,0,1,1,15.762,0,.716.716,0,0,0,1.433,0A9.324,9.324,0,0,0,115.98,234.667Z"
                transform="translate(-106.666 -234.667)" fill="#272727" />
        </g>
        <g transform="translate(12.483 4.911)">
            <path
                d="M175.681,64a5.015,5.015,0,1,0,5.015,5.015A5.021,5.021,0,0,0,175.681,64Zm0,8.6a3.582,3.582,0,1,1,3.582-3.582A3.587,3.587,0,0,1,175.681,72.6Z"
                transform="translate(-170.666 -64)" fill="#272727" />
        </g>
    </g>
</svg>