<svg xmlns="http://www.w3.org/2000/svg" width="54.601" height="51.444" viewBox="0 0 54.601 51.444">
    <g transform="translate(0 -14.8)">
        <path
            d="M53.477,54.151,34.179,18.7a8.013,8.013,0,0,0-13.757,0L1.124,54.151a7.989,7.989,0,0,0-.064,8.062A7.893,7.893,0,0,0,8,66.244H46.6a7.893,7.893,0,0,0,6.942-4.031A7.989,7.989,0,0,0,53.477,54.151Z"
            fill="#495a79" />
        <path
            d="M282.24,62.213a7.893,7.893,0,0,1-6.942,4.031H256V14.8a7.987,7.987,0,0,1,6.879,3.9l19.3,35.448A7.989,7.989,0,0,1,282.24,62.213Z"
            transform="translate(-228.7)" fill="#42516d" />
        <path
            d="M77.528,82.583,58.23,47.135a4.814,4.814,0,0,0-8.254,0l-19.3,35.448a4.82,4.82,0,0,0,4.127,7.262H73.4a4.819,4.819,0,0,0,4.127-7.262Z"
            transform="translate(-26.802 -26.801)" fill="#ffde33" />
        <path
            d="M279.457,87.414a4.722,4.722,0,0,1-4.159,2.431H256V44.8a4.751,4.751,0,0,1,4.127,2.335l19.3,35.448A4.751,4.751,0,0,1,279.457,87.414Z"
            transform="translate(-228.7 -26.801)" fill="#ffbc33" />
        <g transform="translate(24.101 27.853)">
            <path d="M229.2,383.6a3.2,3.2,0,1,1,3.2-3.2A3.2,3.2,0,0,1,229.2,383.6Z"
                transform="translate(-226 -351.606)" fill="#495a79" />
            <path d="M232.4,156.4a3.2,3.2,0,1,1-6.4,0v-16a3.2,3.2,0,0,1,6.4,0Z"
                transform="translate(-226 -137.2)" fill="#495a79" />
        </g>
        <g transform="translate(27.3 27.853)">
            <path d="M259.2,380.4a3.2,3.2,0,0,0-3.2-3.2v6.4A3.2,3.2,0,0,0,259.2,380.4Z"
                transform="translate(-256 -351.606)" fill="#42516d" />
            <path d="M259.2,156.4v-16a3.2,3.2,0,0,0-3.2-3.2v22.395A3.2,3.2,0,0,0,259.2,156.4Z"
                transform="translate(-256 -137.2)" fill="#42516d" />
        </g>
    </g>
</svg>